CooperHewittInterpol2-Thin.ufo
<glyph name="exclam" format="1">
  <advance width="180"/>
  <unicode hex="0021"/>
  <outline>
    <contour>
      <point x="110" y="40" type="line" smooth="yes"/>
      <point x="70" y="40" type="line" smooth="yes"/>
      <point x="70" y="0" type="line" smooth="yes"/>
      <point x="110" y="0" type="line" smooth="yes"/>
    </contour>
    <contour>
      <point x="80" y="780" type="line" smooth="yes"/>
      <point x="83" y="175" type="line" smooth="yes"/>
      <point x="97" y="175" type="line" smooth="yes"/>
      <point x="100" y="780" type="line" smooth="yes"/>
    </contour>
  </outline>
</glyph>
<glyph name="quotedbl" format="1">
  <advance width="280"/>
  <unicode hex="0022"/>
  <outline>
    <contour>
      <point x="180" y="780" type="line" smooth="yes"/>
      <point x="185" y="530" type="line" smooth="yes"/>
      <point x="195" y="530" type="line" smooth="yes"/>
      <point x="200" y="780" type="line" smooth="yes"/>
    </contour>
    <contour>
      <point x="80" y="780" type="line" smooth="yes"/>
      <point x="85" y="530" type="line" smooth="yes"/>
      <point x="95" y="530" type="line" smooth="yes"/>
      <point x="100" y="780" type="line" smooth="yes"/>
    </contour>
  </outline>
</glyph>
<glyph name="dollar" format="1">
  <advance width="600"/>
  <unicode hex="0024"/>
  <outline>
    <contour>
      <point x="101" y="549" type="line" smooth="yes"/>
      <point x="101" y="554" type="line" smooth="yes"/>
      <point x="128" y="632" type="line" smooth="yes"/>
      <point x="199" y="682" type="line" smooth="yes"/>
      <point x="298" y="700" type="line" smooth="yes"/>
      <point x="301" y="700" type="line" smooth="yes"/>
      <point x="321" y="699" type="line" smooth="yes"/>
      <point x="340" y="698" type="line" smooth="yes"/>
      <point x="358" y="695" type="line" smooth="yes"/>
      <point x="290" y="411" type="line" smooth="yes"/>
      <point x="180" y="436" type="line" smooth="yes"/>
      <point x="119" y="480" type="line" smooth="yes"/>
    </contour>
    <contour>
      <point x="505" y="239" type="line" smooth="yes"/>
      <point x="505" y="234" type="line" smooth="yes"/>
      <point x="478" y="151" type="line" smooth="yes"/>
      <point x="405" y="98" type="line" smooth="yes"/>
      <point x="301" y="80" type="line" smooth="yes"/>
      <point x="298" y="80" type="line" smooth="yes"/>
      <point x="275" y="81" type="line" smooth="yes"/>
      <point x="253" y="83" type="line" smooth="yes"/>
      <point x="233" y="86" type="line" smooth="yes"/>
      <point x="305" y="390" type="line" smooth="yes"/>
      <point x="416" y="366" type="line" smooth="yes"/>
      <point x="482" y="319" type="line" smooth="yes"/>
    </contour>
    <contour>
      <point x="413" y="840" type="line" smooth="yes"/>
      <point x="393" y="840" type="line" smooth="yes"/>
      <point x="363" y="714" type="line" smooth="yes"/>
      <point x="343" y="717" type="line" smooth="yes"/>
      <point x="321" y="719" type="line" smooth="yes"/>
      <point x="299" y="720" type="line" smooth="yes"/>
      <point x="188" y="699" type="line" smooth="yes"/>
      <point x="109" y="642" type="line" smooth="yes"/>
      <point x="80" y="553" type="line" smooth="yes"/>
      <point x="80" y="545" type="line" smooth="yes"/>
      <point x="100" y="472" type="line" smooth="yes"/>
      <point x="166" y="421" type="line" smooth="yes"/>
      <point x="286" y="392" type="line" smooth="yes"/>
      <point x="214" y="91" type="line" smooth="yes"/>
      <point x="148" y="129" type="line" smooth="yes"/>
      <point x="108" y="191" type="line" smooth="yes"/>
      <point x="95" y="271" type="line" smooth="yes"/>
      <point x="75" y="271" type="line" smooth="yes"/>
      <point x="75" y="266" type="line" smooth="yes"/>
      <point x="89" y="183" type="line" smooth="yes"/>
      <point x="133" y="115" type="line" smooth="yes"/>
      <point x="209" y="72" type="line" smooth="yes"/>
      <point x="178" y="-60" type="line" smooth="yes"/>
      <point x="198" y="-60" type="line" smooth="yes"/>
      <point x="228" y="67" type="line" smooth="yes"/>
      <point x="250" y="63" type="line" smooth="yes"/>
      <point x="274" y="61" type="line" smooth="yes"/>
      <point x="300" y="60" type="line" smooth="yes"/>
      <point x="415" y="81" type="line" smooth="yes"/>
      <point x="495" y="141" type="line" smooth="yes"/>
      <point x="525" y="235" type="line" smooth="yes"/>
      <point x="525" y="243" type="line" smooth="yes"/>
      <point x="503" y="326" type="line" smooth="yes"/>
      <point x="432" y="381" type="line" smooth="yes"/>
      <point x="310" y="409" type="line" smooth="yes"/>
      <point x="377" y="690" type="line" smooth="yes"/>
      <point x="445" y="653" type="line" smooth="yes"/>
      <point x="486" y="589" type="line" smooth="yes"/>
      <point x="500" y="498" type="line" smooth="yes"/>
      <point x="520" y="498" type="line" smooth="yes"/>
      <point x="520" y="512" type="line" smooth="yes"/>
      <point x="505" y="600" type="line" smooth="yes"/>
      <point x="460" y="668" type="line" smooth="yes"/>
      <point x="382" y="709" type="line" smooth="yes"/>
    </contour>
  </outline>
</glyph>
<glyph name="percent" format="1">
  <advance width="900"/>
  <unicode hex="0025"/>
  <outline>
    <contour>
      <point x="277" y="0" type="line" smooth="yes"/>
      <point x="299" y="0" type="line" smooth="yes"/>
      <point x="617" y="765" type="line" smooth="yes"/>
      <point x="617" y="780" type="line" smooth="yes"/>
      <point x="573" y="767" type="line" smooth="yes"/>
      <point x="510" y="755" type="line" smooth="yes"/>
      <point x="440" y="750" type="line" smooth="yes"/>
      <point x="381" y="753" type="line" smooth="yes"/>
      <point x="320" y="761" type="line" smooth="yes"/>
      <point x="258" y="777" type="line" smooth="yes"/>
      <point x="240" y="782" type="line" smooth="yes"/>
      <point x="222" y="785" type="line" smooth="yes"/>
      <point x="202" y="786" type="line" smooth="yes"/>
      <point x="124" y="767" type="line" smooth="yes"/>
      <point x="73" y="712" type="line" smooth="yes"/>
      <point x="54" y="625" type="line" smooth="yes"/>
      <point x="54" y="615" type="line" smooth="yes"/>
      <point x="73" y="528" type="line" smooth="yes"/>
      <point x="124" y="473" type="line" smooth="yes"/>
      <point x="202" y="454" type="line" smooth="yes"/>
      <point x="280" y="473" type="line" smooth="yes"/>
      <point x="331" y="528" type="line" smooth="yes"/>
      <point x="350" y="615" type="line" smooth="yes"/>
      <point x="350" y="625" type="line" smooth="yes"/>
      <point x="345" y="672" type="line" smooth="yes"/>
      <point x="331" y="711" type="line" smooth="yes"/>
      <point x="310" y="743" type="line" smooth="yes"/>
      <point x="349" y="736" type="line" smooth="yes"/>
      <point x="392" y="732" type="line" smooth="yes"/>
      <point x="440" y="730" type="line" smooth="yes"/>
      <point x="515" y="736" type="line" smooth="yes"/>
      <point x="570" y="747" type="line" smooth="yes"/>
      <point x="591" y="753" type="line" smooth="yes"/>
    </contour>
    <contour>
      <point x="330" y="612" type="line" smooth="yes"/>
      <point x="315" y="542" type="line" smooth="yes"/>
      <point x="272" y="492" type="line" smooth="yes"/>
      <point x="205" y="474" type="line" smooth="yes"/>
      <point x="199" y="474" type="line" smooth="yes"/>
      <point x="132" y="492" type="line" smooth="yes"/>
      <point x="89" y="542" type="line" smooth="yes"/>
      <point x="74" y="612" type="line" smooth="yes"/>
      <point x="74" y="628" type="line" smooth="yes"/>
      <point x="89" y="698" type="line" smooth="yes"/>
      <point x="132" y="748" type="line" smooth="yes"/>
      <point x="199" y="766" type="line" smooth="yes"/>
      <point x="205" y="766" type="line" smooth="yes"/>
      <point x="272" y="748" type="line" smooth="yes"/>
      <point x="315" y="698" type="line" smooth="yes"/>
      <point x="330" y="628" type="line" smooth="yes"/>
    </contour>
    <contour>
      <point x="570" y="168" type="line" smooth="yes"/>
      <point x="585" y="238" type="line" smooth="yes"/>
      <point x="628" y="288" type="line" smooth="yes"/>
      <point x="695" y="306" type="line" smooth="yes"/>
      <point x="701" y="306" type="line" smooth="yes"/>
      <point x="768" y="288" type="line" smooth="yes"/>
      <point x="811" y="238" type="line" smooth="yes"/>
      <point x="826" y="168" type="line" smooth="yes"/>
      <point x="826" y="152" type="line" smooth="yes"/>
      <point x="811" y="82" type="line" smooth="yes"/>
      <point x="768" y="32" type="line" smooth="yes"/>
      <point x="701" y="14" type="line" smooth="yes"/>
      <point x="695" y="14" type="line" smooth="yes"/>
      <point x="628" y="32" type="line" smooth="yes"/>
      <point x="585" y="82" type="line" smooth="yes"/>
      <point x="570" y="152" type="line" smooth="yes"/>
    </contour>
    <contour>
      <point x="846" y="165" type="line" smooth="yes"/>
      <point x="827" y="252" type="line" smooth="yes"/>
      <point x="776" y="307" type="line" smooth="yes"/>
      <point x="698" y="326" type="line" smooth="yes"/>
      <point x="620" y="307" type="line" smooth="yes"/>
      <point x="569" y="252" type="line" smooth="yes"/>
      <point x="550" y="165" type="line" smooth="yes"/>
      <point x="550" y="155" type="line" smooth="yes"/>
      <point x="569" y="68" type="line" smooth="yes"/>
      <point x="620" y="13" type="line" smooth="yes"/>
      <point x="698" y="-6" type="line" smooth="yes"/>
      <point x="776" y="13" type="line" smooth="yes"/>
      <point x="827" y="68" type="line" smooth="yes"/>
      <point x="846" y="155" type="line" smooth="yes"/>
    </contour>
  </outline>
</glyph>
<glyph name="ampersand" format="1">
  <advance width="640"/>
  <unicode hex="0026"/>
  <outline>
    <contour>
      <point x="105" y="640" type="line" smooth="yes"/>
      <point x="121" y="704" type="line" smooth="yes"/>
      <point x="168" y="749" type="line" smooth="yes"/>
      <point x="246" y="766" type="line" smooth="yes"/>
      <point x="254" y="766" type="line" smooth="yes"/>
      <point x="332" y="749" type="line" smooth="yes"/>
      <point x="379" y="704" type="line" smooth="yes"/>
      <point x="395" y="640" type="line" smooth="yes"/>
      <point x="395" y="630" type="line" smooth="yes"/>
      <point x="368" y="553" type="line" smooth="yes"/>
      <point x="303" y="491" type="line" smooth="yes"/>
      <point x="218" y="434" type="line" smooth="yes"/>
      <point x="160" y="498" type="line" smooth="yes"/>
      <point x="120" y="561" type="line" smooth="yes"/>
      <point x="105" y="630" type="line" smooth="yes"/>
    </contour>
    <contour>
      <point x="272" y="14" type="line" smooth="yes"/>
      <point x="167" y="36" type="line" smooth="yes"/>
      <point x="102" y="100" type="line" smooth="yes"/>
      <point x="80" y="200" type="line" smooth="yes"/>
      <point x="80" y="210" type="line" smooth="yes"/>
      <point x="99" y="292" type="line" smooth="yes"/>
      <point x="148" y="357" type="line" smooth="yes"/>
      <point x="214" y="411" type="line" smooth="yes"/>
      <point x="486" y="124" type="line" smooth="yes"/>
      <point x="425" y="58" type="line" smooth="yes"/>
      <point x="353" y="24" type="line" smooth="yes"/>
      <point x="278" y="14" type="line" smooth="yes"/>
    </contour>
    <contour>
      <point x="275" y="-6" type="line" smooth="yes"/>
      <point x="360" y="5" type="line" smooth="yes"/>
      <point x="437" y="42" type="line" smooth="yes"/>
      <point x="500" y="110" type="line" smooth="yes"/>
      <point x="604" y="0" type="line" smooth="yes"/>
      <point x="630" y="0" type="line" smooth="yes"/>
      <point x="510" y="127" type="line" smooth="yes"/>
      <point x="539" y="198" type="line" smooth="yes"/>
      <point x="558" y="286" type="line" smooth="yes"/>
      <point x="565" y="395" type="line" smooth="yes"/>
      <point x="545" y="395" type="line" smooth="yes"/>
      <point x="545" y="390" type="line" smooth="yes"/>
      <point x="538" y="289" type="line" smooth="yes"/>
      <point x="521" y="207" type="line" smooth="yes"/>
      <point x="495" y="142" type="line" smooth="yes"/>
      <point x="230" y="422" type="line" smooth="yes"/>
      <point x="318" y="481" type="line" smooth="yes"/>
      <point x="387" y="547" type="line" smooth="yes"/>
      <point x="415" y="630" type="line" smooth="yes"/>
      <point x="415" y="640" type="line" smooth="yes"/>
      <point x="397" y="713" type="line" smooth="yes"/>
      <point x="342" y="766" type="line" smooth="yes"/>
      <point x="250" y="786" type="line" smooth="yes"/>
      <point x="158" y="766" type="line" smooth="yes"/>
      <point x="103" y="713" type="line" smooth="yes"/>
      <point x="85" y="640" type="line" smooth="yes"/>
      <point x="85" y="630" type="line" smooth="yes"/>
      <point x="100" y="558" type="line" smooth="yes"/>
      <point x="140" y="493" type="line" smooth="yes"/>
      <point x="202" y="423" type="line" smooth="yes"/>
      <point x="132" y="368" type="line" smooth="yes"/>
      <point x="80" y="299" type="line" smooth="yes"/>
      <point x="60" y="210" type="line" smooth="yes"/>
      <point x="60" y="200" type="line" smooth="yes"/>
      <point x="86" y="87" type="line" smooth="yes"/>
      <point x="159" y="17" type="line" smooth="yes"/>
    </contour>
  </outline>
</glyph>
<glyph name="parenleft" format="1">
  <advance width="300"/>
  <unicode hex="0028"/>
  <outline>
    <contour>
      <point x="65" y="350" type="line" smooth="yes"/>
      <point x="88" y="149" type="line" smooth="yes"/>
      <point x="147" y="-1" type="line" smooth="yes"/>
      <point x="227" y="-120" type="line" smooth="yes"/>
      <point x="250" y="-120" type="line" smooth="yes"/>
      <point x="165" y="6" type="line" smooth="yes"/>
      <point x="107" y="157" type="line" smooth="yes"/>
      <point x="85" y="350" type="line" smooth="yes"/>
      <point x="85" y="370" type="line" smooth="yes"/>
      <point x="107" y="563" type="line" smooth="yes"/>
      <point x="165" y="714" type="line" smooth="yes"/>
      <point x="250" y="840" type="line" smooth="yes"/>
      <point x="227" y="840" type="line" smooth="yes"/>
      <point x="147" y="721" type="line" smooth="yes"/>
      <point x="88" y="571" type="line" smooth="yes"/>
      <point x="65" y="370" type="line" smooth="yes"/>
    </contour>
  </outline>
</glyph>
<glyph name="parenright" format="1">
  <advance width="300"/>
  <unicode hex="0029"/>
  <outline>
    <contour>
      <point x="235" y="370" type="line" smooth="yes"/>
      <point x="212" y="571" type="line" smooth="yes"/>
      <point x="153" y="721" type="line" smooth="yes"/>
      <point x="73" y="840" type="line" smooth="yes"/>
      <point x="50" y="840" type="line" smooth="yes"/>
      <point x="135" y="714" type="line" smooth="yes"/>
      <point x="193" y="563" type="line" smooth="yes"/>
      <point x="215" y="370" type="line" smooth="yes"/>
      <point x="215" y="350" type="line" smooth="yes"/>
      <point x="193" y="157" type="line" smooth="yes"/>
      <point x="135" y="6" type="line" smooth="yes"/>
      <point x="50" y="-120" type="line" smooth="yes"/>
      <point x="73" y="-120" type="line" smooth="yes"/>
      <point x="153" y="-1" type="line" smooth="yes"/>
      <point x="212" y="149" type="line" smooth="yes"/>
      <point x="235" y="350" type="line" smooth="yes"/>
    </contour>
  </outline>
</glyph>
<glyph name="zero" format="1">
  <advance width="600"/>
  <unicode hex="0030"/>
  <outline>
    <contour>
      <point x="90" y="250" type="line" smooth="yes"/>
      <point x="90" y="530" type="line" smooth="yes"/>
      <point x="116" y="665" type="line" smooth="yes"/>
      <point x="188" y="742" type="line" smooth="yes"/>
      <point x="297" y="766" type="line" smooth="yes"/>
      <point x="303" y="766" type="line" smooth="yes"/>
      <point x="412" y="742" type="line" smooth="yes"/>
      <point x="484" y="665" type="line" smooth="yes"/>
      <point x="510" y="530" type="line" smooth="yes"/>
      <point x="510" y="250" type="line" smooth="yes"/>
      <point x="484" y="115" type="line" smooth="yes"/>
      <point x="412" y="38" type="line" smooth="yes"/>
      <point x="303" y="14" type="line" smooth="yes"/>
      <point x="297" y="14" type="line" smooth="yes"/>
      <point x="188" y="38" type="line" smooth="yes"/>
      <point x="116" y="115" type="line" smooth="yes"/>
    </contour>
    <contour>
      <point x="70" y="544" type="line" smooth="yes"/>
      <point x="70" y="236" type="line" smooth="yes"/>
      <point x="95" y="109" type="line" smooth="yes"/>
      <point x="172" y="25" type="line" smooth="yes"/>
      <point x="300" y="-6" type="line" smooth="yes"/>
      <point x="428" y="25" type="line" smooth="yes"/>
      <point x="505" y="109" type="line" smooth="yes"/>
      <point x="530" y="236" type="line" smooth="yes"/>
      <point x="530" y="544" type="line" smooth="yes"/>
      <point x="505" y="671" type="line" smooth="yes"/>
      <point x="428" y="755" type="line" smooth="yes"/>
      <point x="300" y="786" type="line" smooth="yes"/>
      <point x="172" y="755" type="line" smooth="yes"/>
      <point x="95" y="671" type="line" smooth="yes"/>
    </contour>
  </outline>
</glyph>
<glyph name="two" format="1">
  <advance width="600"/>
  <unicode hex="0032"/>
  <outline>
    <contour>
      <point x="205" y="20" type="line" smooth="yes"/>
      <point x="95" y="19" type="line" smooth="yes"/>
      <point x="427" y="367" type="line" smooth="yes"/>
      <point x="491" y="442" type="line" smooth="yes"/>
      <point x="525" y="506" type="line" smooth="yes"/>
      <point x="535" y="580" type="line" smooth="yes"/>
      <point x="535" y="590" type="line" smooth="yes"/>
      <point x="503" y="695" type="line" smooth="yes"/>
      <point x="419" y="762" type="line" smooth="yes"/>
      <point x="300" y="786" type="line" smooth="yes"/>
      <point x="165" y="758" type="line" smooth="yes"/>
      <point x="89" y="676" type="line" smooth="yes"/>
      <point x="65" y="545" type="line" smooth="yes"/>
      <point x="65" y="520" type="line" smooth="yes"/>
      <point x="85" y="520" type="line" smooth="yes"/>
      <point x="104" y="654" type="line" smooth="yes"/>
      <point x="169" y="738" type="line" smooth="yes"/>
      <point x="296" y="766" type="line" smooth="yes"/>
      <point x="304" y="766" type="line" smooth="yes"/>
      <point x="409" y="745" type="line" smooth="yes"/>
      <point x="485" y="685" type="line" smooth="yes"/>
      <point x="515" y="590" type="line" smooth="yes"/>
      <point x="515" y="580" type="line" smooth="yes"/>
      <point x="505" y="509" type="line" smooth="yes"/>
      <point x="472" y="448" type="line" smooth="yes"/>
      <point x="414" y="381" type="line" smooth="yes"/>
      <point x="65" y="15" type="line" smooth="yes"/>
      <point x="65" y="0" type="line" smooth="yes"/>
      <point x="535" y="0" type="line" smooth="yes"/>
      <point x="535" y="20" type="line" smooth="yes"/>
    </contour>
  </outline>
</glyph>
<glyph name="five" format="1">
  <advance width="600"/>
  <unicode hex="0035"/>
  <outline>
    <contour>
      <point x="297" y="466" type="line" smooth="yes"/>
      <point x="303" y="466" type="line" smooth="yes"/>
      <point x="414" y="439" type="line" smooth="yes"/>
      <point x="491" y="363" type="line" smooth="yes"/>
      <point x="520" y="248" type="line" smooth="yes"/>
      <point x="520" y="232" type="line" smooth="yes"/>
      <point x="491" y="117" type="line" smooth="yes"/>
      <point x="414" y="41" type="line" smooth="yes"/>
      <point x="303" y="14" type="line" smooth="yes"/>
      <point x="297" y="14" type="line" smooth="yes"/>
      <point x="179" y="41" type="line" smooth="yes"/>
      <point x="106" y="119" type="line" smooth="yes"/>
      <point x="80" y="250" type="line" smooth="yes"/>
      <point x="60" y="250" type="line" smooth="yes"/>
      <point x="60" y="240" type="line" smooth="yes"/>
      <point x="86" y="111" type="line" smooth="yes"/>
      <point x="166" y="25" type="line" smooth="yes"/>
      <point x="300" y="-6" type="line" smooth="yes"/>
      <point x="422" y="23" type="line" smooth="yes"/>
      <point x="508" y="106" type="line" smooth="yes"/>
      <point x="540" y="235" type="line" smooth="yes"/>
      <point x="540" y="245" type="line" smooth="yes"/>
      <point x="508" y="374" type="line" smooth="yes"/>
      <point x="422" y="457" type="line" smooth="yes"/>
      <point x="300" y="486" type="line" smooth="yes"/>
      <point x="209" y="473" type="line" smooth="yes"/>
      <point x="138" y="437" type="line" smooth="yes"/>
      <point x="88" y="380" type="line" smooth="yes"/>
      <point x="104" y="760" type="line" smooth="yes"/>
      <point x="530" y="760" type="line" smooth="yes"/>
      <point x="530" y="780" type="line" smooth="yes"/>
      <point x="85" y="780" type="line" smooth="yes"/>
      <point x="66" y="339" type="line" smooth="yes"/>
      <point x="86" y="333" type="line" smooth="yes"/>
      <point x="132" y="407" type="line" smooth="yes"/>
      <point x="204" y="451" type="line" smooth="yes"/>
    </contour>
  </outline>
</glyph>
<glyph name="six" format="1">
  <advance width="600"/>
  <unicode hex="0036"/>
  <outline>
    <contour>
      <point x="307" y="466" type="line" smooth="yes"/>
      <point x="313" y="466" type="line" smooth="yes"/>
      <point x="423" y="439" type="line" smooth="yes"/>
      <point x="498" y="363" type="line" smooth="yes"/>
      <point x="525" y="248" type="line" smooth="yes"/>
      <point x="525" y="232" type="line" smooth="yes"/>
      <point x="496" y="117" type="line" smooth="yes"/>
      <point x="419" y="41" type="line" smooth="yes"/>
      <point x="308" y="14" type="line" smooth="yes"/>
      <point x="302" y="14" type="line" smooth="yes"/>
      <point x="191" y="43" type="line" smooth="yes"/>
      <point x="114" y="125" type="line" smooth="yes"/>
      <point x="85" y="252" type="line" smooth="yes"/>
      <point x="85" y="268" type="line" smooth="yes"/>
      <point x="85" y="283" type="line" smooth="yes"/>
      <point x="86" y="298" type="line" smooth="yes"/>
      <point x="87" y="313" type="line" smooth="yes"/>
      <point x="136" y="390" type="line" smooth="yes"/>
      <point x="212" y="445" type="line" smooth="yes"/>
    </contour>
    <contour>
      <point x="510" y="786" type="line" smooth="yes"/>
      <point x="388" y="766" type="line" smooth="yes"/>
      <point x="274" y="708" type="line" smooth="yes"/>
      <point x="177" y="612" type="line" smooth="yes"/>
      <point x="111" y="499" type="line" smooth="yes"/>
      <point x="76" y="382" type="line" smooth="yes"/>
      <point x="65" y="265" type="line" smooth="yes"/>
      <point x="65" y="255" type="line" smooth="yes"/>
      <point x="97" y="114" type="line" smooth="yes"/>
      <point x="183" y="25" type="line" smooth="yes"/>
      <point x="305" y="-6" type="line" smooth="yes"/>
      <point x="427" y="23" type="line" smooth="yes"/>
      <point x="513" y="106" type="line" smooth="yes"/>
      <point x="545" y="235" type="line" smooth="yes"/>
      <point x="545" y="245" type="line" smooth="yes"/>
      <point x="514" y="374" type="line" smooth="yes"/>
      <point x="431" y="457" type="line" smooth="yes"/>
      <point x="310" y="486" type="line" smooth="yes"/>
      <point x="217" y="469" type="line" smooth="yes"/>
      <point x="143" y="423" type="line" smooth="yes"/>
      <point x="92" y="358" type="line" smooth="yes"/>
      <point x="111" y="439" type="line" smooth="yes"/>
      <point x="143" y="520" type="line" smooth="yes"/>
      <point x="191" y="599" type="line" smooth="yes"/>
      <point x="285" y="693" type="line" smooth="yes"/>
      <point x="396" y="749" type="line" smooth="yes"/>
      <point x="510" y="767" type="line" smooth="yes"/>
    </contour>
  </outline>
</glyph>
<glyph name="eight" format="1">
  <advance width="600"/>
  <unicode hex="0038"/>
  <outline>
    <contour>
      <point x="303" y="766" type="line" smooth="yes"/>
      <point x="408" y="745" type="line" smooth="yes"/>
      <point x="484" y="687" type="line" smooth="yes"/>
      <point x="513" y="597" type="line" smooth="yes"/>
      <point x="513" y="577" type="line" smooth="yes"/>
      <point x="489" y="487" type="line" smooth="yes"/>
      <point x="422" y="429" type="line" smooth="yes"/>
      <point x="323" y="408" type="line" smooth="yes"/>
      <point x="277" y="408" type="line" smooth="yes"/>
      <point x="178" y="429" type="line" smooth="yes"/>
      <point x="111" y="487" type="line" smooth="yes"/>
      <point x="87" y="577" type="line" smooth="yes"/>
      <point x="87" y="597" type="line" smooth="yes"/>
      <point x="116" y="687" type="line" smooth="yes"/>
      <point x="192" y="745" type="line" smooth="yes"/>
      <point x="297" y="766" type="line" smooth="yes"/>
    </contour>
    <contour>
      <point x="277" y="388" type="line" smooth="yes"/>
      <point x="323" y="388" type="line" smooth="yes"/>
      <point x="429" y="367" type="line" smooth="yes"/>
      <point x="496" y="305" type="line" smooth="yes"/>
      <point x="520" y="207" type="line" smooth="yes"/>
      <point x="520" y="192" type="line" smooth="yes"/>
      <point x="491" y="94" type="line" smooth="yes"/>
      <point x="414" y="34" type="line" smooth="yes"/>
      <point x="303" y="14" type="line" smooth="yes"/>
      <point x="297" y="14" type="line" smooth="yes"/>
      <point x="186" y="34" type="line" smooth="yes"/>
      <point x="109" y="94" type="line" smooth="yes"/>
      <point x="80" y="192" type="line" smooth="yes"/>
      <point x="80" y="207" type="line" smooth="yes"/>
      <point x="104" y="305" type="line" smooth="yes"/>
      <point x="171" y="367" type="line" smooth="yes"/>
    </contour>
    <contour>
      <point x="535" y="582" type="line" smooth="yes"/>
      <point x="535" y="592" type="line" smooth="yes"/>
      <point x="503" y="697" type="line" smooth="yes"/>
      <point x="419" y="763" type="line" smooth="yes"/>
      <point x="300" y="786" type="line" smooth="yes"/>
      <point x="181" y="763" type="line" smooth="yes"/>
      <point x="97" y="697" type="line" smooth="yes"/>
      <point x="65" y="592" type="line" smooth="yes"/>
      <point x="65" y="582" type="line" smooth="yes"/>
      <point x="83" y="495" type="line" smooth="yes"/>
      <point x="132" y="433" type="line" smooth="yes"/>
      <point x="210" y="398" type="line" smooth="yes"/>
      <point x="129" y="364" type="line" smooth="yes"/>
      <point x="78" y="299" type="line" smooth="yes"/>
      <point x="60" y="205" type="line" smooth="yes"/>
      <point x="60" y="195" type="line" smooth="yes"/>
      <point x="92" y="83" type="line" smooth="yes"/>
      <point x="178" y="16" type="line" smooth="yes"/>
      <point x="300" y="-6" type="line" smooth="yes"/>
      <point x="422" y="16" type="line" smooth="yes"/>
      <point x="508" y="83" type="line" smooth="yes"/>
      <point x="540" y="195" type="line" smooth="yes"/>
      <point x="540" y="205" type="line" smooth="yes"/>
      <point x="522" y="299" type="line" smooth="yes"/>
      <point x="470" y="364" type="line" smooth="yes"/>
      <point x="389" y="398" type="line" smooth="yes"/>
      <point x="467" y="433" type="line" smooth="yes"/>
      <point x="517" y="495" type="line" smooth="yes"/>
    </contour>
  </outline>
</glyph>
<glyph name="nine" format="1">
  <advance width="600"/>
  <unicode hex="0039"/>
  <outline>
    <contour>
      <point x="287" y="314" type="line" smooth="yes"/>
      <point x="177" y="341" type="line" smooth="yes"/>
      <point x="102" y="417" type="line" smooth="yes"/>
      <point x="75" y="532" type="line" smooth="yes"/>
      <point x="75" y="548" type="line" smooth="yes"/>
      <point x="104" y="663" type="line" smooth="yes"/>
      <point x="181" y="739" type="line" smooth="yes"/>
      <point x="292" y="766" type="line" smooth="yes"/>
      <point x="298" y="766" type="line" smooth="yes"/>
      <point x="409" y="737" type="line" smooth="yes"/>
      <point x="486" y="655" type="line" smooth="yes"/>
      <point x="515" y="528" type="line" smooth="yes"/>
      <point x="515" y="512" type="line" smooth="yes"/>
      <point x="515" y="497" type="line" smooth="yes"/>
      <point x="514" y="482" type="line" smooth="yes"/>
      <point x="513" y="467" type="line" smooth="yes"/>
      <point x="464" y="390" type="line" smooth="yes"/>
      <point x="388" y="335" type="line" smooth="yes"/>
      <point x="293" y="314" type="line" smooth="yes"/>
    </contour>
    <contour>
      <point x="90" y="-6" type="line" smooth="yes"/>
      <point x="212" y="14" type="line" smooth="yes"/>
      <point x="326" y="72" type="line" smooth="yes"/>
      <point x="423" y="168" type="line" smooth="yes"/>
      <point x="489" y="281" type="line" smooth="yes"/>
      <point x="524" y="398" type="line" smooth="yes"/>
      <point x="535" y="515" type="line" smooth="yes"/>
      <point x="535" y="525" type="line" smooth="yes"/>
      <point x="503" y="666" type="line" smooth="yes"/>
      <point x="417" y="755" type="line" smooth="yes"/>
      <point x="295" y="786" type="line" smooth="yes"/>
      <point x="173" y="757" type="line" smooth="yes"/>
      <point x="87" y="674" type="line" smooth="yes"/>
      <point x="55" y="545" type="line" smooth="yes"/>
      <point x="55" y="535" type="line" smooth="yes"/>
      <point x="86" y="406" type="line" smooth="yes"/>
      <point x="169" y="323" type="line" smooth="yes"/>
      <point x="290" y="294" type="line" smooth="yes"/>
      <point x="383" y="311" type="line" smooth="yes"/>
      <point x="456" y="357" type="line" smooth="yes"/>
      <point x="508" y="421" type="line" smooth="yes"/>
      <point x="489" y="340" type="line" smooth="yes"/>
      <point x="456" y="260" type="line" smooth="yes"/>
      <point x="409" y="181" type="line" smooth="yes"/>
      <point x="315" y="87" type="line" smooth="yes"/>
      <point x="204" y="31" type="line" smooth="yes"/>
      <point x="90" y="13" type="line" smooth="yes"/>
    </contour>
  </outline>
</glyph>
<glyph name="colon" format="1">
  <advance width="180"/>
  <unicode hex="003A"/>
  <outline>
    <contour>
      <point x="110" y="410" type="line" smooth="yes"/>
      <point x="70" y="410" type="line" smooth="yes"/>
      <point x="70" y="370" type="line" smooth="yes"/>
      <point x="110" y="370" type="line" smooth="yes"/>
    </contour>
    <contour>
      <point x="110" y="40" type="line" smooth="yes"/>
      <point x="70" y="40" type="line" smooth="yes"/>
      <point x="70" y="0" type="line" smooth="yes"/>
      <point x="110" y="0" type="line" smooth="yes"/>
    </contour>
  </outline>
</glyph>
<glyph name="semicolon" format="1">
  <advance width="180"/>
  <unicode hex="003B"/>
  <outline>
    <contour>
      <point x="110" y="40" type="line" smooth="yes"/>
      <point x="70" y="40" type="line" smooth="yes"/>
      <point x="70" y="0" type="line" smooth="yes"/>
      <point x="90" y="0" type="line" smooth="yes"/>
      <point x="81" y="-51" type="line" smooth="yes"/>
      <point x="58" y="-78" type="line" smooth="yes"/>
      <point x="25" y="-85" type="line" smooth="yes"/>
      <point x="25" y="-105" type="line" smooth="yes"/>
      <point x="70" y="-93" type="line" smooth="yes"/>
      <point x="99" y="-55" type="line" smooth="yes"/>
      <point x="110" y="8" type="line" smooth="yes"/>
    </contour>
    <contour>
      <point x="110" y="410" type="line" smooth="yes"/>
      <point x="70" y="410" type="line" smooth="yes"/>
      <point x="70" y="370" type="line" smooth="yes"/>
      <point x="110" y="370" type="line" smooth="yes"/>
    </contour>
  </outline>
</glyph>
<glyph name="equal" format="1">
  <advance width="600"/>
  <unicode hex="003D"/>
  <outline>
    <contour>
      <point x="50" y="280" type="line" smooth="yes"/>
      <point x="550" y="280" type="line" smooth="yes"/>
      <point x="550" y="300" type="line" smooth="yes"/>
      <point x="50" y="300" type="line" smooth="yes"/>
    </contour>
    <contour>
      <point x="50" y="480" type="line" smooth="yes"/>
      <point x="550" y="480" type="line" smooth="yes"/>
      <point x="550" y="500" type="line" smooth="yes"/>
      <point x="50" y="500" type="line" smooth="yes"/>
    </contour>
  </outline>
</glyph>
<glyph name="question" format="1">
  <advance width="440"/>
  <unicode hex="003F"/>
  <outline>
    <contour>
      <point x="240" y="40" type="line" smooth="yes"/>
      <point x="200" y="40" type="line" smooth="yes"/>
      <point x="200" y="0" type="line" smooth="yes"/>
      <point x="240" y="0" type="line" smooth="yes"/>
    </contour>
    <contour>
      <point x="227" y="175" type="line" smooth="yes"/>
      <point x="275" y="331" type="line" smooth="yes"/>
      <point x="358" y="446" type="line" smooth="yes"/>
      <point x="403" y="582" type="line" smooth="yes"/>
      <point x="386" y="678" type="line" smooth="yes"/>
      <point x="329" y="754" type="line" smooth="yes"/>
      <point x="223" y="786" type="line" smooth="yes"/>
      <point x="115" y="752" type="line" smooth="yes"/>
      <point x="53" y="656" type="line" smooth="yes"/>
      <point x="33" y="507" type="line" smooth="yes"/>
      <point x="33" y="500" type="line" smooth="yes"/>
      <point x="53" y="500" type="line" smooth="yes"/>
      <point x="70" y="645" type="line" smooth="yes"/>
      <point x="125" y="735" type="line" smooth="yes"/>
      <point x="223" y="766" type="line" smooth="yes"/>
      <point x="319" y="737" type="line" smooth="yes"/>
      <point x="369" y="666" type="line" smooth="yes"/>
      <point x="383" y="575" type="line" smooth="yes"/>
      <point x="339" y="450" type="line" smooth="yes"/>
      <point x="257" y="334" type="line" smooth="yes"/>
      <point x="213" y="175" type="line" smooth="yes"/>
    </contour>
  </outline>
</glyph>
<glyph name="at" format="1">
  <advance width="930"/>
  <unicode hex="0040"/>
  <outline>
    <contour>
      <point x="615" y="423" type="line" smooth="yes"/>
      <point x="615" y="167" type="line" smooth="yes"/>
      <point x="579" y="125" type="line" smooth="yes"/>
      <point x="525" y="89" type="line" smooth="yes"/>
      <point x="453" y="74" type="line" smooth="yes"/>
      <point x="353" y="101" type="line" smooth="yes"/>
      <point x="291" y="175" type="line" smooth="yes"/>
      <point x="270" y="285" type="line" smooth="yes"/>
      <point x="270" y="305" type="line" smooth="yes"/>
      <point x="291" y="415" type="line" smooth="yes"/>
      <point x="353" y="489" type="line" smooth="yes"/>
      <point x="453" y="516" type="line" smooth="yes"/>
      <point x="525" y="501" type="line" smooth="yes"/>
      <point x="579" y="465" type="line" smooth="yes"/>
    </contour>
    <contour>
      <point x="487" y="-186" type="line" smooth="yes"/>
      <point x="265" y="-131" type="line" smooth="yes"/>
      <point x="112" y="25" type="line" smooth="yes"/>
      <point x="55" y="270" type="line" smooth="yes"/>
      <point x="55" y="310" type="line" smooth="yes"/>
      <point x="111" y="555" type="line" smooth="yes"/>
      <point x="262" y="711" type="line" smooth="yes"/>
      <point x="482" y="766" type="line" smooth="yes"/>
      <point x="488" y="766" type="line" smooth="yes"/>
      <point x="678" y="724" type="line" smooth="yes"/>
      <point x="820" y="597" type="line" smooth="yes"/>
      <point x="875" y="385" type="line" smooth="yes"/>
      <point x="875" y="355" type="line" smooth="yes"/>
      <point x="844" y="181" type="line" smooth="yes"/>
      <point x="760" y="100" type="line" smooth="yes"/>
      <point x="639" y="80" type="line" smooth="yes"/>
      <point x="635" y="180" type="line" smooth="yes"/>
      <point x="635" y="410" type="line" smooth="yes"/>
      <point x="640" y="530" type="line" smooth="yes"/>
      <point x="625" y="530" type="line" smooth="yes"/>
      <point x="618" y="451" type="line" smooth="yes"/>
      <point x="582" y="489" type="line" smooth="yes"/>
      <point x="526" y="522" type="line" smooth="yes"/>
      <point x="452" y="536" type="line" smooth="yes"/>
      <point x="341" y="506" type="line" smooth="yes"/>
      <point x="273" y="425" type="line" smooth="yes"/>
      <point x="250" y="305" type="line" smooth="yes"/>
      <point x="250" y="285" type="line" smooth="yes"/>
      <point x="273" y="165" type="line" smooth="yes"/>
      <point x="341" y="84" type="line" smooth="yes"/>
      <point x="452" y="54" type="line" smooth="yes"/>
      <point x="526" y="68" type="line" smooth="yes"/>
      <point x="582" y="101" type="line" smooth="yes"/>
      <point x="618" y="139" type="line" smooth="yes"/>
      <point x="625" y="60" type="line" smooth="yes"/>
      <point x="630" y="60" type="line" smooth="yes"/>
      <point x="768" y="83" type="line" smooth="yes"/>
      <point x="861" y="172" type="line" smooth="yes"/>
      <point x="895" y="355" type="line" smooth="yes"/>
      <point x="895" y="385" type="line" smooth="yes"/>
      <point x="838" y="605" type="line" smooth="yes"/>
      <point x="689" y="740" type="line" smooth="yes"/>
      <point x="485" y="786" type="line" smooth="yes"/>
      <point x="251" y="727" type="line" smooth="yes"/>
      <point x="93" y="562" type="line" smooth="yes"/>
      <point x="35" y="310" type="line" smooth="yes"/>
      <point x="35" y="270" type="line" smooth="yes"/>
      <point x="94" y="18" type="line" smooth="yes"/>
      <point x="254" y="-147" type="line" smooth="yes"/>
      <point x="490" y="-206" type="line" smooth="yes"/>
      <point x="607" y="-198" type="line" smooth="yes"/>
      <point x="721" y="-167" type="line" smooth="yes"/>
      <point x="834" y="-103" type="line" smooth="yes"/>
      <point x="822" y="-87" type="line" smooth="yes"/>
      <point x="716" y="-147" type="line" smooth="yes"/>
      <point x="608" y="-177" type="line" smooth="yes"/>
      <point x="493" y="-186" type="line" smooth="yes"/>
    </contour>
  </outline>
</glyph>
<glyph name="B" format="1">
  <advance width="552"/>
  <unicode hex="0042"/>
  <outline>
    <contour>
      <point x="257" y="760" type="line" smooth="yes"/>
      <point x="344" y="751" type="line" smooth="yes"/>
      <point x="420" y="704" type="line" smooth="yes"/>
      <point x="453" y="591" type="line" smooth="yes"/>
      <point x="453" y="577" type="line" smooth="yes"/>
      <point x="420" y="464" type="line" smooth="yes"/>
      <point x="344" y="417" type="line" smooth="yes"/>
      <point x="257" y="408" type="line" smooth="yes"/>
      <point x="100" y="408" type="line" smooth="yes"/>
      <point x="100" y="760" type="line" smooth="yes"/>
    </contour>
    <contour>
      <point x="277" y="388" type="line" smooth="yes"/>
      <point x="364" y="377" type="line" smooth="yes"/>
      <point x="440" y="327" type="line" smooth="yes"/>
      <point x="473" y="213" type="line" smooth="yes"/>
      <point x="473" y="195" type="line" smooth="yes"/>
      <point x="440" y="81" type="line" smooth="yes"/>
      <point x="364" y="31" type="line" smooth="yes"/>
      <point x="277" y="20" type="line" smooth="yes"/>
      <point x="100" y="20" type="line" smooth="yes"/>
      <point x="100" y="388" type="line" smooth="yes"/>
    </contour>
    <contour>
      <point x="80" y="780" type="line" smooth="yes"/>
      <point x="80" y="0" type="line" smooth="yes"/>
      <point x="279" y="0" type="line" smooth="yes"/>
      <point x="382" y="15" type="line" smooth="yes"/>
      <point x="462" y="74" type="line" smooth="yes"/>
      <point x="494" y="194" type="line" smooth="yes"/>
      <point x="494" y="214" type="line" smooth="yes"/>
      <point x="472" y="316" type="line" smooth="yes"/>
      <point x="415" y="374" type="line" smooth="yes"/>
      <point x="339" y="399" type="line" smooth="yes"/>
      <point x="406" y="425" type="line" smooth="yes"/>
      <point x="455" y="481" type="line" smooth="yes"/>
      <point x="474" y="576" type="line" smooth="yes"/>
      <point x="474" y="592" type="line" smooth="yes"/>
      <point x="442" y="711" type="line" smooth="yes"/>
      <point x="362" y="766" type="line" smooth="yes"/>
      <point x="259" y="780" type="line" smooth="yes"/>
    </contour>
  </outline>
</glyph>
<glyph name="G" format="1">
  <advance width="625"/>
  <unicode hex="0047"/>
  <outline>
    <contour>
      <point x="336" y="-6" type="line" smooth="yes"/>
      <point x="436" y="7" type="line" smooth="yes"/>
      <point x="506" y="39" type="line" smooth="yes"/>
      <point x="550" y="79" type="line" smooth="yes"/>
      <point x="550" y="362" type="line" smooth="yes"/>
      <point x="371" y="362" type="line" smooth="yes"/>
      <point x="371" y="342" type="line" smooth="yes"/>
      <point x="530" y="342" type="line" smooth="yes"/>
      <point x="530" y="88" type="line" smooth="yes"/>
      <point x="489" y="52" type="line" smooth="yes"/>
      <point x="425" y="25" type="line" smooth="yes"/>
      <point x="339" y="14" type="line" smooth="yes"/>
      <point x="333" y="14" type="line" smooth="yes"/>
      <point x="198" y="49" type="line" smooth="yes"/>
      <point x="114" y="162" type="line" smooth="yes"/>
      <point x="85" y="370" type="line" smooth="yes"/>
      <point x="85" y="410" type="line" smooth="yes"/>
      <point x="114" y="618" type="line" smooth="yes"/>
      <point x="196" y="731" type="line" smooth="yes"/>
      <point x="322" y="766" type="line" smooth="yes"/>
      <point x="328" y="766" type="line" smooth="yes"/>
      <point x="444" y="738" type="line" smooth="yes"/>
      <point x="509" y="652" type="line" smooth="yes"/>
      <point x="530" y="500" type="line" smooth="yes"/>
      <point x="550" y="500" type="line" smooth="yes"/>
      <point x="550" y="523" type="line" smooth="yes"/>
      <point x="528" y="662" type="line" smooth="yes"/>
      <point x="457" y="753" type="line" smooth="yes"/>
      <point x="325" y="786" type="line" smooth="yes"/>
      <point x="184" y="749" type="line" smooth="yes"/>
      <point x="96" y="628" type="line" smooth="yes"/>
      <point x="65" y="410" type="line" smooth="yes"/>
      <point x="65" y="370" type="line" smooth="yes"/>
      <point x="96" y="152" type="line" smooth="yes"/>
      <point x="187" y="31" type="line" smooth="yes"/>
    </contour>
  </outline>
</glyph>
<glyph name="J" format="1">
  <advance width="470"/>
  <unicode hex="004A"/>
  <outline>
    <contour>
      <point x="373" y="780" type="line" smooth="yes"/>
      <point x="373" y="247" type="line" smooth="yes"/>
      <point x="359" y="121" type="line" smooth="yes"/>
      <point x="309" y="42" type="line" smooth="yes"/>
      <point x="213" y="14" type="line" smooth="yes"/>
      <point x="118" y="42" type="line" smooth="yes"/>
      <point x="68" y="121" type="line" smooth="yes"/>
      <point x="53" y="247" type="line" smooth="yes"/>
      <point x="33" y="247" type="line" smooth="yes"/>
      <point x="33" y="240" type="line" smooth="yes"/>
      <point x="50" y="110" type="line" smooth="yes"/>
      <point x="108" y="24" type="line" smooth="yes"/>
      <point x="213" y="-6" type="line" smooth="yes"/>
      <point x="319" y="24" type="line" smooth="yes"/>
      <point x="376" y="110" type="line" smooth="yes"/>
      <point x="393" y="240" type="line" smooth="yes"/>
      <point x="393" y="780" type="line" smooth="yes"/>
    </contour>
  </outline>
</glyph>
<glyph name="M" format="1">
  <advance width="760"/>
  <unicode hex="004D"/>
  <outline>
    <contour>
      <point x="380" y="28" type="line" smooth="yes"/>
      <point x="101" y="780" type="line" smooth="yes"/>
      <point x="80" y="780" type="line" smooth="yes"/>
      <point x="80" y="0" type="line" smooth="yes"/>
      <point x="100" y="0" type="line" smooth="yes"/>
      <point x="100" y="561" type="line" smooth="yes"/>
      <point x="97" y="734" type="line" smooth="yes"/>
      <point x="370" y="0" type="line" smooth="yes"/>
      <point x="390" y="0" type="line" smooth="yes"/>
      <point x="663" y="734" type="line" smooth="yes"/>
      <point x="660" y="561" type="line" smooth="yes"/>
      <point x="660" y="0" type="line" smooth="yes"/>
      <point x="680" y="0" type="line" smooth="yes"/>
      <point x="680" y="780" type="line" smooth="yes"/>
      <point x="659" y="780" type="line" smooth="yes"/>
    </contour>
  </outline>
</glyph>
<glyph name="Q" format="1">
  <advance width="626"/>
  <unicode hex="0051"/>
  <outline>
    <contour>
      <point x="85" y="370" type="line" smooth="yes"/>
      <point x="85" y="410" type="line" smooth="yes"/>
      <point x="111" y="617" type="line" smooth="yes"/>
      <point x="187" y="731" type="line" smooth="yes"/>
      <point x="312" y="766" type="line" smooth="yes"/>
      <point x="318" y="766" type="line" smooth="yes"/>
      <point x="443" y="731" type="line" smooth="yes"/>
      <point x="519" y="617" type="line" smooth="yes"/>
      <point x="545" y="410" type="line" smooth="yes"/>
      <point x="545" y="370" type="line" smooth="yes"/>
      <point x="528" y="196" type="line" smooth="yes"/>
      <point x="478" y="84" type="line" smooth="yes"/>
      <point x="397" y="26" type="line" smooth="yes"/>
      <point x="330" y="205" type="line" smooth="yes"/>
      <point x="310" y="205" type="line" smooth="yes"/>
      <point x="379" y="21" type="line" smooth="yes"/>
      <point x="360" y="17" type="line" smooth="yes"/>
      <point x="339" y="15" type="line" smooth="yes"/>
      <point x="318" y="14" type="line" smooth="yes"/>
      <point x="312" y="14" type="line" smooth="yes"/>
      <point x="187" y="49" type="line" smooth="yes"/>
      <point x="111" y="163" type="line" smooth="yes"/>
    </contour>
    <contour>
      <point x="65" y="410" type="line" smooth="yes"/>
      <point x="65" y="370" type="line" smooth="yes"/>
      <point x="93" y="153" type="line" smooth="yes"/>
      <point x="177" y="31" type="line" smooth="yes"/>
      <point x="315" y="-6" type="line" smooth="yes"/>
      <point x="340" y="-5" type="line" smooth="yes"/>
      <point x="364" y="-2" type="line" smooth="yes"/>
      <point x="386" y="2" type="line" smooth="yes"/>
      <point x="425" y="-100" type="line" smooth="yes"/>
      <point x="445" y="-100" type="line" smooth="yes"/>
      <point x="404" y="7" type="line" smooth="yes"/>
      <point x="493" y="69" type="line" smooth="yes"/>
      <point x="547" y="188" type="line" smooth="yes"/>
      <point x="565" y="370" type="line" smooth="yes"/>
      <point x="565" y="410" type="line" smooth="yes"/>
      <point x="537" y="627" type="line" smooth="yes"/>
      <point x="453" y="749" type="line" smooth="yes"/>
      <point x="315" y="786" type="line" smooth="yes"/>
      <point x="177" y="749" type="line" smooth="yes"/>
      <point x="93" y="627" type="line" smooth="yes"/>
    </contour>
  </outline>
</glyph>
<glyph name="Y" format="1">
  <advance width="540"/>
  <unicode hex="0059"/>
  <outline>
    <contour>
      <point x="265" y="259" type="line" smooth="yes"/>
      <point x="37" y="780" type="line" smooth="yes"/>
      <point x="15" y="780" type="line" smooth="yes"/>
      <point x="255" y="235" type="line" smooth="yes"/>
      <point x="255" y="0" type="line" smooth="yes"/>
      <point x="275" y="0" type="line" smooth="yes"/>
      <point x="275" y="235" type="line" smooth="yes"/>
      <point x="515" y="780" type="line" smooth="yes"/>
      <point x="493" y="780" type="line" smooth="yes"/>
    </contour>
  </outline>
</glyph>
<glyph name="bracketright" format="1">
  <advance width="300"/>
  <unicode hex="005D"/>
  <outline>
    <contour>
      <point x="220" y="-120" type="line" smooth="yes"/>
      <point x="220" y="840" type="line" smooth="yes"/>
      <point x="50" y="840" type="line" smooth="yes"/>
      <point x="50" y="820" type="line" smooth="yes"/>
      <point x="200" y="820" type="line" smooth="yes"/>
      <point x="200" y="-100" type="line" smooth="yes"/>
      <point x="50" y="-100" type="line" smooth="yes"/>
      <point x="50" y="-120" type="line" smooth="yes"/>
    </contour>
  </outline>
</glyph>
<glyph name="c" format="1">
  <advance width="505"/>
  <unicode hex="0063"/>
  <outline>
    <contour>
      <point x="55" y="275" type="line" smooth="yes"/>
      <point x="55" y="255" type="line" smooth="yes"/>
      <point x="77" y="121" type="line" smooth="yes"/>
      <point x="147" y="28" type="line" smooth="yes"/>
      <point x="268" y="-6" type="line" smooth="yes"/>
      <point x="376" y="20" type="line" smooth="yes"/>
      <point x="433" y="85" type="line" smooth="yes"/>
      <point x="450" y="165" type="line" smooth="yes"/>
      <point x="450" y="175" type="line" smooth="yes"/>
      <point x="430" y="175" type="line" smooth="yes"/>
      <point x="414" y="92" type="line" smooth="yes"/>
      <point x="362" y="35" type="line" smooth="yes"/>
      <point x="268" y="14" type="line" smooth="yes"/>
      <point x="160" y="44" type="line" smooth="yes"/>
      <point x="96" y="128" type="line" smooth="yes"/>
      <point x="75" y="255" type="line" smooth="yes"/>
      <point x="75" y="275" type="line" smooth="yes"/>
      <point x="96" y="402" type="line" smooth="yes"/>
      <point x="160" y="486" type="line" smooth="yes"/>
      <point x="268" y="516" type="line" smooth="yes"/>
      <point x="362" y="493" type="line" smooth="yes"/>
      <point x="414" y="432" type="line" smooth="yes"/>
      <point x="430" y="345" type="line" smooth="yes"/>
      <point x="450" y="345" type="line" smooth="yes"/>
      <point x="450" y="355" type="line" smooth="yes"/>
      <point x="433" y="440" type="line" smooth="yes"/>
      <point x="376" y="508" type="line" smooth="yes"/>
      <point x="268" y="536" type="line" smooth="yes"/>
      <point x="147" y="502" type="line" smooth="yes"/>
      <point x="77" y="409" type="line" smooth="yes"/>
    </contour>
  </outline>
</glyph>
<glyph name="f" format="1">
  <advance width="340"/>
  <unicode hex="0066"/>
  <outline>
    <contour>
      <point x="135" y="665" type="line" smooth="yes"/>
      <point x="150" y="740" type="line" smooth="yes"/>
      <point x="190" y="777" type="line" smooth="yes"/>
      <point x="250" y="786" type="line" smooth="yes"/>
      <point x="275" y="784" type="line" smooth="yes"/>
      <point x="296" y="780" type="line" smooth="yes"/>
      <point x="310" y="776" type="line" smooth="yes"/>
      <point x="310" y="796" type="line" smooth="yes"/>
      <point x="299" y="799" type="line" smooth="yes"/>
      <point x="278" y="804" type="line" smooth="yes"/>
      <point x="246" y="806" type="line" smooth="yes"/>
      <point x="181" y="795" type="line" smooth="yes"/>
      <point x="133" y="754" type="line" smooth="yes"/>
      <point x="115" y="671" type="line" smooth="yes"/>
      <point x="115" y="530" type="line" smooth="yes"/>
      <point x="30" y="530" type="line" smooth="yes"/>
      <point x="30" y="510" type="line" smooth="yes"/>
      <point x="115" y="510" type="line" smooth="yes"/>
      <point x="115" y="0" type="line" smooth="yes"/>
      <point x="135" y="0" type="line" smooth="yes"/>
      <point x="135" y="510" type="line" smooth="yes"/>
      <point x="300" y="510" type="line" smooth="yes"/>
      <point x="300" y="530" type="line" smooth="yes"/>
      <point x="135" y="530" type="line" smooth="yes"/>
    </contour>
  </outline>
</glyph>
<glyph name="m" format="1">
  <advance width="750"/>
  <unicode hex="006D"/>
  <outline>
    <contour>
      <point x="690" y="0" type="line" smooth="yes"/>
      <point x="690" y="390" type="line" smooth="yes"/>
      <point x="675" y="471" type="line" smooth="yes"/>
      <point x="628" y="520" type="line" smooth="yes"/>
      <point x="551" y="536" type="line" smooth="yes"/>
      <point x="475" y="522" type="line" smooth="yes"/>
      <point x="420" y="487" type="line" smooth="yes"/>
      <point x="384" y="444" type="line" smooth="yes"/>
      <point x="359" y="495" type="line" smooth="yes"/>
      <point x="315" y="526" type="line" smooth="yes"/>
      <point x="251" y="536" type="line" smooth="yes"/>
      <point x="177" y="523" type="line" smooth="yes"/>
      <point x="123" y="490" type="line" smooth="yes"/>
      <point x="87" y="449" type="line" smooth="yes"/>
      <point x="80" y="530" type="line" smooth="yes"/>
      <point x="65" y="530" type="line" smooth="yes"/>
      <point x="70" y="410" type="line" smooth="yes"/>
      <point x="70" y="0" type="line" smooth="yes"/>
      <point x="90" y="0" type="line" smooth="yes"/>
      <point x="90" y="423" type="line" smooth="yes"/>
      <point x="125" y="466" type="line" smooth="yes"/>
      <point x="178" y="501" type="line" smooth="yes"/>
      <point x="249" y="516" type="line" smooth="yes"/>
      <point x="316" y="503" type="line" smooth="yes"/>
      <point x="357" y="461" type="line" smooth="yes"/>
      <point x="370" y="385" type="line" smooth="yes"/>
      <point x="370" y="0" type="line" smooth="yes"/>
      <point x="390" y="0" type="line" smooth="yes"/>
      <point x="390" y="423" type="line" smooth="yes"/>
      <point x="425" y="466" type="line" smooth="yes"/>
      <point x="478" y="501" type="line" smooth="yes"/>
      <point x="549" y="516" type="line" smooth="yes"/>
      <point x="616" y="503" type="line" smooth="yes"/>
      <point x="657" y="461" type="line" smooth="yes"/>
      <point x="670" y="385" type="line" smooth="yes"/>
      <point x="670" y="0" type="line" smooth="yes"/>
    </contour>
  </outline>
</glyph>
<glyph name="n" format="1">
  <advance width="490"/>
  <unicode hex="006E"/>
  <outline>
    <contour>
      <point x="430" y="0" type="line" smooth="yes"/>
      <point x="430" y="380" type="line" smooth="yes"/>
      <point x="412" y="468" type="line" smooth="yes"/>
      <point x="358" y="519" type="line" smooth="yes"/>
      <point x="271" y="536" type="line" smooth="yes"/>
      <point x="187" y="523" type="line" smooth="yes"/>
      <point x="126" y="489" type="line" smooth="yes"/>
      <point x="87" y="448" type="line" smooth="yes"/>
      <point x="80" y="530" type="line" smooth="yes"/>
      <point x="65" y="530" type="line" smooth="yes"/>
      <point x="70" y="410" type="line" smooth="yes"/>
      <point x="70" y="0" type="line" smooth="yes"/>
      <point x="90" y="0" type="line" smooth="yes"/>
      <point x="90" y="423" type="line" smooth="yes"/>
      <point x="127" y="466" type="line" smooth="yes"/>
      <point x="186" y="501" type="line" smooth="yes"/>
      <point x="269" y="516" type="line" smooth="yes"/>
      <point x="346" y="503" type="line" smooth="yes"/>
      <point x="394" y="458" type="line" smooth="yes"/>
      <point x="410" y="375" type="line" smooth="yes"/>
      <point x="410" y="0" type="line" smooth="yes"/>
    </contour>
  </outline>
</glyph>
<glyph name="q" format="1">
  <advance width="510"/>
  <unicode hex="0071"/>
  <outline>
    <contour>
      <point x="420" y="107" type="line" smooth="yes"/>
      <point x="385" y="65" type="line" smooth="yes"/>
      <point x="332" y="29" type="line" smooth="yes"/>
      <point x="258" y="14" type="line" smooth="yes"/>
      <point x="156" y="44" type="line" smooth="yes"/>
      <point x="95" y="127" type="line" smooth="yes"/>
      <point x="75" y="255" type="line" smooth="yes"/>
      <point x="75" y="275" type="line" smooth="yes"/>
      <point x="95" y="403" type="line" smooth="yes"/>
      <point x="156" y="486" type="line" smooth="yes"/>
      <point x="258" y="516" type="line" smooth="yes"/>
      <point x="332" y="501" type="line" smooth="yes"/>
      <point x="385" y="465" type="line" smooth="yes"/>
      <point x="420" y="423" type="line" smooth="yes"/>
    </contour>
    <contour>
      <point x="420" y="-200" type="line" smooth="yes"/>
      <point x="440" y="-200" type="line" smooth="yes"/>
      <point x="440" y="410" type="line" smooth="yes"/>
      <point x="445" y="530" type="line" smooth="yes"/>
      <point x="430" y="530" type="line" smooth="yes"/>
      <point x="423" y="451" type="line" smooth="yes"/>
      <point x="388" y="489" type="line" smooth="yes"/>
      <point x="334" y="522" type="line" smooth="yes"/>
      <point x="258" y="536" type="line" smooth="yes"/>
      <point x="146" y="504" type="line" smooth="yes"/>
      <point x="78" y="415" type="line" smooth="yes"/>
      <point x="55" y="275" type="line" smooth="yes"/>
      <point x="55" y="255" type="line" smooth="yes"/>
      <point x="78" y="115" type="line" smooth="yes"/>
      <point x="146" y="26" type="line" smooth="yes"/>
      <point x="258" y="-6" type="line" smooth="yes"/>
      <point x="332" y="7" type="line" smooth="yes"/>
      <point x="385" y="38" type="line" smooth="yes"/>
      <point x="420" y="75" type="line" smooth="yes"/>
    </contour>
  </outline>
</glyph>
<glyph name="braceleft" format="1">
  <advance width="300"/>
  <unicode hex="007B"/>
  <outline>
    <contour>
      <point x="250" y="840" type="line" smooth="yes"/>
      <point x="246" y="840" type="line" smooth="yes"/>
      <point x="186" y="830" type="line" smooth="yes"/>
      <point x="142" y="792" type="line" smooth="yes"/>
      <point x="125" y="715" type="line" smooth="yes"/>
      <point x="125" y="464" type="line" smooth="yes"/>
      <point x="113" y="405" type="line" smooth="yes"/>
      <point x="82" y="377" type="line" smooth="yes"/>
      <point x="35" y="370" type="line" smooth="yes"/>
      <point x="35" y="350" type="line" smooth="yes"/>
      <point x="82" y="343" type="line" smooth="yes"/>
      <point x="113" y="315" type="line" smooth="yes"/>
      <point x="125" y="256" type="line" smooth="yes"/>
      <point x="125" y="5" type="line" smooth="yes"/>
      <point x="142" y="-72" type="line" smooth="yes"/>
      <point x="186" y="-110" type="line" smooth="yes"/>
      <point x="246" y="-120" type="line" smooth="yes"/>
      <point x="250" y="-120" type="line" smooth="yes"/>
      <point x="250" y="-100" type="line" smooth="yes"/>
      <point x="195" y="-91" type="line" smooth="yes"/>
      <point x="158" y="-59" type="line" smooth="yes"/>
      <point x="145" y="10" type="line" smooth="yes"/>
      <point x="145" y="257" type="line" smooth="yes"/>
      <point x="138" y="308" type="line" smooth="yes"/>
      <point x="117" y="342" type="line" smooth="yes"/>
      <point x="87" y="360" type="line" smooth="yes"/>
      <point x="117" y="378" type="line" smooth="yes"/>
      <point x="138" y="411" type="line" smooth="yes"/>
      <point x="145" y="463" type="line" smooth="yes"/>
      <point x="145" y="710" type="line" smooth="yes"/>
      <point x="158" y="779" type="line" smooth="yes"/>
      <point x="195" y="811" type="line" smooth="yes"/>
      <point x="250" y="820" type="line" smooth="yes"/>
    </contour>
  </outline>
</glyph>
<glyph name="braceright" format="1">
  <advance width="300"/>
  <unicode hex="007D"/>
  <outline>
    <contour>
      <point x="50" y="-120" type="line" smooth="yes"/>
      <point x="54" y="-120" type="line" smooth="yes"/>
      <point x="114" y="-110" type="line" smooth="yes"/>
      <point x="158" y="-72" type="line" smooth="yes"/>
      <point x="175" y="5" type="line" smooth="yes"/>
      <point x="175" y="256" type="line" smooth="yes"/>
      <point x="187" y="315" type="line" smooth="yes"/>
      <point x="218" y="343" type="line" smooth="yes"/>
      <point x="265" y="350" type="line" smooth="yes"/>
      <point x="265" y="370" type="line" smooth="yes"/>
      <point x="218" y="377" type="line" smooth="yes"/>
      <point x="187" y="405" type="line" smooth="yes"/>
      <point x="175" y="464" type="line" smooth="yes"/>
      <point x="175" y="715" type="line" smooth="yes"/>
      <point x="158" y="792" type="line" smooth="yes"/>
      <point x="114" y="830" type="line" smooth="yes"/>
      <point x="54" y="840" type="line" smooth="yes"/>
      <point x="50" y="840" type="line" smooth="yes"/>
      <point x="50" y="820" type="line" smooth="yes"/>
      <point x="105" y="811" type="line" smooth="yes"/>
      <point x="142" y="779" type="line" smooth="yes"/>
      <point x="155" y="710" type="line" smooth="yes"/>
      <point x="155" y="463" type="line" smooth="yes"/>
      <point x="162" y="411" type="line" smooth="yes"/>
      <point x="183" y="378" type="line" smooth="yes"/>
      <point x="213" y="360" type="line" smooth="yes"/>
      <point x="183" y="342" type="line" smooth="yes"/>
      <point x="162" y="308" type="line" smooth="yes"/>
      <point x="155" y="257" type="line" smooth="yes"/>
      <point x="155" y="10" type="line" smooth="yes"/>
      <point x="142" y="-59" type="line" smooth="yes"/>
      <point x="105" y="-91" type="line" smooth="yes"/>
      <point x="50" y="-100" type="line" smooth="yes"/>
    </contour>
  </outline>
</glyph>
<glyph name="asciitilde" format="1">
  <advance width="600"/>
  <unicode hex="007E"/>
  <outline>
    <contour>
      <point x="429" y="354" type="line" smooth="yes"/>
      <point x="341" y="375" type="line" smooth="yes"/>
      <point x="265" y="415" type="line" smooth="yes"/>
      <point x="170" y="436" type="line" smooth="yes"/>
      <point x="109" y="422" type="line" smooth="yes"/>
      <point x="67" y="394" type="line" smooth="yes"/>
      <point x="45" y="371" type="line" smooth="yes"/>
      <point x="60" y="356" type="line" smooth="yes"/>
      <point x="82" y="379" type="line" smooth="yes"/>
      <point x="119" y="404" type="line" smooth="yes"/>
      <point x="171" y="416" type="line" smooth="yes"/>
      <point x="259" y="395" type="line" smooth="yes"/>
      <point x="335" y="355" type="line" smooth="yes"/>
      <point x="430" y="334" type="line" smooth="yes"/>
      <point x="491" y="348" type="line" smooth="yes"/>
      <point x="533" y="376" type="line" smooth="yes"/>
      <point x="555" y="399" type="line" smooth="yes"/>
      <point x="540" y="414" type="line" smooth="yes"/>
      <point x="518" y="391" type="line" smooth="yes"/>
      <point x="481" y="366" type="line" smooth="yes"/>
    </contour>
  </outline>
</glyph>
<glyph name="cent" format="1">
  <advance width="600"/>
  <unicode hex="00A2"/>
  <outline>
    <contour>
      <point x="94" y="378" type="line" smooth="yes"/>
      <point x="94" y="401" type="line" smooth="yes"/>
      <point x="120" y="568" type="line" smooth="yes"/>
      <point x="195" y="667" type="line" smooth="yes"/>
      <point x="314" y="700" type="line" smooth="yes"/>
      <point x="317" y="700" type="line" smooth="yes"/>
      <point x="332" y="700" type="line" smooth="yes"/>
      <point x="346" y="699" type="line" smooth="yes"/>
      <point x="359" y="697" type="line" smooth="yes"/>
      <point x="216" y="100" type="line" smooth="yes"/>
      <point x="150" y="156" type="line" smooth="yes"/>
      <point x="108" y="249" type="line" smooth="yes"/>
    </contour>
    <contour>
      <point x="413" y="840" type="line" smooth="yes"/>
      <point x="393" y="840" type="line" smooth="yes"/>
      <point x="363" y="716" type="line" smooth="yes"/>
      <point x="348" y="718" type="line" smooth="yes"/>
      <point x="332" y="720" type="line" smooth="yes"/>
      <point x="315" y="720" type="line" smooth="yes"/>
      <point x="183" y="684" type="line" smooth="yes"/>
      <point x="102" y="577" type="line" smooth="yes"/>
      <point x="74" y="401" type="line" smooth="yes"/>
      <point x="74" y="378" type="line" smooth="yes"/>
      <point x="90" y="239" type="line" smooth="yes"/>
      <point x="135" y="140" type="line" smooth="yes"/>
      <point x="211" y="80" type="line" smooth="yes"/>
      <point x="178" y="-60" type="line" smooth="yes"/>
      <point x="198" y="-60" type="line" smooth="yes"/>
      <point x="230" y="73" type="line" smooth="yes"/>
      <point x="256" y="66" type="line" smooth="yes"/>
      <point x="285" y="61" type="line" smooth="yes"/>
      <point x="315" y="60" type="line" smooth="yes"/>
      <point x="435" y="88" type="line" smooth="yes"/>
      <point x="504" y="162" type="line" smooth="yes"/>
      <point x="526" y="266" type="line" smooth="yes"/>
      <point x="526" y="278" type="line" smooth="yes"/>
      <point x="506" y="278" type="line" smooth="yes"/>
      <point x="484" y="169" type="line" smooth="yes"/>
      <point x="420" y="103" type="line" smooth="yes"/>
      <point x="317" y="80" type="line" smooth="yes"/>
      <point x="314" y="80" type="line" smooth="yes"/>
      <point x="286" y="81" type="line" smooth="yes"/>
      <point x="259" y="85" type="line" smooth="yes"/>
      <point x="234" y="92" type="line" smooth="yes"/>
      <point x="378" y="693" type="line" smooth="yes"/>
      <point x="449" y="656" type="line" smooth="yes"/>
      <point x="492" y="585" type="line" smooth="yes"/>
      <point x="506" y="481" type="line" smooth="yes"/>
      <point x="526" y="481" type="line" smooth="yes"/>
      <point x="526" y="496" type="line" smooth="yes"/>
      <point x="510" y="597" type="line" smooth="yes"/>
      <point x="463" y="670" type="line" smooth="yes"/>
      <point x="382" y="712" type="line" smooth="yes"/>
    </contour>
  </outline>
</glyph>
<glyph name="sterling" format="1">
  <advance width="600"/>
  <unicode hex="00A3"/>
  <outline>
    <contour>
      <point x="60" y="380" type="line" smooth="yes"/>
      <point x="163" y="380" type="line" smooth="yes"/>
      <point x="195" y="264" type="line" smooth="yes"/>
      <point x="223" y="144" type="line" smooth="yes"/>
      <point x="237" y="20" type="line" smooth="yes"/>
      <point x="60" y="20" type="line" smooth="yes"/>
      <point x="60" y="0" type="line" smooth="yes"/>
      <point x="540" y="0" type="line" smooth="yes"/>
      <point x="540" y="20" type="line" smooth="yes"/>
      <point x="257" y="20" type="line" smooth="yes"/>
      <point x="245" y="142" type="line" smooth="yes"/>
      <point x="217" y="263" type="line" smooth="yes"/>
      <point x="185" y="380" type="line" smooth="yes"/>
      <point x="400" y="380" type="line" smooth="yes"/>
      <point x="400" y="400" type="line" smooth="yes"/>
      <point x="180" y="400" type="line" smooth="yes"/>
      <point x="165" y="462" type="line" smooth="yes"/>
      <point x="154" y="521" type="line" smooth="yes"/>
      <point x="150" y="575" type="line" smooth="yes"/>
      <point x="170" y="666" type="line" smooth="yes"/>
      <point x="229" y="737" type="line" smooth="yes"/>
      <point x="330" y="766" type="line" smooth="yes"/>
      <point x="433" y="735" type="line" smooth="yes"/>
      <point x="498" y="645" type="line" smooth="yes"/>
      <point x="520" y="500" type="line" smooth="yes"/>
      <point x="540" y="500" type="line" smooth="yes"/>
      <point x="540" y="507" type="line" smooth="yes"/>
      <point x="515" y="656" type="line" smooth="yes"/>
      <point x="443" y="752" type="line" smooth="yes"/>
      <point x="330" y="786" type="line" smooth="yes"/>
      <point x="219" y="754" type="line" smooth="yes"/>
      <point x="152" y="678" type="line" smooth="yes"/>
      <point x="130" y="582" type="line" smooth="yes"/>
      <point x="134" y="523" type="line" smooth="yes"/>
      <point x="144" y="462" type="line" smooth="yes"/>
      <point x="158" y="400" type="line" smooth="yes"/>
      <point x="60" y="400" type="line" smooth="yes"/>
    </contour>
  </outline>
</glyph>
<glyph name="section" format="1">
  <advance width="500"/>
  <unicode hex="00A7"/>
  <outline>
    <contour>
      <point x="70" y="386" type="line" smooth="yes"/>
      <point x="91" y="453" type="line" smooth="yes"/>
      <point x="149" y="497" type="line" smooth="yes"/>
      <point x="240" y="512" type="line" smooth="yes"/>
      <point x="250" y="512" type="line" smooth="yes"/>
      <point x="351" y="496" type="line" smooth="yes"/>
      <point x="410" y="460" type="line" smooth="yes"/>
      <point x="430" y="390" type="line" smooth="yes"/>
      <point x="409" y="323" type="line" smooth="yes"/>
      <point x="351" y="279" type="line" smooth="yes"/>
      <point x="260" y="264" type="line" smooth="yes"/>
      <point x="250" y="264" type="line" smooth="yes"/>
      <point x="149" y="280" type="line" smooth="yes"/>
      <point x="90" y="316" type="line" smooth="yes"/>
    </contour>
    <contour>
      <point x="50" y="389" type="line" smooth="yes"/>
      <point x="50" y="383" type="line" smooth="yes"/>
      <point x="67" y="311" type="line" smooth="yes"/>
      <point x="124" y="269" type="line" smooth="yes"/>
      <point x="230" y="248" type="line" smooth="yes"/>
      <point x="338" y="228" type="line" smooth="yes"/>
      <point x="391" y="190" type="line" smooth="yes"/>
      <point x="405" y="131" type="line" smooth="yes"/>
      <point x="385" y="65" type="line" smooth="yes"/>
      <point x="328" y="24" type="line" smooth="yes"/>
      <point x="240" y="10" type="line" smooth="yes"/>
      <point x="141" y="29" type="line" smooth="yes"/>
      <point x="90" y="83" type="line" smooth="yes"/>
      <point x="75" y="166" type="line" smooth="yes"/>
      <point x="55" y="166" type="line" smooth="yes"/>
      <point x="55" y="162" type="line" smooth="yes"/>
      <point x="72" y="74" type="line" smooth="yes"/>
      <point x="131" y="13" type="line" smooth="yes"/>
      <point x="240" y="-10" type="line" smooth="yes"/>
      <point x="340" y="8" type="line" smooth="yes"/>
      <point x="403" y="56" type="line" smooth="yes"/>
      <point x="425" y="128" type="line" smooth="yes"/>
      <point x="425" y="134" type="line" smooth="yes"/>
      <point x="416" y="185" type="line" smooth="yes"/>
      <point x="384" y="225" type="line" smooth="yes"/>
      <point x="322" y="252" type="line" smooth="yes"/>
      <point x="391" y="279" type="line" smooth="yes"/>
      <point x="435" y="325" type="line" smooth="yes"/>
      <point x="450" y="387" type="line" smooth="yes"/>
      <point x="450" y="393" type="line" smooth="yes"/>
      <point x="433" y="465" type="line" smooth="yes"/>
      <point x="376" y="507" type="line" smooth="yes"/>
      <point x="270" y="528" type="line" smooth="yes"/>
      <point x="162" y="548" type="line" smooth="yes"/>
      <point x="109" y="586" type="line" smooth="yes"/>
      <point x="95" y="645" type="line" smooth="yes"/>
      <point x="115" y="711" type="line" smooth="yes"/>
      <point x="172" y="752" type="line" smooth="yes"/>
      <point x="260" y="766" type="line" smooth="yes"/>
      <point x="359" y="747" type="line" smooth="yes"/>
      <point x="410" y="693" type="line" smooth="yes"/>
      <point x="425" y="610" type="line" smooth="yes"/>
      <point x="445" y="610" type="line" smooth="yes"/>
      <point x="445" y="614" type="line" smooth="yes"/>
      <point x="428" y="702" type="line" smooth="yes"/>
      <point x="369" y="763" type="line" smooth="yes"/>
      <point x="260" y="786" type="line" smooth="yes"/>
      <point x="160" y="768" type="line" smooth="yes"/>
      <point x="97" y="720" type="line" smooth="yes"/>
      <point x="75" y="648" type="line" smooth="yes"/>
      <point x="75" y="642" type="line" smooth="yes"/>
      <point x="84" y="591" type="line" smooth="yes"/>
      <point x="115" y="551" type="line" smooth="yes"/>
      <point x="178" y="524" type="line" smooth="yes"/>
      <point x="108" y="497" type="line" smooth="yes"/>
      <point x="65" y="451" type="line" smooth="yes"/>
    </contour>
  </outline>
</glyph>
<glyph name="dieresis" format="1">
  <advance width="500"/>
  <unicode hex="00A8"/>
  <outline>
    <contour>
      <point x="340" y="720" type="line" smooth="yes"/>
      <point x="300" y="720" type="line" smooth="yes"/>
      <point x="300" y="680" type="line" smooth="yes"/>
      <point x="340" y="680" type="line" smooth="yes"/>
    </contour>
    <contour>
      <point x="200" y="720" type="line" smooth="yes"/>
      <point x="160" y="720" type="line" smooth="yes"/>
      <point x="160" y="680" type="line" smooth="yes"/>
      <point x="200" y="680" type="line" smooth="yes"/>
    </contour>
  </outline>
</glyph>
<glyph name="ordfeminine" format="1">
  <advance width="377"/>
  <unicode hex="00AA"/>
  <outline>
    <contour>
      <point x="50" y="230" type="line" smooth="yes"/>
      <point x="322" y="230" type="line" smooth="yes"/>
      <point x="322" y="250" type="line" smooth="yes"/>
      <point x="50" y="250" type="line" smooth="yes"/>
    </contour>
    <contour>
      <point x="155" y="400" type="line" smooth="yes"/>
      <point x="103" y="411" type="line" smooth="yes"/>
      <point x="72" y="441" type="line" smooth="yes"/>
      <point x="62" y="481" type="line" smooth="yes"/>
      <point x="62" y="491" type="line" smooth="yes"/>
      <point x="75" y="542" type="line" smooth="yes"/>
      <point x="111" y="570" type="line" smooth="yes"/>
      <point x="161" y="584" type="line" smooth="yes"/>
      <point x="299" y="607" type="line" smooth="yes"/>
      <point x="299" y="479" type="line" smooth="yes"/>
      <point x="276" y="447" type="line" smooth="yes"/>
      <point x="230" y="415" type="line" smooth="yes"/>
    </contour>
    <contour>
      <point x="42" y="481" type="line" smooth="yes"/>
      <point x="57" y="426" type="line" smooth="yes"/>
      <point x="96" y="392" type="line" smooth="yes"/>
      <point x="154" y="380" type="line" smooth="yes"/>
      <point x="224" y="391" type="line" smooth="yes"/>
      <point x="271" y="418" type="line" smooth="yes"/>
      <point x="301" y="450" type="line" smooth="yes"/>
      <point x="307" y="388" type="line" smooth="yes"/>
      <point x="322" y="388" type="line" smooth="yes"/>
      <point x="319" y="485" type="line" smooth="yes"/>
      <point x="319" y="649" type="line" smooth="yes"/>
      <point x="308" y="717" type="line" smooth="yes"/>
      <point x="268" y="767" type="line" smooth="yes"/>
      <point x="189" y="786" type="line" smooth="yes"/>
      <point x="108" y="766" type="line" smooth="yes"/>
      <point x="69" y="717" type="line" smooth="yes"/>
      <point x="59" y="654" type="line" smooth="yes"/>
      <point x="59" y="646" type="line" smooth="yes"/>
      <point x="79" y="646" type="line" smooth="yes"/>
      <point x="87" y="706" type="line" smooth="yes"/>
      <point x="119" y="749" type="line" smooth="yes"/>
      <point x="189" y="766" type="line" smooth="yes"/>
      <point x="258" y="750" type="line" smooth="yes"/>
      <point x="291" y="707" type="line" smooth="yes"/>
      <point x="299" y="644" type="line" smooth="yes"/>
      <point x="299" y="626" type="line" smooth="yes"/>
      <point x="166" y="604" type="line" smooth="yes"/>
      <point x="108" y="590" type="line" smooth="yes"/>
      <point x="61" y="557" type="line" smooth="yes"/>
      <point x="42" y="490" type="line" smooth="yes"/>
    </contour>
  </outline>
</glyph>
<glyph name="registered" format="1">
  <advance width="330"/>
  <unicode hex="00AE"/>
  <outline>
    <contour>
      <point x="204" y="703" type="line" smooth="yes"/>
      <point x="204" y="697" type="line" smooth="yes"/>
      <point x="200" y="678" type="line" smooth="yes"/>
      <point x="187" y="668" type="line" smooth="yes"/>
      <point x="163" y="665" type="line" smooth="yes"/>
      <point x="127" y="665" type="line" smooth="yes"/>
      <point x="127" y="735" type="line" smooth="yes"/>
      <point x="163" y="735" type="line" smooth="yes"/>
      <point x="187" y="732" type="line" smooth="yes"/>
      <point x="200" y="722" type="line" smooth="yes"/>
    </contour>
    <contour>
      <point x="219" y="696" type="line" smooth="yes"/>
      <point x="219" y="704" type="line" smooth="yes"/>
      <point x="212" y="730" type="line" smooth="yes"/>
      <point x="194" y="746" type="line" smooth="yes"/>
      <point x="166" y="751" type="line" smooth="yes"/>
      <point x="111" y="751" type="line" smooth="yes"/>
      <point x="111" y="579" type="line" smooth="yes"/>
      <point x="127" y="579" type="line" smooth="yes"/>
      <point x="127" y="649" type="line" smooth="yes"/>
      <point x="170" y="649" type="line" smooth="yes"/>
      <point x="202" y="579" type="line" smooth="yes"/>
      <point x="219" y="579" type="line" smooth="yes"/>
      <point x="187" y="652" type="line" smooth="yes"/>
      <point x="204" y="661" type="line" smooth="yes"/>
      <point x="215" y="675" type="line" smooth="yes"/>
    </contour>
    <contour>
      <point x="40" y="665" type="line" smooth="yes"/>
      <point x="57" y="728" type="line" smooth="yes"/>
      <point x="102" y="773" type="line" smooth="yes"/>
      <point x="165" y="790" type="line" smooth="yes"/>
      <point x="228" y="773" type="line" smooth="yes"/>
      <point x="273" y="728" type="line" smooth="yes"/>
      <point x="290" y="665" type="line" smooth="yes"/>
      <point x="273" y="602" type="line" smooth="yes"/>
      <point x="228" y="557" type="line" smooth="yes"/>
      <point x="165" y="540" type="line" smooth="yes"/>
      <point x="102" y="557" type="line" smooth="yes"/>
      <point x="57" y="602" type="line" smooth="yes"/>
    </contour>
    <contour>
      <point x="24" y="665" type="line" smooth="yes"/>
      <point x="43" y="594" type="line" smooth="yes"/>
      <point x="94" y="543" type="line" smooth="yes"/>
      <point x="165" y="524" type="line" smooth="yes"/>
      <point x="236" y="543" type="line" smooth="yes"/>
      <point x="287" y="594" type="line" smooth="yes"/>
      <point x="306" y="665" type="line" smooth="yes"/>
      <point x="287" y="736" type="line" smooth="yes"/>
      <point x="236" y="787" type="line" smooth="yes"/>
      <point x="165" y="806" type="line" smooth="yes"/>
      <point x="94" y="787" type="line" smooth="yes"/>
      <point x="43" y="736" type="line" smooth="yes"/>
    </contour>
  </outline>
</glyph>
<glyph name="degree" format="1">
  <advance width="400"/>
  <unicode hex="00B0"/>
  <outline>
    <contour>
      <point x="346" y="642" type="line" smooth="yes"/>
      <point x="327" y="719" type="line" smooth="yes"/>
      <point x="275" y="768" type="line" smooth="yes"/>
      <point x="200" y="786" type="line" smooth="yes"/>
      <point x="125" y="768" type="line" smooth="yes"/>
      <point x="73" y="719" type="line" smooth="yes"/>
      <point x="54" y="642" type="line" smooth="yes"/>
      <point x="54" y="638" type="line" smooth="yes"/>
      <point x="73" y="561" type="line" smooth="yes"/>
      <point x="125" y="512" type="line" smooth="yes"/>
      <point x="200" y="494" type="line" smooth="yes"/>
      <point x="275" y="512" type="line" smooth="yes"/>
      <point x="327" y="561" type="line" smooth="yes"/>
      <point x="346" y="638" type="line" smooth="yes"/>
    </contour>
    <contour>
      <point x="326" y="635" type="line" smooth="yes"/>
      <point x="309" y="570" type="line" smooth="yes"/>
      <point x="265" y="529" type="line" smooth="yes"/>
      <point x="203" y="514" type="line" smooth="yes"/>
      <point x="197" y="514" type="line" smooth="yes"/>
      <point x="135" y="529" type="line" smooth="yes"/>
      <point x="91" y="570" type="line" smooth="yes"/>
      <point x="74" y="635" type="line" smooth="yes"/>
      <point x="74" y="645" type="line" smooth="yes"/>
      <point x="91" y="710" type="line" smooth="yes"/>
      <point x="135" y="751" type="line" smooth="yes"/>
      <point x="197" y="766" type="line" smooth="yes"/>
      <point x="203" y="766" type="line" smooth="yes"/>
      <point x="265" y="751" type="line" smooth="yes"/>
      <point x="309" y="710" type="line" smooth="yes"/>
      <point x="326" y="645" type="line" smooth="yes"/>
    </contour>
  </outline>
</glyph>
<glyph name="plusminus" format="1">
  <advance width="600"/>
  <unicode hex="00B1"/>
  <outline>
    <contour>
      <point x="50" y="180" type="line" smooth="yes"/>
      <point x="550" y="180" type="line" smooth="yes"/>
      <point x="550" y="200" type="line" smooth="yes"/>
      <point x="50" y="200" type="line" smooth="yes"/>
    </contour>
    <contour>
      <point x="290" y="640" type="line" smooth="yes"/>
      <point x="290" y="480" type="line" smooth="yes"/>
      <point x="50" y="480" type="line" smooth="yes"/>
      <point x="50" y="460" type="line" smooth="yes"/>
      <point x="290" y="460" type="line" smooth="yes"/>
      <point x="290" y="300" type="line" smooth="yes"/>
      <point x="310" y="300" type="line" smooth="yes"/>
      <point x="310" y="460" type="line" smooth="yes"/>
      <point x="550" y="460" type="line" smooth="yes"/>
      <point x="550" y="480" type="line" smooth="yes"/>
      <point x="310" y="480" type="line" smooth="yes"/>
      <point x="310" y="640" type="line" smooth="yes"/>
    </contour>
  </outline>
</glyph>
<glyph name="twosuperior" format="1">
  <advance width="300"/>
  <unicode hex="00B2"/>
  <outline>
    <contour>
      <point x="102" y="410" type="line" smooth="yes"/>
      <point x="64" y="409" type="line" smooth="yes"/>
      <point x="224" y="577" type="line" smooth="yes"/>
      <point x="252" y="612" type="line" smooth="yes"/>
      <point x="266" y="643" type="line" smooth="yes"/>
      <point x="270" y="677" type="line" smooth="yes"/>
      <point x="270" y="682" type="line" smooth="yes"/>
      <point x="255" y="738" type="line" smooth="yes"/>
      <point x="214" y="773" type="line" smooth="yes"/>
      <point x="150" y="785" type="line" smooth="yes"/>
      <point x="82" y="770" type="line" smooth="yes"/>
      <point x="42" y="728" type="line" smooth="yes"/>
      <point x="30" y="662" type="line" smooth="yes"/>
      <point x="30" y="650" type="line" smooth="yes"/>
      <point x="50" y="650" type="line" smooth="yes"/>
      <point x="61" y="717" type="line" smooth="yes"/>
      <point x="93" y="754" type="line" smooth="yes"/>
      <point x="148" y="766" type="line" smooth="yes"/>
      <point x="151" y="766" type="line" smooth="yes"/>
      <point x="203" y="755" type="line" smooth="yes"/>
      <point x="237" y="725" type="line" smooth="yes"/>
      <point x="249" y="680" type="line" smooth="yes"/>
      <point x="249" y="675" type="line" smooth="yes"/>
      <point x="245" y="646" type="line" smooth="yes"/>
      <point x="232" y="618" type="line" smooth="yes"/>
      <point x="205" y="586" type="line" smooth="yes"/>
      <point x="30" y="402" type="line" smooth="yes"/>
      <point x="30" y="390" type="line" smooth="yes"/>
      <point x="265" y="390" type="line" smooth="yes"/>
      <point x="265" y="410" type="line" smooth="yes"/>
    </contour>
  </outline>
</glyph>
<glyph name="threesuperior" format="1">
  <advance width="300"/>
  <unicode hex="00B3"/>
  <outline>
    <contour>
      <point x="147" y="404" type="line" smooth="yes"/>
      <point x="93" y="416" type="line" smooth="yes"/>
      <point x="59" y="452" type="line" smooth="yes"/>
      <point x="47" y="515" type="line" smooth="yes"/>
      <point x="27" y="515" type="line" smooth="yes"/>
      <point x="27" y="510" type="line" smooth="yes"/>
      <point x="40" y="444" type="line" smooth="yes"/>
      <point x="80" y="401" type="line" smooth="yes"/>
      <point x="150" y="385" type="line" smooth="yes"/>
      <point x="211" y="397" type="line" smooth="yes"/>
      <point x="255" y="432" type="line" smooth="yes"/>
      <point x="272" y="488" type="line" smooth="yes"/>
      <point x="272" y="496" type="line" smooth="yes"/>
      <point x="263" y="540" type="line" smooth="yes"/>
      <point x="237" y="570" type="line" smooth="yes"/>
      <point x="199" y="588" type="line" smooth="yes"/>
      <point x="237" y="605" type="line" smooth="yes"/>
      <point x="261" y="634" type="line" smooth="yes"/>
      <point x="270" y="675" type="line" smooth="yes"/>
      <point x="270" y="682" type="line" smooth="yes"/>
      <point x="255" y="738" type="line" smooth="yes"/>
      <point x="214" y="773" type="line" smooth="yes"/>
      <point x="150" y="785" type="line" smooth="yes"/>
      <point x="82" y="770" type="line" smooth="yes"/>
      <point x="42" y="728" type="line" smooth="yes"/>
      <point x="30" y="662" type="line" smooth="yes"/>
      <point x="30" y="650" type="line" smooth="yes"/>
      <point x="50" y="650" type="line" smooth="yes"/>
      <point x="60" y="717" type="line" smooth="yes"/>
      <point x="93" y="754" type="line" smooth="yes"/>
      <point x="147" y="766" type="line" smooth="yes"/>
      <point x="152" y="766" type="line" smooth="yes"/>
      <point x="203" y="755" type="line" smooth="yes"/>
      <point x="237" y="725" type="line" smooth="yes"/>
      <point x="249" y="680" type="line" smooth="yes"/>
      <point x="249" y="676" type="line" smooth="yes"/>
      <point x="236" y="632" type="line" smooth="yes"/>
      <point x="203" y="606" type="line" smooth="yes"/>
      <point x="156" y="598" type="line" smooth="yes"/>
      <point x="100" y="598" type="line" smooth="yes"/>
      <point x="100" y="579" type="line" smooth="yes"/>
      <point x="158" y="579" type="line" smooth="yes"/>
      <point x="205" y="570" type="line" smooth="yes"/>
      <point x="238" y="542" type="line" smooth="yes"/>
      <point x="251" y="495" type="line" smooth="yes"/>
      <point x="251" y="487" type="line" smooth="yes"/>
      <point x="237" y="440" type="line" smooth="yes"/>
      <point x="201" y="413" type="line" smooth="yes"/>
      <point x="152" y="404" type="line" smooth="yes"/>
    </contour>
  </outline>
</glyph>
<glyph name="paragraph" format="1">
  <advance width="500"/>
  <unicode hex="00B6"/>
  <outline>
    <contour>
      <point x="71" y="551" type="line" smooth="yes"/>
      <point x="71" y="569" type="line" smooth="yes"/>
      <point x="105" y="692" type="line" smooth="yes"/>
      <point x="183" y="747" type="line" smooth="yes"/>
      <point x="272" y="760" type="line" smooth="yes"/>
      <point x="290" y="760" type="line" smooth="yes"/>
      <point x="290" y="360" type="line" smooth="yes"/>
      <point x="272" y="360" type="line" smooth="yes"/>
      <point x="183" y="373" type="line" smooth="yes"/>
      <point x="105" y="428" type="line" smooth="yes"/>
    </contour>
    <contour>
      <point x="400" y="0" type="line" smooth="yes"/>
      <point x="420" y="0" type="line" smooth="yes"/>
      <point x="420" y="780" type="line" smooth="yes"/>
      <point x="271" y="780" type="line" smooth="yes"/>
      <point x="167" y="763" type="line" smooth="yes"/>
      <point x="84" y="699" type="line" smooth="yes"/>
      <point x="50" y="570" type="line" smooth="yes"/>
      <point x="50" y="550" type="line" smooth="yes"/>
      <point x="84" y="421" type="line" smooth="yes"/>
      <point x="167" y="357" type="line" smooth="yes"/>
      <point x="271" y="340" type="line" smooth="yes"/>
      <point x="290" y="340" type="line" smooth="yes"/>
      <point x="290" y="0" type="line" smooth="yes"/>
      <point x="310" y="0" type="line" smooth="yes"/>
      <point x="310" y="760" type="line" smooth="yes"/>
      <point x="400" y="760" type="line" smooth="yes"/>
    </contour>
  </outline>
</glyph>
<glyph name="cedilla" format="1">
  <advance width="602"/>
  <unicode hex="00B8"/>
  <outline>
    <contour>
      <point x="171" y="-188" type="line" smooth="yes"/>
      <point x="195" y="-198" type="line" smooth="yes"/>
      <point x="222" y="-204" type="line" smooth="yes"/>
      <point x="250" y="-206" type="line" smooth="yes"/>
      <point x="294" y="-200" type="line" smooth="yes"/>
      <point x="328" y="-179" type="line" smooth="yes"/>
      <point x="341" y="-135" type="line" smooth="yes"/>
      <point x="328" y="-91" type="line" smooth="yes"/>
      <point x="295" y="-70" type="line" smooth="yes"/>
      <point x="255" y="-64" type="line" smooth="yes"/>
      <point x="248" y="-64" type="line" smooth="yes"/>
      <point x="242" y="-64" type="line" smooth="yes"/>
      <point x="237" y="-65" type="line" smooth="yes"/>
      <point x="260" y="0" type="line" smooth="yes"/>
      <point x="240" y="0" type="line" smooth="yes"/>
      <point x="214" y="-73" type="line" smooth="yes"/>
      <point x="225" y="-84" type="line" smooth="yes"/>
      <point x="228" y="-83" type="line" smooth="yes"/>
      <point x="237" y="-83" type="line" smooth="yes"/>
      <point x="250" y="-82" type="line" smooth="yes"/>
      <point x="286" y="-85" type="line" smooth="yes"/>
      <point x="313" y="-100" type="line" smooth="yes"/>
      <point x="323" y="-135" type="line" smooth="yes"/>
      <point x="313" y="-170" type="line" smooth="yes"/>
      <point x="286" y="-185" type="line" smooth="yes"/>
      <point x="250" y="-188" type="line" smooth="yes"/>
      <point x="224" y="-186" type="line" smooth="yes"/>
      <point x="198" y="-180" type="line" smooth="yes"/>
      <point x="177" y="-172" type="line" smooth="yes"/>
    </contour>
  </outline>
</glyph>
<glyph name="ordmasculine" format="1">
  <advance width="410"/>
  <unicode hex="00BA"/>
  <outline>
    <contour>
      <point x="56" y="230" type="line" smooth="yes"/>
      <point x="354" y="230" type="line" smooth="yes"/>
      <point x="354" y="250" type="line" smooth="yes"/>
      <point x="56" y="250" type="line" smooth="yes"/>
    </contour>
    <contour>
      <point x="205" y="380" type="line" smooth="yes"/>
      <point x="293" y="405" type="line" smooth="yes"/>
      <point x="346" y="473" type="line" smooth="yes"/>
      <point x="364" y="576" type="line" smooth="yes"/>
      <point x="364" y="590" type="line" smooth="yes"/>
      <point x="346" y="693" type="line" smooth="yes"/>
      <point x="293" y="761" type="line" smooth="yes"/>
      <point x="205" y="786" type="line" smooth="yes"/>
      <point x="117" y="761" type="line" smooth="yes"/>
      <point x="64" y="693" type="line" smooth="yes"/>
      <point x="46" y="590" type="line" smooth="yes"/>
      <point x="46" y="576" type="line" smooth="yes"/>
      <point x="64" y="473" type="line" smooth="yes"/>
      <point x="117" y="405" type="line" smooth="yes"/>
    </contour>
    <contour>
      <point x="205" y="400" type="line" smooth="yes"/>
      <point x="129" y="422" type="line" smooth="yes"/>
      <point x="82" y="482" type="line" smooth="yes"/>
      <point x="66" y="576" type="line" smooth="yes"/>
      <point x="66" y="590" type="line" smooth="yes"/>
      <point x="82" y="684" type="line" smooth="yes"/>
      <point x="129" y="744" type="line" smooth="yes"/>
      <point x="205" y="766" type="line" smooth="yes"/>
      <point x="281" y="744" type="line" smooth="yes"/>
      <point x="328" y="684" type="line" smooth="yes"/>
      <point x="344" y="590" type="line" smooth="yes"/>
      <point x="344" y="576" type="line" smooth="yes"/>
      <point x="328" y="482" type="line" smooth="yes"/>
      <point x="281" y="422" type="line" smooth="yes"/>
    </contour>
  </outline>
</glyph>
<glyph name="onehalf" format="1">
  <advance width="800"/>
  <unicode hex="00BD"/>
  <outline>
    <contour>
      <point x="272" y="390" type="line" smooth="yes"/>
      <point x="272" y="410" type="line" smooth="yes"/>
      <point x="165" y="410" type="line" smooth="yes"/>
      <point x="165" y="782" type="line" smooth="yes"/>
      <point x="155" y="782" type="line" smooth="yes"/>
      <point x="32" y="699" type="line" smooth="yes"/>
      <point x="43" y="682" type="line" smooth="yes"/>
      <point x="145" y="752" type="line" smooth="yes"/>
      <point x="145" y="410" type="line" smooth="yes"/>
      <point x="37" y="410" type="line" smooth="yes"/>
      <point x="37" y="390" type="line" smooth="yes"/>
    </contour>
    <contour>
      <point x="124" y="0" type="line" smooth="yes"/>
      <point x="700" y="780" type="line" smooth="yes"/>
      <point x="676" y="780" type="line" smooth="yes"/>
      <point x="100" y="0" type="line" smooth="yes"/>
    </contour>
    <contour>
      <point x="602" y="20" type="line" smooth="yes"/>
      <point x="564" y="19" type="line" smooth="yes"/>
      <point x="724" y="187" type="line" smooth="yes"/>
      <point x="752" y="222" type="line" smooth="yes"/>
      <point x="766" y="253" type="line" smooth="yes"/>
      <point x="770" y="287" type="line" smooth="yes"/>
      <point x="770" y="292" type="line" smooth="yes"/>
      <point x="755" y="348" type="line" smooth="yes"/>
      <point x="714" y="383" type="line" smooth="yes"/>
      <point x="650" y="395" type="line" smooth="yes"/>
      <point x="582" y="380" type="line" smooth="yes"/>
      <point x="542" y="338" type="line" smooth="yes"/>
      <point x="530" y="272" type="line" smooth="yes"/>
      <point x="530" y="260" type="line" smooth="yes"/>
      <point x="550" y="260" type="line" smooth="yes"/>
      <point x="561" y="327" type="line" smooth="yes"/>
      <point x="593" y="364" type="line" smooth="yes"/>
      <point x="648" y="376" type="line" smooth="yes"/>
      <point x="651" y="376" type="line" smooth="yes"/>
      <point x="703" y="365" type="line" smooth="yes"/>
      <point x="737" y="335" type="line" smooth="yes"/>
      <point x="749" y="290" type="line" smooth="yes"/>
      <point x="749" y="285" type="line" smooth="yes"/>
      <point x="745" y="256" type="line" smooth="yes"/>
      <point x="732" y="228" type="line" smooth="yes"/>
      <point x="705" y="196" type="line" smooth="yes"/>
      <point x="530" y="12" type="line" smooth="yes"/>
      <point x="530" y="0" type="line" smooth="yes"/>
      <point x="765" y="0" type="line" smooth="yes"/>
      <point x="765" y="20" type="line" smooth="yes"/>
    </contour>
  </outline>
</glyph>
<glyph name="questiondown" format="1">
  <advance width="440"/>
  <unicode hex="00BF"/>
  <outline>
    <contour>
      <point x="213" y="355" type="line" smooth="yes"/>
      <point x="165" y="201" type="line" smooth="yes"/>
      <point x="82" y="98" type="line" smooth="yes"/>
      <point x="37" y="-35" type="line" smooth="yes"/>
      <point x="54" y="-115" type="line" smooth="yes"/>
      <point x="111" y="-179" type="line" smooth="yes"/>
      <point x="217" y="-206" type="line" smooth="yes"/>
      <point x="325" y="-174" type="line" smooth="yes"/>
      <point x="387" y="-84" type="line" smooth="yes"/>
      <point x="407" y="53" type="line" smooth="yes"/>
      <point x="407" y="60" type="line" smooth="yes"/>
      <point x="387" y="60" type="line" smooth="yes"/>
      <point x="370" y="-73" type="line" smooth="yes"/>
      <point x="315" y="-157" type="line" smooth="yes"/>
      <point x="217" y="-186" type="line" smooth="yes"/>
      <point x="121" y="-162" type="line" smooth="yes"/>
      <point x="71" y="-104" type="line" smooth="yes"/>
      <point x="57" y="-30" type="line" smooth="yes"/>
      <point x="101" y="93" type="line" smooth="yes"/>
      <point x="183" y="195" type="line" smooth="yes"/>
      <point x="227" y="355" type="line" smooth="yes"/>
    </contour>
    <contour>
      <point x="200" y="490" type="line" smooth="yes"/>
      <point x="240" y="490" type="line" smooth="yes"/>
      <point x="240" y="530" type="line" smooth="yes"/>
      <point x="200" y="530" type="line" smooth="yes"/>
    </contour>
  </outline>
</glyph>
<glyph name="Aring" format="1">
  <advance width="590"/>
  <unicode hex="00C5"/>
  <outline>
    <contour>
      <point x="227" y="870" type="line" smooth="yes"/>
      <point x="236" y="905" type="line" smooth="yes"/>
      <point x="260" y="929" type="line" smooth="yes"/>
      <point x="295" y="938" type="line" smooth="yes"/>
      <point x="330" y="929" type="line" smooth="yes"/>
      <point x="354" y="905" type="line" smooth="yes"/>
      <point x="363" y="870" type="line" smooth="yes"/>
      <point x="354" y="835" type="line" smooth="yes"/>
      <point x="330" y="811" type="line" smooth="yes"/>
      <point x="295" y="802" type="line" smooth="yes"/>
      <point x="260" y="811" type="line" smooth="yes"/>
      <point x="236" y="835" type="line" smooth="yes"/>
    </contour>
    <contour>
      <point x="295" y="760" type="line" smooth="yes"/>
      <point x="455" y="250" type="line" smooth="yes"/>
      <point x="135" y="250" type="line" smooth="yes"/>
    </contour>
    <contour>
      <point x="209" y="870" type="line" smooth="yes"/>
      <point x="219" y="830" type="line" smooth="yes"/>
      <point x="245" y="799" type="line" smooth="yes"/>
      <point x="283" y="784" type="line" smooth="yes"/>
      <point x="35" y="0" type="line" smooth="yes"/>
      <point x="56" y="0" type="line" smooth="yes"/>
      <point x="128" y="230" type="line" smooth="yes"/>
      <point x="462" y="230" type="line" smooth="yes"/>
      <point x="534" y="0" type="line" smooth="yes"/>
      <point x="555" y="0" type="line" smooth="yes"/>
      <point x="306" y="784" type="line" smooth="yes"/>
      <point x="344" y="799" type="line" smooth="yes"/>
      <point x="371" y="830" type="line" smooth="yes"/>
      <point x="381" y="870" type="line" smooth="yes"/>
      <point x="369" y="913" type="line" smooth="yes"/>
      <point x="338" y="944" type="line" smooth="yes"/>
      <point x="295" y="956" type="line" smooth="yes"/>
      <point x="252" y="944" type="line" smooth="yes"/>
      <point x="221" y="913" type="line" smooth="yes"/>
    </contour>
  </outline>
</glyph>
<glyph name="Ccedilla" format="1">
  <advance width="593"/>
  <unicode hex="00C7"/>
  <outline>
    <contour>
      <point x="236" y="-188" type="line" smooth="yes"/>
      <point x="260" y="-198" type="line" smooth="yes"/>
      <point x="287" y="-204" type="line" smooth="yes"/>
      <point x="315" y="-206" type="line" smooth="yes"/>
      <point x="359" y="-200" type="line" smooth="yes"/>
      <point x="393" y="-179" type="line" smooth="yes"/>
      <point x="406" y="-135" type="line" smooth="yes"/>
      <point x="393" y="-91" type="line" smooth="yes"/>
      <point x="360" y="-70" type="line" smooth="yes"/>
      <point x="320" y="-64" type="line" smooth="yes"/>
      <point x="313" y="-64" type="line" smooth="yes"/>
      <point x="307" y="-64" type="line" smooth="yes"/>
      <point x="302" y="-65" type="line" smooth="yes"/>
      <point x="323" y="-6" type="line" smooth="yes"/>
      <point x="444" y="27" type="line" smooth="yes"/>
      <point x="513" y="111" type="line" smooth="yes"/>
      <point x="535" y="236" type="line" smooth="yes"/>
      <point x="535" y="250" type="line" smooth="yes"/>
      <point x="515" y="250" type="line" smooth="yes"/>
      <point x="492" y="115" type="line" smooth="yes"/>
      <point x="425" y="38" type="line" smooth="yes"/>
      <point x="318" y="14" type="line" smooth="yes"/>
      <point x="312" y="14" type="line" smooth="yes"/>
      <point x="187" y="49" type="line" smooth="yes"/>
      <point x="111" y="163" type="line" smooth="yes"/>
      <point x="85" y="370" type="line" smooth="yes"/>
      <point x="85" y="410" type="line" smooth="yes"/>
      <point x="111" y="617" type="line" smooth="yes"/>
      <point x="187" y="731" type="line" smooth="yes"/>
      <point x="312" y="766" type="line" smooth="yes"/>
      <point x="318" y="766" type="line" smooth="yes"/>
      <point x="430" y="741" type="line" smooth="yes"/>
      <point x="494" y="657" type="line" smooth="yes"/>
      <point x="515" y="500" type="line" smooth="yes"/>
      <point x="535" y="500" type="line" smooth="yes"/>
      <point x="535" y="520" type="line" smooth="yes"/>
      <point x="512" y="673" type="line" smooth="yes"/>
      <point x="439" y="759" type="line" smooth="yes"/>
      <point x="315" y="786" type="line" smooth="yes"/>
      <point x="177" y="749" type="line" smooth="yes"/>
      <point x="93" y="627" type="line" smooth="yes"/>
      <point x="65" y="410" type="line" smooth="yes"/>
      <point x="65" y="370" type="line" smooth="yes"/>
      <point x="92" y="156" type="line" smooth="yes"/>
      <point x="172" y="35" type="line" smooth="yes"/>
      <point x="303" y="-6" type="line" smooth="yes"/>
      <point x="279" y="-73" type="line" smooth="yes"/>
      <point x="290" y="-84" type="line" smooth="yes"/>
      <point x="293" y="-83" type="line" smooth="yes"/>
      <point x="302" y="-83" type="line" smooth="yes"/>
      <point x="315" y="-82" type="line" smooth="yes"/>
      <point x="351" y="-85" type="line" smooth="yes"/>
      <point x="378" y="-100" type="line" smooth="yes"/>
      <point x="388" y="-135" type="line" smooth="yes"/>
      <point x="378" y="-170" type="line" smooth="yes"/>
      <point x="351" y="-185" type="line" smooth="yes"/>
      <point x="315" y="-188" type="line" smooth="yes"/>
      <point x="289" y="-186" type="line" smooth="yes"/>
      <point x="263" y="-180" type="line" smooth="yes"/>
      <point x="242" y="-172" type="line" smooth="yes"/>
    </contour>
  </outline>
</glyph>
<glyph name="Eth" format="1">
  <advance width="670"/>
  <unicode hex="00D0"/>
  <outline>
    <contour>
      <point x="155" y="20" type="line" smooth="yes"/>
      <point x="155" y="388" type="line" smooth="yes"/>
      <point x="385" y="388" type="line" smooth="yes"/>
      <point x="385" y="408" type="line" smooth="yes"/>
      <point x="155" y="408" type="line" smooth="yes"/>
      <point x="155" y="760" type="line" smooth="yes"/>
      <point x="320" y="760" type="line" smooth="yes"/>
      <point x="461" y="727" type="line" smooth="yes"/>
      <point x="556" y="616" type="line" smooth="yes"/>
      <point x="590" y="410" type="line" smooth="yes"/>
      <point x="590" y="370" type="line" smooth="yes"/>
      <point x="556" y="164" type="line" smooth="yes"/>
      <point x="461" y="53" type="line" smooth="yes"/>
      <point x="320" y="20" type="line" smooth="yes"/>
    </contour>
    <contour>
      <point x="25" y="408" type="line" smooth="yes"/>
      <point x="25" y="388" type="line" smooth="yes"/>
      <point x="135" y="388" type="line" smooth="yes"/>
      <point x="135" y="0" type="line" smooth="yes"/>
      <point x="325" y="0" type="line" smooth="yes"/>
      <point x="472" y="35" type="line" smooth="yes"/>
      <point x="573" y="152" type="line" smooth="yes"/>
      <point x="610" y="370" type="line" smooth="yes"/>
      <point x="610" y="410" type="line" smooth="yes"/>
      <point x="573" y="628" type="line" smooth="yes"/>
      <point x="472" y="745" type="line" smooth="yes"/>
      <point x="325" y="780" type="line" smooth="yes"/>
      <point x="135" y="780" type="line" smooth="yes"/>
      <point x="135" y="408" type="line" smooth="yes"/>
    </contour>
  </outline>
</glyph>
<glyph name="Ntilde" format="1">
  <advance width="640"/>
  <unicode hex="00D1"/>
  <outline>
    <contour>
      <point x="437" y="927" type="line" smooth="yes"/>
      <point x="430" y="894" type="line" smooth="yes"/>
      <point x="414" y="878" type="line" smooth="yes"/>
      <point x="392" y="875" type="line" smooth="yes"/>
      <point x="345" y="890" type="line" smooth="yes"/>
      <point x="297" y="918" type="line" smooth="yes"/>
      <point x="245" y="933" type="line" smooth="yes"/>
      <point x="216" y="927" type="line" smooth="yes"/>
      <point x="194" y="905" type="line" smooth="yes"/>
      <point x="185" y="863" type="line" smooth="yes"/>
      <point x="203" y="863" type="line" smooth="yes"/>
      <point x="210" y="896" type="line" smooth="yes"/>
      <point x="226" y="912" type="line" smooth="yes"/>
      <point x="248" y="915" type="line" smooth="yes"/>
      <point x="295" y="900" type="line" smooth="yes"/>
      <point x="343" y="872" type="line" smooth="yes"/>
      <point x="395" y="857" type="line" smooth="yes"/>
      <point x="424" y="863" type="line" smooth="yes"/>
      <point x="446" y="885" type="line" smooth="yes"/>
      <point x="455" y="927" type="line" smooth="yes"/>
    </contour>
    <contour>
      <point x="541" y="29" type="line" smooth="yes"/>
      <point x="105" y="780" type="line" smooth="yes"/>
      <point x="80" y="780" type="line" smooth="yes"/>
      <point x="80" y="0" type="line" smooth="yes"/>
      <point x="100" y="0" type="line" smooth="yes"/>
      <point x="100" y="600" type="line" smooth="yes"/>
      <point x="99" y="751" type="line" smooth="yes"/>
      <point x="535" y="0" type="line" smooth="yes"/>
      <point x="560" y="0" type="line" smooth="yes"/>
      <point x="560" y="780" type="line" smooth="yes"/>
      <point x="540" y="780" type="line" smooth="yes"/>
      <point x="540" y="180" type="line" smooth="yes"/>
    </contour>
  </outline>
</glyph>
<glyph name="Otilde" format="1">
  <advance width="630"/>
  <unicode hex="00D5"/>
  <outline>
    <contour>
      <point x="432" y="927" type="line" smooth="yes"/>
      <point x="425" y="894" type="line" smooth="yes"/>
      <point x="409" y="878" type="line" smooth="yes"/>
      <point x="387" y="875" type="line" smooth="yes"/>
      <point x="340" y="890" type="line" smooth="yes"/>
      <point x="292" y="918" type="line" smooth="yes"/>
      <point x="240" y="933" type="line" smooth="yes"/>
      <point x="211" y="927" type="line" smooth="yes"/>
      <point x="189" y="905" type="line" smooth="yes"/>
      <point x="180" y="863" type="line" smooth="yes"/>
      <point x="198" y="863" type="line" smooth="yes"/>
      <point x="205" y="896" type="line" smooth="yes"/>
      <point x="221" y="912" type="line" smooth="yes"/>
      <point x="243" y="915" type="line" smooth="yes"/>
      <point x="290" y="900" type="line" smooth="yes"/>
      <point x="338" y="872" type="line" smooth="yes"/>
      <point x="390" y="857" type="line" smooth="yes"/>
      <point x="419" y="863" type="line" smooth="yes"/>
      <point x="441" y="885" type="line" smooth="yes"/>
      <point x="450" y="927" type="line" smooth="yes"/>
    </contour>
    <contour>
      <point x="85" y="370" type="line" smooth="yes"/>
      <point x="85" y="410" type="line" smooth="yes"/>
      <point x="111" y="617" type="line" smooth="yes"/>
      <point x="187" y="731" type="line" smooth="yes"/>
      <point x="312" y="766" type="line" smooth="yes"/>
      <point x="318" y="766" type="line" smooth="yes"/>
      <point x="443" y="731" type="line" smooth="yes"/>
      <point x="519" y="617" type="line" smooth="yes"/>
      <point x="545" y="410" type="line" smooth="yes"/>
      <point x="545" y="370" type="line" smooth="yes"/>
      <point x="519" y="163" type="line" smooth="yes"/>
      <point x="443" y="49" type="line" smooth="yes"/>
      <point x="318" y="14" type="line" smooth="yes"/>
      <point x="312" y="14" type="line" smooth="yes"/>
      <point x="187" y="49" type="line" smooth="yes"/>
      <point x="111" y="163" type="line" smooth="yes"/>
    </contour>
    <contour>
      <point x="65" y="410" type="line" smooth="yes"/>
      <point x="65" y="370" type="line" smooth="yes"/>
      <point x="93" y="153" type="line" smooth="yes"/>
      <point x="177" y="31" type="line" smooth="yes"/>
      <point x="315" y="-6" type="line" smooth="yes"/>
      <point x="453" y="31" type="line" smooth="yes"/>
      <point x="537" y="153" type="line" smooth="yes"/>
      <point x="565" y="370" type="line" smooth="yes"/>
      <point x="565" y="410" type="line" smooth="yes"/>
      <point x="537" y="627" type="line" smooth="yes"/>
      <point x="453" y="749" type="line" smooth="yes"/>
      <point x="315" y="786" type="line" smooth="yes"/>
      <point x="177" y="749" type="line" smooth="yes"/>
      <point x="93" y="627" type="line" smooth="yes"/>
    </contour>
  </outline>
</glyph>
<glyph name="Odieresis" format="1">
  <advance width="630"/>
  <unicode hex="00D6"/>
  <outline>
    <contour>
      <point x="405" y="915" type="line" smooth="yes"/>
      <point x="365" y="915" type="line" smooth="yes"/>
      <point x="365" y="875" type="line" smooth="yes"/>
      <point x="405" y="875" type="line" smooth="yes"/>
    </contour>
    <contour>
      <point x="265" y="915" type="line" smooth="yes"/>
      <point x="225" y="915" type="line" smooth="yes"/>
      <point x="225" y="875" type="line" smooth="yes"/>
      <point x="265" y="875" type="line" smooth="yes"/>
    </contour>
    <contour>
      <point x="85" y="370" type="line" smooth="yes"/>
      <point x="85" y="410" type="line" smooth="yes"/>
      <point x="111" y="617" type="line" smooth="yes"/>
      <point x="187" y="731" type="line" smooth="yes"/>
      <point x="312" y="766" type="line" smooth="yes"/>
      <point x="318" y="766" type="line" smooth="yes"/>
      <point x="443" y="731" type="line" smooth="yes"/>
      <point x="519" y="617" type="line" smooth="yes"/>
      <point x="545" y="410" type="line" smooth="yes"/>
      <point x="545" y="370" type="line" smooth="yes"/>
      <point x="519" y="163" type="line" smooth="yes"/>
      <point x="443" y="49" type="line" smooth="yes"/>
      <point x="318" y="14" type="line" smooth="yes"/>
      <point x="312" y="14" type="line" smooth="yes"/>
      <point x="187" y="49" type="line" smooth="yes"/>
      <point x="111" y="163" type="line" smooth="yes"/>
    </contour>
    <contour>
      <point x="65" y="410" type="line" smooth="yes"/>
      <point x="65" y="370" type="line" smooth="yes"/>
      <point x="93" y="153" type="line" smooth="yes"/>
      <point x="177" y="31" type="line" smooth="yes"/>
      <point x="315" y="-6" type="line" smooth="yes"/>
      <point x="453" y="31" type="line" smooth="yes"/>
      <point x="537" y="153" type="line" smooth="yes"/>
      <point x="565" y="370" type="line" smooth="yes"/>
      <point x="565" y="410" type="line" smooth="yes"/>
      <point x="537" y="627" type="line" smooth="yes"/>
      <point x="453" y="749" type="line" smooth="yes"/>
      <point x="315" y="786" type="line" smooth="yes"/>
      <point x="177" y="749" type="line" smooth="yes"/>
      <point x="93" y="627" type="line" smooth="yes"/>
    </contour>
  </outline>
</glyph>
<glyph name="multiply" format="1">
  <advance width="600"/>
  <unicode hex="00D7"/>
  <outline>
    <contour>
      <point x="45" y="630" type="line" smooth="yes"/>
      <point x="285" y="390" type="line" smooth="yes"/>
      <point x="45" y="150" type="line" smooth="yes"/>
      <point x="60" y="135" type="line" smooth="yes"/>
      <point x="300" y="375" type="line" smooth="yes"/>
      <point x="540" y="135" type="line" smooth="yes"/>
      <point x="555" y="150" type="line" smooth="yes"/>
      <point x="315" y="390" type="line" smooth="yes"/>
      <point x="555" y="630" type="line" smooth="yes"/>
      <point x="540" y="645" type="line" smooth="yes"/>
      <point x="300" y="405" type="line" smooth="yes"/>
      <point x="60" y="645" type="line" smooth="yes"/>
    </contour>
  </outline>
</glyph>
<glyph name="Oslash" format="1">
  <advance width="626"/>
  <unicode hex="00D8"/>
  <outline>
    <contour>
      <point x="85" y="370" type="line" smooth="yes"/>
      <point x="85" y="410" type="line" smooth="yes"/>
      <point x="111" y="617" type="line" smooth="yes"/>
      <point x="187" y="731" type="line" smooth="yes"/>
      <point x="312" y="766" type="line" smooth="yes"/>
      <point x="318" y="766" type="line" smooth="yes"/>
      <point x="385" y="758" type="line" smooth="yes"/>
      <point x="441" y="732" type="line" smooth="yes"/>
      <point x="485" y="687" type="line" smooth="yes"/>
      <point x="133" y="111" type="line" smooth="yes"/>
      <point x="106" y="177" type="line" smooth="yes"/>
      <point x="90" y="263" type="line" smooth="yes"/>
    </contour>
    <contour>
      <point x="545" y="410" type="line" smooth="yes"/>
      <point x="545" y="370" type="line" smooth="yes"/>
      <point x="519" y="163" type="line" smooth="yes"/>
      <point x="443" y="49" type="line" smooth="yes"/>
      <point x="318" y="14" type="line" smooth="yes"/>
      <point x="312" y="14" type="line" smooth="yes"/>
      <point x="244" y="22" type="line" smooth="yes"/>
      <point x="188" y="48" type="line" smooth="yes"/>
      <point x="144" y="93" type="line" smooth="yes"/>
      <point x="497" y="668" type="line" smooth="yes"/>
      <point x="524" y="602" type="line" smooth="yes"/>
      <point x="540" y="516" type="line" smooth="yes"/>
    </contour>
    <contour>
      <point x="565" y="780" type="line" smooth="yes"/>
      <point x="542" y="780" type="line" smooth="yes"/>
      <point x="497" y="706" type="line" smooth="yes"/>
      <point x="449" y="751" type="line" smooth="yes"/>
      <point x="388" y="777" type="line" smooth="yes"/>
      <point x="315" y="786" type="line" smooth="yes"/>
      <point x="177" y="749" type="line" smooth="yes"/>
      <point x="93" y="627" type="line" smooth="yes"/>
      <point x="65" y="410" type="line" smooth="yes"/>
      <point x="65" y="370" type="line" smooth="yes"/>
      <point x="71" y="255" type="line" smooth="yes"/>
      <point x="90" y="162" type="line" smooth="yes"/>
      <point x="121" y="91" type="line" smooth="yes"/>
      <point x="65" y="0" type="line" smooth="yes"/>
      <point x="88" y="0" type="line" smooth="yes"/>
      <point x="133" y="74" type="line" smooth="yes"/>
      <point x="181" y="28" type="line" smooth="yes"/>
      <point x="242" y="2" type="line" smooth="yes"/>
      <point x="315" y="-6" type="line" smooth="yes"/>
      <point x="453" y="31" type="line" smooth="yes"/>
      <point x="537" y="153" type="line" smooth="yes"/>
      <point x="565" y="370" type="line" smooth="yes"/>
      <point x="565" y="410" type="line" smooth="yes"/>
      <point x="559" y="525" type="line" smooth="yes"/>
      <point x="540" y="617" type="line" smooth="yes"/>
      <point x="509" y="688" type="line" smooth="yes"/>
    </contour>
  </outline>
</glyph>
<glyph name="Yacute" format="1">
  <advance width="540"/>
  <unicode hex="00DD"/>
  <outline>
    <contour>
      <point x="316" y="950" type="line" smooth="yes"/>
      <point x="254" y="840" type="line" smooth="yes"/>
      <point x="276" y="840" type="line" smooth="yes"/>
      <point x="338" y="950" type="line" smooth="yes"/>
    </contour>
    <contour>
      <point x="265" y="259" type="line" smooth="yes"/>
      <point x="37" y="780" type="line" smooth="yes"/>
      <point x="15" y="780" type="line" smooth="yes"/>
      <point x="255" y="235" type="line" smooth="yes"/>
      <point x="255" y="0" type="line" smooth="yes"/>
      <point x="275" y="0" type="line" smooth="yes"/>
      <point x="275" y="235" type="line" smooth="yes"/>
      <point x="515" y="780" type="line" smooth="yes"/>
      <point x="493" y="780" type="line" smooth="yes"/>
    </contour>
  </outline>
</glyph>
<glyph name="Thorn" format="1">
  <advance width="544"/>
  <unicode hex="00DE"/>
  <outline>
    <contour>
      <point x="100" y="190" type="line" smooth="yes"/>
      <point x="100" y="590" type="line" smooth="yes"/>
      <point x="272" y="590" type="line" smooth="yes"/>
      <point x="361" y="577" type="line" smooth="yes"/>
      <point x="439" y="522" type="line" smooth="yes"/>
      <point x="473" y="399" type="line" smooth="yes"/>
      <point x="473" y="381" type="line" smooth="yes"/>
      <point x="439" y="258" type="line" smooth="yes"/>
      <point x="361" y="203" type="line" smooth="yes"/>
      <point x="272" y="190" type="line" smooth="yes"/>
    </contour>
    <contour>
      <point x="100" y="780" type="line" smooth="yes"/>
      <point x="80" y="780" type="line" smooth="yes"/>
      <point x="80" y="0" type="line" smooth="yes"/>
      <point x="100" y="0" type="line" smooth="yes"/>
      <point x="100" y="170" type="line" smooth="yes"/>
      <point x="273" y="170" type="line" smooth="yes"/>
      <point x="377" y="187" type="line" smooth="yes"/>
      <point x="460" y="251" type="line" smooth="yes"/>
      <point x="494" y="380" type="line" smooth="yes"/>
      <point x="494" y="400" type="line" smooth="yes"/>
      <point x="460" y="529" type="line" smooth="yes"/>
      <point x="377" y="593" type="line" smooth="yes"/>
      <point x="273" y="610" type="line" smooth="yes"/>
      <point x="100" y="610" type="line" smooth="yes"/>
    </contour>
  </outline>
</glyph>
<glyph name="germandbls" format="1">
  <advance width="550"/>
  <unicode hex="00DF"/>
  <outline>
    <contour>
      <point x="260" y="786" type="line" smooth="yes"/>
      <point x="353" y="764" type="line" smooth="yes"/>
      <point x="404" y="702" type="line" smooth="yes"/>
      <point x="420" y="610" type="line" smooth="yes"/>
      <point x="403" y="531" type="line" smooth="yes"/>
      <point x="351" y="467" type="line" smooth="yes"/>
      <point x="259" y="408" type="line" smooth="yes"/>
      <point x="259" y="393" type="line" smooth="yes"/>
      <point x="315" y="356" type="line" smooth="yes"/>
      <point x="406" y="295" type="line" smooth="yes"/>
      <point x="467" y="236" type="line" smooth="yes"/>
      <point x="490" y="160" type="line" smooth="yes"/>
      <point x="477" y="89" type="line" smooth="yes"/>
      <point x="433" y="35" type="line" smooth="yes"/>
      <point x="350" y="14" type="line" smooth="yes"/>
      <point x="267" y="35" type="line" smooth="yes"/>
      <point x="223" y="89" type="line" smooth="yes"/>
      <point x="210" y="160" type="line" smooth="yes"/>
      <point x="190" y="160" type="line" smooth="yes"/>
      <point x="190" y="156" type="line" smooth="yes"/>
      <point x="205" y="79" type="line" smooth="yes"/>
      <point x="255" y="19" type="line" smooth="yes"/>
      <point x="350" y="-6" type="line" smooth="yes"/>
      <point x="445" y="19" type="line" smooth="yes"/>
      <point x="495" y="80" type="line" smooth="yes"/>
      <point x="510" y="157" type="line" smooth="yes"/>
      <point x="510" y="163" type="line" smooth="yes"/>
      <point x="490" y="239" type="line" smooth="yes"/>
      <point x="431" y="300" type="line" smooth="yes"/>
      <point x="335" y="366" type="line" smooth="yes"/>
      <point x="283" y="400" type="line" smooth="yes"/>
      <point x="376" y="465" type="line" smooth="yes"/>
      <point x="425" y="530" type="line" smooth="yes"/>
      <point x="440" y="608" type="line" smooth="yes"/>
      <point x="440" y="614" type="line" smooth="yes"/>
      <point x="422" y="712" type="line" smooth="yes"/>
      <point x="364" y="780" type="line" smooth="yes"/>
      <point x="260" y="806" type="line" smooth="yes"/>
      <point x="156" y="780" type="line" smooth="yes"/>
      <point x="98" y="712" type="line" smooth="yes"/>
      <point x="80" y="614" type="line" smooth="yes"/>
      <point x="80" y="0" type="line" smooth="yes"/>
      <point x="100" y="0" type="line" smooth="yes"/>
      <point x="100" y="610" type="line" smooth="yes"/>
      <point x="116" y="702" type="line" smooth="yes"/>
      <point x="167" y="764" type="line" smooth="yes"/>
    </contour>
  </outline>
</glyph>
<glyph name="atilde" format="1">
  <advance width="485"/>
  <unicode hex="00E3"/>
  <outline>
    <contour>
      <point x="362" y="732" type="line" smooth="yes"/>
      <point x="355" y="699" type="line" smooth="yes"/>
      <point x="339" y="683" type="line" smooth="yes"/>
      <point x="317" y="680" type="line" smooth="yes"/>
      <point x="270" y="695" type="line" smooth="yes"/>
      <point x="222" y="723" type="line" smooth="yes"/>
      <point x="170" y="738" type="line" smooth="yes"/>
      <point x="141" y="732" type="line" smooth="yes"/>
      <point x="119" y="710" type="line" smooth="yes"/>
      <point x="110" y="668" type="line" smooth="yes"/>
      <point x="128" y="668" type="line" smooth="yes"/>
      <point x="135" y="701" type="line" smooth="yes"/>
      <point x="151" y="717" type="line" smooth="yes"/>
      <point x="173" y="720" type="line" smooth="yes"/>
      <point x="220" y="705" type="line" smooth="yes"/>
      <point x="268" y="677" type="line" smooth="yes"/>
      <point x="320" y="662" type="line" smooth="yes"/>
      <point x="349" y="668" type="line" smooth="yes"/>
      <point x="371" y="690" type="line" smooth="yes"/>
      <point x="380" y="732" type="line" smooth="yes"/>
    </contour>
    <contour>
      <point x="201" y="14" type="line" smooth="yes"/>
      <point x="129" y="30" type="line" smooth="yes"/>
      <point x="86" y="70" type="line" smooth="yes"/>
      <point x="72" y="125" type="line" smooth="yes"/>
      <point x="72" y="136" type="line" smooth="yes"/>
      <point x="91" y="210" type="line" smooth="yes"/>
      <point x="140" y="250" type="line" smooth="yes"/>
      <point x="208" y="268" type="line" smooth="yes"/>
      <point x="395" y="298" type="line" smooth="yes"/>
      <point x="395" y="118" type="line" smooth="yes"/>
      <point x="364" y="75" type="line" smooth="yes"/>
      <point x="303" y="33" type="line" smooth="yes"/>
    </contour>
    <contour>
      <point x="52" y="125" type="line" smooth="yes"/>
      <point x="71" y="53" type="line" smooth="yes"/>
      <point x="124" y="9" type="line" smooth="yes"/>
      <point x="200" y="-6" type="line" smooth="yes"/>
      <point x="296" y="9" type="line" smooth="yes"/>
      <point x="359" y="44" type="line" smooth="yes"/>
      <point x="397" y="84" type="line" smooth="yes"/>
      <point x="405" y="0" type="line" smooth="yes"/>
      <point x="420" y="0" type="line" smooth="yes"/>
      <point x="415" y="120" type="line" smooth="yes"/>
      <point x="415" y="361" type="line" smooth="yes"/>
      <point x="402" y="446" type="line" smooth="yes"/>
      <point x="350" y="510" type="line" smooth="yes"/>
      <point x="245" y="536" type="line" smooth="yes"/>
      <point x="140" y="510" type="line" smooth="yes"/>
      <point x="88" y="446" type="line" smooth="yes"/>
      <point x="75" y="361" type="line" smooth="yes"/>
      <point x="75" y="350" type="line" smooth="yes"/>
      <point x="95" y="350" type="line" smooth="yes"/>
      <point x="105" y="433" type="line" smooth="yes"/>
      <point x="148" y="493" type="line" smooth="yes"/>
      <point x="245" y="516" type="line" smooth="yes"/>
      <point x="342" y="493" type="line" smooth="yes"/>
      <point x="385" y="433" type="line" smooth="yes"/>
      <point x="395" y="350" type="line" smooth="yes"/>
      <point x="395" y="317" type="line" smooth="yes"/>
      <point x="215" y="288" type="line" smooth="yes"/>
      <point x="139" y="270" type="line" smooth="yes"/>
      <point x="77" y="226" type="line" smooth="yes"/>
      <point x="52" y="135" type="line" smooth="yes"/>
    </contour>
  </outline>
</glyph>
<glyph name="adieresis" format="1">
  <advance width="485"/>
  <unicode hex="00E4"/>
  <outline>
    <contour>
      <point x="335" y="720" type="line" smooth="yes"/>
      <point x="295" y="720" type="line" smooth="yes"/>
      <point x="295" y="680" type="line" smooth="yes"/>
      <point x="335" y="680" type="line" smooth="yes"/>
    </contour>
    <contour>
      <point x="195" y="720" type="line" smooth="yes"/>
      <point x="155" y="720" type="line" smooth="yes"/>
      <point x="155" y="680" type="line" smooth="yes"/>
      <point x="195" y="680" type="line" smooth="yes"/>
    </contour>
    <contour>
      <point x="201" y="14" type="line" smooth="yes"/>
      <point x="129" y="30" type="line" smooth="yes"/>
      <point x="86" y="70" type="line" smooth="yes"/>
      <point x="72" y="125" type="line" smooth="yes"/>
      <point x="72" y="136" type="line" smooth="yes"/>
      <point x="91" y="210" type="line" smooth="yes"/>
      <point x="140" y="250" type="line" smooth="yes"/>
      <point x="208" y="268" type="line" smooth="yes"/>
      <point x="395" y="298" type="line" smooth="yes"/>
      <point x="395" y="118" type="line" smooth="yes"/>
      <point x="364" y="75" type="line" smooth="yes"/>
      <point x="303" y="33" type="line" smooth="yes"/>
    </contour>
    <contour>
      <point x="52" y="125" type="line" smooth="yes"/>
      <point x="71" y="53" type="line" smooth="yes"/>
      <point x="124" y="9" type="line" smooth="yes"/>
      <point x="200" y="-6" type="line" smooth="yes"/>
      <point x="296" y="9" type="line" smooth="yes"/>
      <point x="359" y="44" type="line" smooth="yes"/>
      <point x="397" y="84" type="line" smooth="yes"/>
      <point x="405" y="0" type="line" smooth="yes"/>
      <point x="420" y="0" type="line" smooth="yes"/>
      <point x="415" y="120" type="line" smooth="yes"/>
      <point x="415" y="361" type="line" smooth="yes"/>
      <point x="402" y="446" type="line" smooth="yes"/>
      <point x="350" y="510" type="line" smooth="yes"/>
      <point x="245" y="536" type="line" smooth="yes"/>
      <point x="140" y="510" type="line" smooth="yes"/>
      <point x="88" y="446" type="line" smooth="yes"/>
      <point x="75" y="361" type="line" smooth="yes"/>
      <point x="75" y="350" type="line" smooth="yes"/>
      <point x="95" y="350" type="line" smooth="yes"/>
      <point x="105" y="433" type="line" smooth="yes"/>
      <point x="148" y="493" type="line" smooth="yes"/>
      <point x="245" y="516" type="line" smooth="yes"/>
      <point x="342" y="493" type="line" smooth="yes"/>
      <point x="385" y="433" type="line" smooth="yes"/>
      <point x="395" y="350" type="line" smooth="yes"/>
      <point x="395" y="317" type="line" smooth="yes"/>
      <point x="215" y="288" type="line" smooth="yes"/>
      <point x="139" y="270" type="line" smooth="yes"/>
      <point x="77" y="226" type="line" smooth="yes"/>
      <point x="52" y="135" type="line" smooth="yes"/>
    </contour>
  </outline>
</glyph>
<glyph name="aring" format="1">
  <advance width="480"/>
  <unicode hex="00E5"/>
  <outline>
    <contour>
      <point x="172" y="700" type="line" smooth="yes"/>
      <point x="181" y="735" type="line" smooth="yes"/>
      <point x="205" y="759" type="line" smooth="yes"/>
      <point x="240" y="768" type="line" smooth="yes"/>
      <point x="275" y="759" type="line" smooth="yes"/>
      <point x="299" y="735" type="line" smooth="yes"/>
      <point x="308" y="700" type="line" smooth="yes"/>
      <point x="299" y="665" type="line" smooth="yes"/>
      <point x="275" y="641" type="line" smooth="yes"/>
      <point x="240" y="632" type="line" smooth="yes"/>
      <point x="205" y="641" type="line" smooth="yes"/>
      <point x="181" y="665" type="line" smooth="yes"/>
    </contour>
    <contour>
      <point x="154" y="700" type="line" smooth="yes"/>
      <point x="166" y="657" type="line" smooth="yes"/>
      <point x="197" y="626" type="line" smooth="yes"/>
      <point x="240" y="614" type="line" smooth="yes"/>
      <point x="283" y="626" type="line" smooth="yes"/>
      <point x="314" y="657" type="line" smooth="yes"/>
      <point x="326" y="700" type="line" smooth="yes"/>
      <point x="314" y="743" type="line" smooth="yes"/>
      <point x="283" y="774" type="line" smooth="yes"/>
      <point x="240" y="786" type="line" smooth="yes"/>
      <point x="197" y="774" type="line" smooth="yes"/>
      <point x="166" y="743" type="line" smooth="yes"/>
    </contour>
    <contour>
      <point x="196" y="14" type="line" smooth="yes"/>
      <point x="124" y="30" type="line" smooth="yes"/>
      <point x="81" y="70" type="line" smooth="yes"/>
      <point x="67" y="125" type="line" smooth="yes"/>
      <point x="67" y="136" type="line" smooth="yes"/>
      <point x="86" y="210" type="line" smooth="yes"/>
      <point x="135" y="250" type="line" smooth="yes"/>
      <point x="203" y="268" type="line" smooth="yes"/>
      <point x="390" y="298" type="line" smooth="yes"/>
      <point x="390" y="118" type="line" smooth="yes"/>
      <point x="359" y="75" type="line" smooth="yes"/>
      <point x="298" y="33" type="line" smooth="yes"/>
    </contour>
    <contour>
      <point x="47" y="125" type="line" smooth="yes"/>
      <point x="66" y="53" type="line" smooth="yes"/>
      <point x="119" y="9" type="line" smooth="yes"/>
      <point x="195" y="-6" type="line" smooth="yes"/>
      <point x="291" y="9" type="line" smooth="yes"/>
      <point x="354" y="44" type="line" smooth="yes"/>
      <point x="392" y="84" type="line" smooth="yes"/>
      <point x="400" y="0" type="line" smooth="yes"/>
      <point x="415" y="0" type="line" smooth="yes"/>
      <point x="410" y="120" type="line" smooth="yes"/>
      <point x="410" y="361" type="line" smooth="yes"/>
      <point x="397" y="446" type="line" smooth="yes"/>
      <point x="345" y="510" type="line" smooth="yes"/>
      <point x="240" y="536" type="line" smooth="yes"/>
      <point x="135" y="510" type="line" smooth="yes"/>
      <point x="83" y="446" type="line" smooth="yes"/>
      <point x="70" y="361" type="line" smooth="yes"/>
      <point x="70" y="350" type="line" smooth="yes"/>
      <point x="90" y="350" type="line" smooth="yes"/>
      <point x="100" y="433" type="line" smooth="yes"/>
      <point x="143" y="493" type="line" smooth="yes"/>
      <point x="240" y="516" type="line" smooth="yes"/>
      <point x="337" y="493" type="line" smooth="yes"/>
      <point x="380" y="433" type="line" smooth="yes"/>
      <point x="390" y="350" type="line" smooth="yes"/>
      <point x="390" y="317" type="line" smooth="yes"/>
      <point x="210" y="288" type="line" smooth="yes"/>
      <point x="134" y="270" type="line" smooth="yes"/>
      <point x="72" y="226" type="line" smooth="yes"/>
      <point x="47" y="135" type="line" smooth="yes"/>
    </contour>
  </outline>
</glyph>
<glyph name="ae" format="1">
  <advance width="865"/>
  <unicode hex="00E6"/>
  <outline>
    <contour>
      <point x="196" y="14" type="line" smooth="yes"/>
      <point x="124" y="30" type="line" smooth="yes"/>
      <point x="81" y="70" type="line" smooth="yes"/>
      <point x="67" y="125" type="line" smooth="yes"/>
      <point x="67" y="136" type="line" smooth="yes"/>
      <point x="86" y="210" type="line" smooth="yes"/>
      <point x="135" y="250" type="line" smooth="yes"/>
      <point x="203" y="268" type="line" smooth="yes"/>
      <point x="390" y="298" type="line" smooth="yes"/>
      <point x="390" y="255" type="line" smooth="yes"/>
      <point x="392" y="215" type="line" smooth="yes"/>
      <point x="397" y="178" type="line" smooth="yes"/>
      <point x="405" y="143" type="line" smooth="yes"/>
      <point x="365" y="82" type="line" smooth="yes"/>
      <point x="298" y="33" type="line" smooth="yes"/>
    </contour>
    <contour>
      <point x="600" y="516" type="line" smooth="yes"/>
      <point x="707" y="485" type="line" smooth="yes"/>
      <point x="769" y="400" type="line" smooth="yes"/>
      <point x="790" y="275" type="line" smooth="yes"/>
      <point x="410" y="275" type="line" smooth="yes"/>
      <point x="431" y="400" type="line" smooth="yes"/>
      <point x="493" y="485" type="line" smooth="yes"/>
    </contour>
    <contour>
      <point x="47" y="125" type="line" smooth="yes"/>
      <point x="66" y="53" type="line" smooth="yes"/>
      <point x="119" y="9" type="line" smooth="yes"/>
      <point x="195" y="-6" type="line" smooth="yes"/>
      <point x="305" y="15" type="line" smooth="yes"/>
      <point x="375" y="63" type="line" smooth="yes"/>
      <point x="414" y="118" type="line" smooth="yes"/>
      <point x="455" y="53" type="line" smooth="yes"/>
      <point x="518" y="9" type="line" smooth="yes"/>
      <point x="605" y="-6" type="line" smooth="yes"/>
      <point x="723" y="22" type="line" smooth="yes"/>
      <point x="790" y="87" type="line" smooth="yes"/>
      <point x="810" y="165" type="line" smooth="yes"/>
      <point x="810" y="170" type="line" smooth="yes"/>
      <point x="790" y="170" type="line" smooth="yes"/>
      <point x="772" y="98" type="line" smooth="yes"/>
      <point x="713" y="39" type="line" smooth="yes"/>
      <point x="605" y="14" type="line" smooth="yes"/>
      <point x="494" y="45" type="line" smooth="yes"/>
      <point x="430" y="130" type="line" smooth="yes"/>
      <point x="410" y="255" type="line" smooth="yes"/>
      <point x="810" y="255" type="line" smooth="yes"/>
      <point x="810" y="275" type="line" smooth="yes"/>
      <point x="788" y="408" type="line" smooth="yes"/>
      <point x="720" y="501" type="line" smooth="yes"/>
      <point x="600" y="536" type="line" smooth="yes"/>
      <point x="508" y="517" type="line" smooth="yes"/>
      <point x="444" y="465" type="line" smooth="yes"/>
      <point x="407" y="387" type="line" smooth="yes"/>
      <point x="389" y="461" type="line" smooth="yes"/>
      <point x="337" y="515" type="line" smooth="yes"/>
      <point x="240" y="536" type="line" smooth="yes"/>
      <point x="135" y="510" type="line" smooth="yes"/>
      <point x="83" y="446" type="line" smooth="yes"/>
      <point x="70" y="361" type="line" smooth="yes"/>
      <point x="70" y="350" type="line" smooth="yes"/>
      <point x="90" y="350" type="line" smooth="yes"/>
      <point x="100" y="433" type="line" smooth="yes"/>
      <point x="143" y="493" type="line" smooth="yes"/>
      <point x="240" y="516" type="line" smooth="yes"/>
      <point x="337" y="493" type="line" smooth="yes"/>
      <point x="380" y="433" type="line" smooth="yes"/>
      <point x="390" y="350" type="line" smooth="yes"/>
      <point x="390" y="317" type="line" smooth="yes"/>
      <point x="210" y="288" type="line" smooth="yes"/>
      <point x="134" y="270" type="line" smooth="yes"/>
      <point x="72" y="226" type="line" smooth="yes"/>
      <point x="47" y="135" type="line" smooth="yes"/>
    </contour>
  </outline>
</glyph>
<glyph name="ccedilla" format="1">
  <advance width="505"/>
  <unicode hex="00E7"/>
  <outline>
    <contour>
      <point x="189" y="-188" type="line" smooth="yes"/>
      <point x="213" y="-198" type="line" smooth="yes"/>
      <point x="240" y="-204" type="line" smooth="yes"/>
      <point x="268" y="-206" type="line" smooth="yes"/>
      <point x="312" y="-200" type="line" smooth="yes"/>
      <point x="346" y="-179" type="line" smooth="yes"/>
      <point x="359" y="-135" type="line" smooth="yes"/>
      <point x="346" y="-91" type="line" smooth="yes"/>
      <point x="313" y="-70" type="line" smooth="yes"/>
      <point x="273" y="-64" type="line" smooth="yes"/>
      <point x="266" y="-64" type="line" smooth="yes"/>
      <point x="260" y="-64" type="line" smooth="yes"/>
      <point x="255" y="-65" type="line" smooth="yes"/>
      <point x="276" y="-6" type="line" smooth="yes"/>
      <point x="379" y="22" type="line" smooth="yes"/>
      <point x="434" y="86" type="line" smooth="yes"/>
      <point x="450" y="165" type="line" smooth="yes"/>
      <point x="450" y="175" type="line" smooth="yes"/>
      <point x="430" y="175" type="line" smooth="yes"/>
      <point x="414" y="92" type="line" smooth="yes"/>
      <point x="362" y="35" type="line" smooth="yes"/>
      <point x="268" y="14" type="line" smooth="yes"/>
      <point x="160" y="44" type="line" smooth="yes"/>
      <point x="96" y="128" type="line" smooth="yes"/>
      <point x="75" y="255" type="line" smooth="yes"/>
      <point x="75" y="275" type="line" smooth="yes"/>
      <point x="96" y="402" type="line" smooth="yes"/>
      <point x="160" y="486" type="line" smooth="yes"/>
      <point x="268" y="516" type="line" smooth="yes"/>
      <point x="362" y="493" type="line" smooth="yes"/>
      <point x="414" y="432" type="line" smooth="yes"/>
      <point x="430" y="345" type="line" smooth="yes"/>
      <point x="450" y="345" type="line" smooth="yes"/>
      <point x="450" y="355" type="line" smooth="yes"/>
      <point x="433" y="440" type="line" smooth="yes"/>
      <point x="376" y="508" type="line" smooth="yes"/>
      <point x="268" y="536" type="line" smooth="yes"/>
      <point x="147" y="502" type="line" smooth="yes"/>
      <point x="77" y="409" type="line" smooth="yes"/>
      <point x="55" y="275" type="line" smooth="yes"/>
      <point x="55" y="255" type="line" smooth="yes"/>
      <point x="76" y="124" type="line" smooth="yes"/>
      <point x="141" y="32" type="line" smooth="yes"/>
      <point x="256" y="-6" type="line" smooth="yes"/>
      <point x="232" y="-73" type="line" smooth="yes"/>
      <point x="243" y="-84" type="line" smooth="yes"/>
      <point x="246" y="-83" type="line" smooth="yes"/>
      <point x="255" y="-83" type="line" smooth="yes"/>
      <point x="268" y="-82" type="line" smooth="yes"/>
      <point x="304" y="-85" type="line" smooth="yes"/>
      <point x="331" y="-100" type="line" smooth="yes"/>
      <point x="341" y="-135" type="line" smooth="yes"/>
      <point x="331" y="-170" type="line" smooth="yes"/>
      <point x="304" y="-185" type="line" smooth="yes"/>
      <point x="268" y="-188" type="line" smooth="yes"/>
      <point x="242" y="-186" type="line" smooth="yes"/>
      <point x="216" y="-180" type="line" smooth="yes"/>
      <point x="195" y="-172" type="line" smooth="yes"/>
    </contour>
  </outline>
</glyph>
<glyph name="ecircumflex" format="1">
  <advance width="530"/>
  <unicode hex="00EA"/>
  <outline>
    <contour>
      <point x="155" y="620" type="line" smooth="yes"/>
      <point x="265" y="762" type="line" smooth="yes"/>
      <point x="375" y="620" type="line" smooth="yes"/>
      <point x="400" y="620" type="line" smooth="yes"/>
      <point x="275" y="780" type="line" smooth="yes"/>
      <point x="255" y="780" type="line" smooth="yes"/>
      <point x="130" y="620" type="line" smooth="yes"/>
    </contour>
    <contour>
      <point x="265" y="516" type="line" smooth="yes"/>
      <point x="372" y="485" type="line" smooth="yes"/>
      <point x="434" y="400" type="line" smooth="yes"/>
      <point x="455" y="275" type="line" smooth="yes"/>
      <point x="75" y="275" type="line" smooth="yes"/>
      <point x="96" y="400" type="line" smooth="yes"/>
      <point x="158" y="485" type="line" smooth="yes"/>
    </contour>
    <contour>
      <point x="475" y="255" type="line" smooth="yes"/>
      <point x="475" y="275" type="line" smooth="yes"/>
      <point x="453" y="408" type="line" smooth="yes"/>
      <point x="385" y="501" type="line" smooth="yes"/>
      <point x="265" y="536" type="line" smooth="yes"/>
      <point x="145" y="501" type="line" smooth="yes"/>
      <point x="77" y="408" type="line" smooth="yes"/>
      <point x="55" y="275" type="line" smooth="yes"/>
      <point x="55" y="255" type="line" smooth="yes"/>
      <point x="77" y="122" type="line" smooth="yes"/>
      <point x="147" y="29" type="line" smooth="yes"/>
      <point x="270" y="-6" type="line" smooth="yes"/>
      <point x="388" y="22" type="line" smooth="yes"/>
      <point x="455" y="87" type="line" smooth="yes"/>
      <point x="475" y="165" type="line" smooth="yes"/>
      <point x="475" y="170" type="line" smooth="yes"/>
      <point x="455" y="170" type="line" smooth="yes"/>
      <point x="437" y="98" type="line" smooth="yes"/>
      <point x="378" y="39" type="line" smooth="yes"/>
      <point x="270" y="14" type="line" smooth="yes"/>
      <point x="159" y="45" type="line" smooth="yes"/>
      <point x="95" y="130" type="line" smooth="yes"/>
      <point x="75" y="255" type="line" smooth="yes"/>
    </contour>
  </outline>
</glyph>
<glyph name="edieresis" format="1">
  <advance width="530"/>
  <unicode hex="00EB"/>
  <outline>
    <contour>
      <point x="355" y="720" type="line" smooth="yes"/>
      <point x="315" y="720" type="line" smooth="yes"/>
      <point x="315" y="680" type="line" smooth="yes"/>
      <point x="355" y="680" type="line" smooth="yes"/>
    </contour>
    <contour>
      <point x="215" y="720" type="line" smooth="yes"/>
      <point x="175" y="720" type="line" smooth="yes"/>
      <point x="175" y="680" type="line" smooth="yes"/>
      <point x="215" y="680" type="line" smooth="yes"/>
    </contour>
    <contour>
      <point x="265" y="516" type="line" smooth="yes"/>
      <point x="372" y="485" type="line" smooth="yes"/>
      <point x="434" y="400" type="line" smooth="yes"/>
      <point x="455" y="275" type="line" smooth="yes"/>
      <point x="75" y="275" type="line" smooth="yes"/>
      <point x="96" y="400" type="line" smooth="yes"/>
      <point x="158" y="485" type="line" smooth="yes"/>
    </contour>
    <contour>
      <point x="475" y="255" type="line" smooth="yes"/>
      <point x="475" y="275" type="line" smooth="yes"/>
      <point x="453" y="408" type="line" smooth="yes"/>
      <point x="385" y="501" type="line" smooth="yes"/>
      <point x="265" y="536" type="line" smooth="yes"/>
      <point x="145" y="501" type="line" smooth="yes"/>
      <point x="77" y="408" type="line" smooth="yes"/>
      <point x="55" y="275" type="line" smooth="yes"/>
      <point x="55" y="255" type="line" smooth="yes"/>
      <point x="77" y="122" type="line" smooth="yes"/>
      <point x="147" y="29" type="line" smooth="yes"/>
      <point x="270" y="-6" type="line" smooth="yes"/>
      <point x="388" y="22" type="line" smooth="yes"/>
      <point x="455" y="87" type="line" smooth="yes"/>
      <point x="475" y="165" type="line" smooth="yes"/>
      <point x="475" y="170" type="line" smooth="yes"/>
      <point x="455" y="170" type="line" smooth="yes"/>
      <point x="437" y="98" type="line" smooth="yes"/>
      <point x="378" y="39" type="line" smooth="yes"/>
      <point x="270" y="14" type="line" smooth="yes"/>
      <point x="159" y="45" type="line" smooth="yes"/>
      <point x="95" y="130" type="line" smooth="yes"/>
      <point x="75" y="255" type="line" smooth="yes"/>
    </contour>
  </outline>
</glyph>
<glyph name="idieresis" format="1">
  <advance width="180"/>
  <unicode hex="00EF"/>
  <outline>
    <contour>
      <point x="40" y="720" type="line" smooth="yes"/>
      <point x="0" y="720" type="line" smooth="yes"/>
      <point x="0" y="680" type="line" smooth="yes"/>
      <point x="40" y="680" type="line" smooth="yes"/>
    </contour>
    <contour>
      <point x="180" y="720" type="line" smooth="yes"/>
      <point x="140" y="720" type="line" smooth="yes"/>
      <point x="140" y="680" type="line" smooth="yes"/>
      <point x="180" y="680" type="line" smooth="yes"/>
    </contour>
    <contour>
      <point x="80" y="0" type="line" smooth="yes"/>
      <point x="100" y="0" type="line" smooth="yes"/>
      <point x="100" y="530" type="line" smooth="yes"/>
      <point x="80" y="530" type="line" smooth="yes"/>
    </contour>
  </outline>
</glyph>
<glyph name="eth" format="1">
  <advance width="526"/>
  <unicode hex="00F0"/>
  <outline>
    <contour>
      <point x="263" y="14" type="line" smooth="yes"/>
      <point x="160" y="44" type="line" smooth="yes"/>
      <point x="97" y="127" type="line" smooth="yes"/>
      <point x="75" y="255" type="line" smooth="yes"/>
      <point x="75" y="275" type="line" smooth="yes"/>
      <point x="97" y="403" type="line" smooth="yes"/>
      <point x="160" y="486" type="line" smooth="yes"/>
      <point x="263" y="516" type="line" smooth="yes"/>
      <point x="366" y="486" type="line" smooth="yes"/>
      <point x="429" y="403" type="line" smooth="yes"/>
      <point x="451" y="275" type="line" smooth="yes"/>
      <point x="451" y="255" type="line" smooth="yes"/>
      <point x="429" y="127" type="line" smooth="yes"/>
      <point x="366" y="44" type="line" smooth="yes"/>
    </contour>
    <contour>
      <point x="346" y="623" type="line" smooth="yes"/>
      <point x="388" y="562" type="line" smooth="yes"/>
      <point x="417" y="497" type="line" smooth="yes"/>
      <point x="437" y="429" type="line" smooth="yes"/>
      <point x="396" y="487" type="line" smooth="yes"/>
      <point x="338" y="523" type="line" smooth="yes"/>
      <point x="263" y="536" type="line" smooth="yes"/>
      <point x="150" y="504" type="line" smooth="yes"/>
      <point x="79" y="415" type="line" smooth="yes"/>
      <point x="55" y="275" type="line" smooth="yes"/>
      <point x="55" y="255" type="line" smooth="yes"/>
      <point x="79" y="115" type="line" smooth="yes"/>
      <point x="150" y="26" type="line" smooth="yes"/>
      <point x="263" y="-6" type="line" smooth="yes"/>
      <point x="376" y="26" type="line" smooth="yes"/>
      <point x="447" y="115" type="line" smooth="yes"/>
      <point x="471" y="255" type="line" smooth="yes"/>
      <point x="471" y="275" type="line" smooth="yes"/>
      <point x="462" y="398" type="line" smooth="yes"/>
      <point x="428" y="522" type="line" smooth="yes"/>
      <point x="359" y="637" type="line" smooth="yes"/>
      <point x="329" y="669" type="line" smooth="yes"/>
      <point x="298" y="697" type="line" smooth="yes"/>
      <point x="266" y="722" type="line" smooth="yes"/>
      <point x="366" y="782" type="line" smooth="yes"/>
      <point x="366" y="806" type="line" smooth="yes"/>
      <point x="247" y="736" type="line" smooth="yes"/>
      <point x="183" y="771" type="line" smooth="yes"/>
      <point x="119" y="793" type="line" smooth="yes"/>
      <point x="56" y="806" type="line" smooth="yes"/>
      <point x="56" y="786" type="line" smooth="yes"/>
      <point x="108" y="775" type="line" smooth="yes"/>
      <point x="166" y="755" type="line" smooth="yes"/>
      <point x="227" y="724" type="line" smooth="yes"/>
      <point x="95" y="646" type="line" smooth="yes"/>
      <point x="95" y="622" type="line" smooth="yes"/>
      <point x="247" y="711" type="line" smooth="yes"/>
      <point x="281" y="686" type="line" smooth="yes"/>
      <point x="314" y="657" type="line" smooth="yes"/>
    </contour>
  </outline>
</glyph>
<glyph name="ntilde" format="1">
  <advance width="490"/>
  <unicode hex="00F1"/>
  <outline>
    <contour>
      <point x="367" y="732" type="line" smooth="yes"/>
      <point x="360" y="699" type="line" smooth="yes"/>
      <point x="344" y="683" type="line" smooth="yes"/>
      <point x="322" y="680" type="line" smooth="yes"/>
      <point x="275" y="695" type="line" smooth="yes"/>
      <point x="227" y="723" type="line" smooth="yes"/>
      <point x="175" y="738" type="line" smooth="yes"/>
      <point x="146" y="732" type="line" smooth="yes"/>
      <point x="124" y="710" type="line" smooth="yes"/>
      <point x="115" y="668" type="line" smooth="yes"/>
      <point x="133" y="668" type="line" smooth="yes"/>
      <point x="140" y="701" type="line" smooth="yes"/>
      <point x="156" y="717" type="line" smooth="yes"/>
      <point x="178" y="720" type="line" smooth="yes"/>
      <point x="225" y="705" type="line" smooth="yes"/>
      <point x="273" y="677" type="line" smooth="yes"/>
      <point x="325" y="662" type="line" smooth="yes"/>
      <point x="354" y="668" type="line" smooth="yes"/>
      <point x="376" y="690" type="line" smooth="yes"/>
      <point x="385" y="732" type="line" smooth="yes"/>
    </contour>
    <contour>
      <point x="430" y="0" type="line" smooth="yes"/>
      <point x="430" y="380" type="line" smooth="yes"/>
      <point x="412" y="468" type="line" smooth="yes"/>
      <point x="358" y="519" type="line" smooth="yes"/>
      <point x="271" y="536" type="line" smooth="yes"/>
      <point x="187" y="523" type="line" smooth="yes"/>
      <point x="126" y="489" type="line" smooth="yes"/>
      <point x="87" y="448" type="line" smooth="yes"/>
      <point x="80" y="530" type="line" smooth="yes"/>
      <point x="65" y="530" type="line" smooth="yes"/>
      <point x="70" y="410" type="line" smooth="yes"/>
      <point x="70" y="0" type="line" smooth="yes"/>
      <point x="90" y="0" type="line" smooth="yes"/>
      <point x="90" y="423" type="line" smooth="yes"/>
      <point x="127" y="466" type="line" smooth="yes"/>
      <point x="186" y="501" type="line" smooth="yes"/>
      <point x="269" y="516" type="line" smooth="yes"/>
      <point x="346" y="503" type="line" smooth="yes"/>
      <point x="394" y="458" type="line" smooth="yes"/>
      <point x="410" y="375" type="line" smooth="yes"/>
      <point x="410" y="0" type="line" smooth="yes"/>
    </contour>
  </outline>
</glyph>
<glyph name="oacute" format="1">
  <advance width="526"/>
  <unicode hex="00F3"/>
  <outline>
    <contour>
      <point x="342" y="780" type="line" smooth="yes"/>
      <point x="252" y="620" type="line" smooth="yes"/>
      <point x="274" y="620" type="line" smooth="yes"/>
      <point x="364" y="780" type="line" smooth="yes"/>
    </contour>
    <contour>
      <point x="263" y="14" type="line" smooth="yes"/>
      <point x="160" y="44" type="line" smooth="yes"/>
      <point x="97" y="127" type="line" smooth="yes"/>
      <point x="75" y="255" type="line" smooth="yes"/>
      <point x="75" y="275" type="line" smooth="yes"/>
      <point x="97" y="403" type="line" smooth="yes"/>
      <point x="160" y="486" type="line" smooth="yes"/>
      <point x="263" y="516" type="line" smooth="yes"/>
      <point x="366" y="486" type="line" smooth="yes"/>
      <point x="429" y="403" type="line" smooth="yes"/>
      <point x="451" y="275" type="line" smooth="yes"/>
      <point x="451" y="255" type="line" smooth="yes"/>
      <point x="429" y="127" type="line" smooth="yes"/>
      <point x="366" y="44" type="line" smooth="yes"/>
    </contour>
    <contour>
      <point x="263" y="-6" type="line" smooth="yes"/>
      <point x="376" y="26" type="line" smooth="yes"/>
      <point x="447" y="115" type="line" smooth="yes"/>
      <point x="471" y="255" type="line" smooth="yes"/>
      <point x="471" y="275" type="line" smooth="yes"/>
      <point x="447" y="415" type="line" smooth="yes"/>
      <point x="376" y="504" type="line" smooth="yes"/>
      <point x="263" y="536" type="line" smooth="yes"/>
      <point x="150" y="504" type="line" smooth="yes"/>
      <point x="79" y="415" type="line" smooth="yes"/>
      <point x="55" y="275" type="line" smooth="yes"/>
      <point x="55" y="255" type="line" smooth="yes"/>
      <point x="79" y="115" type="line" smooth="yes"/>
      <point x="150" y="26" type="line" smooth="yes"/>
    </contour>
  </outline>
</glyph>
<glyph name="ocircumflex" format="1">
  <advance width="526"/>
  <unicode hex="00F4"/>
  <outline>
    <contour>
      <point x="153" y="620" type="line" smooth="yes"/>
      <point x="263" y="762" type="line" smooth="yes"/>
      <point x="373" y="620" type="line" smooth="yes"/>
      <point x="398" y="620" type="line" smooth="yes"/>
      <point x="273" y="780" type="line" smooth="yes"/>
      <point x="253" y="780" type="line" smooth="yes"/>
      <point x="128" y="620" type="line" smooth="yes"/>
    </contour>
    <contour>
      <point x="263" y="14" type="line" smooth="yes"/>
      <point x="160" y="44" type="line" smooth="yes"/>
      <point x="97" y="127" type="line" smooth="yes"/>
      <point x="75" y="255" type="line" smooth="yes"/>
      <point x="75" y="275" type="line" smooth="yes"/>
      <point x="97" y="403" type="line" smooth="yes"/>
      <point x="160" y="486" type="line" smooth="yes"/>
      <point x="263" y="516" type="line" smooth="yes"/>
      <point x="366" y="486" type="line" smooth="yes"/>
      <point x="429" y="403" type="line" smooth="yes"/>
      <point x="451" y="275" type="line" smooth="yes"/>
      <point x="451" y="255" type="line" smooth="yes"/>
      <point x="429" y="127" type="line" smooth="yes"/>
      <point x="366" y="44" type="line" smooth="yes"/>
    </contour>
    <contour>
      <point x="263" y="-6" type="line" smooth="yes"/>
      <point x="376" y="26" type="line" smooth="yes"/>
      <point x="447" y="115" type="line" smooth="yes"/>
      <point x="471" y="255" type="line" smooth="yes"/>
      <point x="471" y="275" type="line" smooth="yes"/>
      <point x="447" y="415" type="line" smooth="yes"/>
      <point x="376" y="504" type="line" smooth="yes"/>
      <point x="263" y="536" type="line" smooth="yes"/>
      <point x="150" y="504" type="line" smooth="yes"/>
      <point x="79" y="415" type="line" smooth="yes"/>
      <point x="55" y="275" type="line" smooth="yes"/>
      <point x="55" y="255" type="line" smooth="yes"/>
      <point x="79" y="115" type="line" smooth="yes"/>
      <point x="150" y="26" type="line" smooth="yes"/>
    </contour>
  </outline>
</glyph>
<glyph name="otilde" format="1">
  <advance width="526"/>
  <unicode hex="00F5"/>
  <outline>
    <contour>
      <point x="380" y="732" type="line" smooth="yes"/>
      <point x="373" y="699" type="line" smooth="yes"/>
      <point x="357" y="683" type="line" smooth="yes"/>
      <point x="335" y="680" type="line" smooth="yes"/>
      <point x="288" y="695" type="line" smooth="yes"/>
      <point x="240" y="723" type="line" smooth="yes"/>
      <point x="188" y="738" type="line" smooth="yes"/>
      <point x="159" y="732" type="line" smooth="yes"/>
      <point x="137" y="710" type="line" smooth="yes"/>
      <point x="128" y="668" type="line" smooth="yes"/>
      <point x="146" y="668" type="line" smooth="yes"/>
      <point x="153" y="701" type="line" smooth="yes"/>
      <point x="169" y="717" type="line" smooth="yes"/>
      <point x="191" y="720" type="line" smooth="yes"/>
      <point x="238" y="705" type="line" smooth="yes"/>
      <point x="286" y="677" type="line" smooth="yes"/>
      <point x="338" y="662" type="line" smooth="yes"/>
      <point x="367" y="668" type="line" smooth="yes"/>
      <point x="389" y="690" type="line" smooth="yes"/>
      <point x="398" y="732" type="line" smooth="yes"/>
    </contour>
    <contour>
      <point x="263" y="14" type="line" smooth="yes"/>
      <point x="160" y="44" type="line" smooth="yes"/>
      <point x="97" y="127" type="line" smooth="yes"/>
      <point x="75" y="255" type="line" smooth="yes"/>
      <point x="75" y="275" type="line" smooth="yes"/>
      <point x="97" y="403" type="line" smooth="yes"/>
      <point x="160" y="486" type="line" smooth="yes"/>
      <point x="263" y="516" type="line" smooth="yes"/>
      <point x="366" y="486" type="line" smooth="yes"/>
      <point x="429" y="403" type="line" smooth="yes"/>
      <point x="451" y="275" type="line" smooth="yes"/>
      <point x="451" y="255" type="line" smooth="yes"/>
      <point x="429" y="127" type="line" smooth="yes"/>
      <point x="366" y="44" type="line" smooth="yes"/>
    </contour>
    <contour>
      <point x="263" y="-6" type="line" smooth="yes"/>
      <point x="376" y="26" type="line" smooth="yes"/>
      <point x="447" y="115" type="line" smooth="yes"/>
      <point x="471" y="255" type="line" smooth="yes"/>
      <point x="471" y="275" type="line" smooth="yes"/>
      <point x="447" y="415" type="line" smooth="yes"/>
      <point x="376" y="504" type="line" smooth="yes"/>
      <point x="263" y="536" type="line" smooth="yes"/>
      <point x="150" y="504" type="line" smooth="yes"/>
      <point x="79" y="415" type="line" smooth="yes"/>
      <point x="55" y="275" type="line" smooth="yes"/>
      <point x="55" y="255" type="line" smooth="yes"/>
      <point x="79" y="115" type="line" smooth="yes"/>
      <point x="150" y="26" type="line" smooth="yes"/>
    </contour>
  </outline>
</glyph>
<glyph name="odieresis" format="1">
  <advance width="526"/>
  <unicode hex="00F6"/>
  <outline>
    <contour>
      <point x="353" y="720" type="line" smooth="yes"/>
      <point x="313" y="720" type="line" smooth="yes"/>
      <point x="313" y="680" type="line" smooth="yes"/>
      <point x="353" y="680" type="line" smooth="yes"/>
    </contour>
    <contour>
      <point x="213" y="720" type="line" smooth="yes"/>
      <point x="173" y="720" type="line" smooth="yes"/>
      <point x="173" y="680" type="line" smooth="yes"/>
      <point x="213" y="680" type="line" smooth="yes"/>
    </contour>
    <contour>
      <point x="263" y="14" type="line" smooth="yes"/>
      <point x="160" y="44" type="line" smooth="yes"/>
      <point x="97" y="127" type="line" smooth="yes"/>
      <point x="75" y="255" type="line" smooth="yes"/>
      <point x="75" y="275" type="line" smooth="yes"/>
      <point x="97" y="403" type="line" smooth="yes"/>
      <point x="160" y="486" type="line" smooth="yes"/>
      <point x="263" y="516" type="line" smooth="yes"/>
      <point x="366" y="486" type="line" smooth="yes"/>
      <point x="429" y="403" type="line" smooth="yes"/>
      <point x="451" y="275" type="line" smooth="yes"/>
      <point x="451" y="255" type="line" smooth="yes"/>
      <point x="429" y="127" type="line" smooth="yes"/>
      <point x="366" y="44" type="line" smooth="yes"/>
    </contour>
    <contour>
      <point x="263" y="-6" type="line" smooth="yes"/>
      <point x="376" y="26" type="line" smooth="yes"/>
      <point x="447" y="115" type="line" smooth="yes"/>
      <point x="471" y="255" type="line" smooth="yes"/>
      <point x="471" y="275" type="line" smooth="yes"/>
      <point x="447" y="415" type="line" smooth="yes"/>
      <point x="376" y="504" type="line" smooth="yes"/>
      <point x="263" y="536" type="line" smooth="yes"/>
      <point x="150" y="504" type="line" smooth="yes"/>
      <point x="79" y="415" type="line" smooth="yes"/>
      <point x="55" y="275" type="line" smooth="yes"/>
      <point x="55" y="255" type="line" smooth="yes"/>
      <point x="79" y="115" type="line" smooth="yes"/>
      <point x="150" y="26" type="line" smooth="yes"/>
    </contour>
  </outline>
</glyph>
<glyph name="divide" format="1">
  <advance width="600"/>
  <unicode hex="00F7"/>
  <outline>
    <contour>
      <point x="320" y="180" type="line" smooth="yes"/>
      <point x="280" y="180" type="line" smooth="yes"/>
      <point x="280" y="140" type="line" smooth="yes"/>
      <point x="320" y="140" type="line" smooth="yes"/>
    </contour>
    <contour>
      <point x="320" y="640" type="line" smooth="yes"/>
      <point x="280" y="640" type="line" smooth="yes"/>
      <point x="280" y="600" type="line" smooth="yes"/>
      <point x="320" y="600" type="line" smooth="yes"/>
    </contour>
    <contour>
      <point x="50" y="380" type="line" smooth="yes"/>
      <point x="550" y="380" type="line" smooth="yes"/>
      <point x="550" y="400" type="line" smooth="yes"/>
      <point x="50" y="400" type="line" smooth="yes"/>
    </contour>
  </outline>
</glyph>
<glyph name="oslash" format="1">
  <advance width="526"/>
  <unicode hex="00F8"/>
  <outline>
    <contour>
      <point x="75" y="255" type="line" smooth="yes"/>
      <point x="75" y="275" type="line" smooth="yes"/>
      <point x="97" y="403" type="line" smooth="yes"/>
      <point x="160" y="486" type="line" smooth="yes"/>
      <point x="263" y="516" type="line" smooth="yes"/>
      <point x="315" y="509" type="line" smooth="yes"/>
      <point x="359" y="491" type="line" smooth="yes"/>
      <point x="395" y="460" type="line" smooth="yes"/>
      <point x="118" y="85" type="line" smooth="yes"/>
      <point x="94" y="132" type="line" smooth="yes"/>
      <point x="80" y="189" type="line" smooth="yes"/>
    </contour>
    <contour>
      <point x="263" y="14" type="line" smooth="yes"/>
      <point x="210" y="21" type="line" smooth="yes"/>
      <point x="166" y="39" type="line" smooth="yes"/>
      <point x="130" y="70" type="line" smooth="yes"/>
      <point x="407" y="444" type="line" smooth="yes"/>
      <point x="431" y="398" type="line" smooth="yes"/>
      <point x="446" y="341" type="line" smooth="yes"/>
      <point x="451" y="275" type="line" smooth="yes"/>
      <point x="451" y="255" type="line" smooth="yes"/>
      <point x="429" y="127" type="line" smooth="yes"/>
      <point x="366" y="44" type="line" smooth="yes"/>
    </contour>
    <contour>
      <point x="471" y="530" type="line" smooth="yes"/>
      <point x="447" y="530" type="line" smooth="yes"/>
      <point x="408" y="477" type="line" smooth="yes"/>
      <point x="368" y="509" type="line" smooth="yes"/>
      <point x="320" y="529" type="line" smooth="yes"/>
      <point x="263" y="536" type="line" smooth="yes"/>
      <point x="150" y="504" type="line" smooth="yes"/>
      <point x="79" y="415" type="line" smooth="yes"/>
      <point x="55" y="275" type="line" smooth="yes"/>
      <point x="55" y="255" type="line" smooth="yes"/>
      <point x="61" y="181" type="line" smooth="yes"/>
      <point x="77" y="119" type="line" smooth="yes"/>
      <point x="105" y="68" type="line" smooth="yes"/>
      <point x="55" y="0" type="line" smooth="yes"/>
      <point x="79" y="0" type="line" smooth="yes"/>
      <point x="118" y="53" type="line" smooth="yes"/>
      <point x="157" y="21" type="line" smooth="yes"/>
      <point x="206" y="1" type="line" smooth="yes"/>
      <point x="263" y="-6" type="line" smooth="yes"/>
      <point x="376" y="26" type="line" smooth="yes"/>
      <point x="447" y="115" type="line" smooth="yes"/>
      <point x="471" y="255" type="line" smooth="yes"/>
      <point x="471" y="275" type="line" smooth="yes"/>
      <point x="465" y="348" type="line" smooth="yes"/>
      <point x="448" y="411" type="line" smooth="yes"/>
      <point x="420" y="462" type="line" smooth="yes"/>
    </contour>
  </outline>
</glyph>
<glyph name="ucircumflex" format="1">
  <advance width="490"/>
  <unicode hex="00FB"/>
  <outline>
    <contour>
      <point x="130" y="620" type="line" smooth="yes"/>
      <point x="240" y="762" type="line" smooth="yes"/>
      <point x="350" y="620" type="line" smooth="yes"/>
      <point x="375" y="620" type="line" smooth="yes"/>
      <point x="250" y="780" type="line" smooth="yes"/>
      <point x="230" y="780" type="line" smooth="yes"/>
      <point x="105" y="620" type="line" smooth="yes"/>
    </contour>
    <contour>
      <point x="60" y="530" type="line" smooth="yes"/>
      <point x="60" y="150" type="line" smooth="yes"/>
      <point x="78" y="62" type="line" smooth="yes"/>
      <point x="132" y="11" type="line" smooth="yes"/>
      <point x="219" y="-6" type="line" smooth="yes"/>
      <point x="303" y="7" type="line" smooth="yes"/>
      <point x="363" y="40" type="line" smooth="yes"/>
      <point x="402" y="81" type="line" smooth="yes"/>
      <point x="410" y="0" type="line" smooth="yes"/>
      <point x="425" y="0" type="line" smooth="yes"/>
      <point x="420" y="120" type="line" smooth="yes"/>
      <point x="420" y="530" type="line" smooth="yes"/>
      <point x="400" y="530" type="line" smooth="yes"/>
      <point x="400" y="107" type="line" smooth="yes"/>
      <point x="363" y="64" type="line" smooth="yes"/>
      <point x="304" y="29" type="line" smooth="yes"/>
      <point x="221" y="14" type="line" smooth="yes"/>
      <point x="144" y="27" type="line" smooth="yes"/>
      <point x="96" y="72" type="line" smooth="yes"/>
      <point x="80" y="155" type="line" smooth="yes"/>
      <point x="80" y="530" type="line" smooth="yes"/>
    </contour>
  </outline>
</glyph>
<glyph name="udieresis" format="1">
  <advance width="490"/>
  <unicode hex="00FC"/>
  <outline>
    <contour>
      <point x="190" y="720" type="line" smooth="yes"/>
      <point x="150" y="720" type="line" smooth="yes"/>
      <point x="150" y="680" type="line" smooth="yes"/>
      <point x="190" y="680" type="line" smooth="yes"/>
    </contour>
    <contour>
      <point x="330" y="720" type="line" smooth="yes"/>
      <point x="290" y="720" type="line" smooth="yes"/>
      <point x="290" y="680" type="line" smooth="yes"/>
      <point x="330" y="680" type="line" smooth="yes"/>
    </contour>
    <contour>
      <point x="60" y="530" type="line" smooth="yes"/>
      <point x="60" y="150" type="line" smooth="yes"/>
      <point x="78" y="62" type="line" smooth="yes"/>
      <point x="132" y="11" type="line" smooth="yes"/>
      <point x="219" y="-6" type="line" smooth="yes"/>
      <point x="303" y="7" type="line" smooth="yes"/>
      <point x="363" y="40" type="line" smooth="yes"/>
      <point x="402" y="81" type="line" smooth="yes"/>
      <point x="410" y="0" type="line" smooth="yes"/>
      <point x="425" y="0" type="line" smooth="yes"/>
      <point x="420" y="120" type="line" smooth="yes"/>
      <point x="420" y="530" type="line" smooth="yes"/>
      <point x="400" y="530" type="line" smooth="yes"/>
      <point x="400" y="107" type="line" smooth="yes"/>
      <point x="363" y="64" type="line" smooth="yes"/>
      <point x="304" y="29" type="line" smooth="yes"/>
      <point x="221" y="14" type="line" smooth="yes"/>
      <point x="144" y="27" type="line" smooth="yes"/>
      <point x="96" y="72" type="line" smooth="yes"/>
      <point x="80" y="155" type="line" smooth="yes"/>
      <point x="80" y="530" type="line" smooth="yes"/>
    </contour>
  </outline>
</glyph>
<glyph name="thorn" format="1">
  <advance width="510"/>
  <unicode hex="00FE"/>
  <outline>
    <contour>
      <point x="70" y="-200" type="line" smooth="yes"/>
      <point x="90" y="-200" type="line" smooth="yes"/>
      <point x="90" y="75" type="line" smooth="yes"/>
      <point x="125" y="38" type="line" smooth="yes"/>
      <point x="178" y="7" type="line" smooth="yes"/>
      <point x="252" y="-6" type="line" smooth="yes"/>
      <point x="364" y="26" type="line" smooth="yes"/>
      <point x="432" y="115" type="line" smooth="yes"/>
      <point x="455" y="255" type="line" smooth="yes"/>
      <point x="455" y="275" type="line" smooth="yes"/>
      <point x="432" y="415" type="line" smooth="yes"/>
      <point x="364" y="504" type="line" smooth="yes"/>
      <point x="252" y="536" type="line" smooth="yes"/>
      <point x="178" y="523" type="line" smooth="yes"/>
      <point x="125" y="492" type="line" smooth="yes"/>
      <point x="90" y="455" type="line" smooth="yes"/>
      <point x="90" y="800" type="line" smooth="yes"/>
      <point x="70" y="800" type="line" smooth="yes"/>
    </contour>
    <contour>
      <point x="90" y="423" type="line" smooth="yes"/>
      <point x="125" y="465" type="line" smooth="yes"/>
      <point x="178" y="501" type="line" smooth="yes"/>
      <point x="252" y="516" type="line" smooth="yes"/>
      <point x="354" y="486" type="line" smooth="yes"/>
      <point x="415" y="403" type="line" smooth="yes"/>
      <point x="435" y="275" type="line" smooth="yes"/>
      <point x="435" y="255" type="line" smooth="yes"/>
      <point x="415" y="127" type="line" smooth="yes"/>
      <point x="354" y="44" type="line" smooth="yes"/>
      <point x="252" y="14" type="line" smooth="yes"/>
      <point x="178" y="29" type="line" smooth="yes"/>
      <point x="125" y="65" type="line" smooth="yes"/>
      <point x="90" y="107" type="line" smooth="yes"/>
    </contour>
  </outline>
</glyph>
<glyph name="Abreve" format="1">
  <advance width="590"/>
  <unicode hex="0102"/>
  <outline>
    <contour>
      <point x="295" y="852" type="line" smooth="yes"/>
      <point x="234" y="864" type="line" smooth="yes"/>
      <point x="196" y="898" type="line" smooth="yes"/>
      <point x="183" y="950" type="line" smooth="yes"/>
      <point x="165" y="950" type="line" smooth="yes"/>
      <point x="181" y="889" type="line" smooth="yes"/>
      <point x="225" y="849" type="line" smooth="yes"/>
      <point x="295" y="834" type="line" smooth="yes"/>
      <point x="365" y="849" type="line" smooth="yes"/>
      <point x="409" y="889" type="line" smooth="yes"/>
      <point x="425" y="950" type="line" smooth="yes"/>
      <point x="407" y="950" type="line" smooth="yes"/>
      <point x="394" y="898" type="line" smooth="yes"/>
      <point x="356" y="864" type="line" smooth="yes"/>
    </contour>
    <contour>
      <point x="295" y="760" type="line" smooth="yes"/>
      <point x="455" y="250" type="line" smooth="yes"/>
      <point x="135" y="250" type="line" smooth="yes"/>
    </contour>
    <contour>
      <point x="285" y="790" type="line" smooth="yes"/>
      <point x="35" y="0" type="line" smooth="yes"/>
      <point x="56" y="0" type="line" smooth="yes"/>
      <point x="128" y="230" type="line" smooth="yes"/>
      <point x="462" y="230" type="line" smooth="yes"/>
      <point x="534" y="0" type="line" smooth="yes"/>
      <point x="555" y="0" type="line" smooth="yes"/>
      <point x="305" y="790" type="line" smooth="yes"/>
    </contour>
  </outline>
</glyph>
<glyph name="Aogonek" format="1">
  <advance width="590"/>
  <unicode hex="0104"/>
  <outline>
    <contour>
      <point x="295" y="760" type="line" smooth="yes"/>
      <point x="455" y="250" type="line" smooth="yes"/>
      <point x="135" y="250" type="line" smooth="yes"/>
    </contour>
    <contour>
      <point x="594" y="-172" type="line" smooth="yes"/>
      <point x="576" y="-179" type="line" smooth="yes"/>
      <point x="552" y="-185" type="line" smooth="yes"/>
      <point x="521" y="-188" type="line" smooth="yes"/>
      <point x="485" y="-181" type="line" smooth="yes"/>
      <point x="458" y="-158" type="line" smooth="yes"/>
      <point x="448" y="-115" type="line" smooth="yes"/>
      <point x="465" y="-57" type="line" smooth="yes"/>
      <point x="506" y="-21" type="line" smooth="yes"/>
      <point x="555" y="0" type="line" smooth="yes"/>
      <point x="305" y="790" type="line" smooth="yes"/>
      <point x="285" y="790" type="line" smooth="yes"/>
      <point x="35" y="0" type="line" smooth="yes"/>
      <point x="56" y="0" type="line" smooth="yes"/>
      <point x="128" y="230" type="line" smooth="yes"/>
      <point x="462" y="230" type="line" smooth="yes"/>
      <point x="531" y="9" type="line" smooth="yes"/>
      <point x="482" y="-16" type="line" smooth="yes"/>
      <point x="445" y="-55" type="line" smooth="yes"/>
      <point x="430" y="-115" type="line" smooth="yes"/>
      <point x="443" y="-167" type="line" smooth="yes"/>
      <point x="477" y="-197" type="line" smooth="yes"/>
      <point x="521" y="-206" type="line" smooth="yes"/>
      <point x="555" y="-203" type="line" smooth="yes"/>
      <point x="580" y="-197" type="line" smooth="yes"/>
      <point x="600" y="-188" type="line" smooth="yes"/>
    </contour>
  </outline>
</glyph>
<glyph name="aogonek" format="1">
  <advance width="485"/>
  <unicode hex="0105"/>
  <outline>
    <contour>
      <point x="201" y="14" type="line" smooth="yes"/>
      <point x="129" y="30" type="line" smooth="yes"/>
      <point x="86" y="70" type="line" smooth="yes"/>
      <point x="72" y="125" type="line" smooth="yes"/>
      <point x="72" y="136" type="line" smooth="yes"/>
      <point x="91" y="210" type="line" smooth="yes"/>
      <point x="140" y="250" type="line" smooth="yes"/>
      <point x="208" y="268" type="line" smooth="yes"/>
      <point x="395" y="298" type="line" smooth="yes"/>
      <point x="395" y="118" type="line" smooth="yes"/>
      <point x="364" y="75" type="line" smooth="yes"/>
      <point x="303" y="33" type="line" smooth="yes"/>
    </contour>
    <contour>
      <point x="459" y="-172" type="line" smooth="yes"/>
      <point x="441" y="-179" type="line" smooth="yes"/>
      <point x="417" y="-185" type="line" smooth="yes"/>
      <point x="386" y="-188" type="line" smooth="yes"/>
      <point x="350" y="-181" type="line" smooth="yes"/>
      <point x="323" y="-158" type="line" smooth="yes"/>
      <point x="313" y="-115" type="line" smooth="yes"/>
      <point x="330" y="-57" type="line" smooth="yes"/>
      <point x="371" y="-21" type="line" smooth="yes"/>
      <point x="420" y="0" type="line" smooth="yes"/>
      <point x="415" y="120" type="line" smooth="yes"/>
      <point x="415" y="361" type="line" smooth="yes"/>
      <point x="402" y="446" type="line" smooth="yes"/>
      <point x="350" y="510" type="line" smooth="yes"/>
      <point x="245" y="536" type="line" smooth="yes"/>
      <point x="140" y="510" type="line" smooth="yes"/>
      <point x="88" y="446" type="line" smooth="yes"/>
      <point x="75" y="361" type="line" smooth="yes"/>
      <point x="75" y="350" type="line" smooth="yes"/>
      <point x="95" y="350" type="line" smooth="yes"/>
      <point x="105" y="433" type="line" smooth="yes"/>
      <point x="148" y="493" type="line" smooth="yes"/>
      <point x="245" y="516" type="line" smooth="yes"/>
      <point x="342" y="493" type="line" smooth="yes"/>
      <point x="385" y="433" type="line" smooth="yes"/>
      <point x="395" y="350" type="line" smooth="yes"/>
      <point x="395" y="317" type="line" smooth="yes"/>
      <point x="215" y="288" type="line" smooth="yes"/>
      <point x="139" y="270" type="line" smooth="yes"/>
      <point x="77" y="226" type="line" smooth="yes"/>
      <point x="52" y="135" type="line" smooth="yes"/>
      <point x="52" y="125" type="line" smooth="yes"/>
      <point x="71" y="53" type="line" smooth="yes"/>
      <point x="124" y="9" type="line" smooth="yes"/>
      <point x="200" y="-6" type="line" smooth="yes"/>
      <point x="296" y="9" type="line" smooth="yes"/>
      <point x="359" y="44" type="line" smooth="yes"/>
      <point x="397" y="84" type="line" smooth="yes"/>
      <point x="404" y="12" type="line" smooth="yes"/>
      <point x="351" y="-13" type="line" smooth="yes"/>
      <point x="311" y="-53" type="line" smooth="yes"/>
      <point x="295" y="-115" type="line" smooth="yes"/>
      <point x="308" y="-167" type="line" smooth="yes"/>
      <point x="342" y="-197" type="line" smooth="yes"/>
      <point x="386" y="-206" type="line" smooth="yes"/>
      <point x="420" y="-203" type="line" smooth="yes"/>
      <point x="445" y="-197" type="line" smooth="yes"/>
      <point x="465" y="-188" type="line" smooth="yes"/>
    </contour>
  </outline>
</glyph>
<glyph name="Ccaron" format="1">
  <advance width="593"/>
  <unicode hex="010C"/>
  <outline>
    <contour>
      <point x="401" y="950" type="line" smooth="yes"/>
      <point x="315" y="855" type="line" smooth="yes"/>
      <point x="229" y="950" type="line" smooth="yes"/>
      <point x="205" y="950" type="line" smooth="yes"/>
      <point x="305" y="840" type="line" smooth="yes"/>
      <point x="325" y="840" type="line" smooth="yes"/>
      <point x="425" y="950" type="line" smooth="yes"/>
    </contour>
    <contour>
      <point x="65" y="410" type="line" smooth="yes"/>
      <point x="65" y="370" type="line" smooth="yes"/>
      <point x="93" y="153" type="line" smooth="yes"/>
      <point x="177" y="31" type="line" smooth="yes"/>
      <point x="315" y="-6" type="line" smooth="yes"/>
      <point x="440" y="25" type="line" smooth="yes"/>
      <point x="512" y="109" type="line" smooth="yes"/>
      <point x="535" y="236" type="line" smooth="yes"/>
      <point x="535" y="250" type="line" smooth="yes"/>
      <point x="515" y="250" type="line" smooth="yes"/>
      <point x="492" y="115" type="line" smooth="yes"/>
      <point x="425" y="38" type="line" smooth="yes"/>
      <point x="318" y="14" type="line" smooth="yes"/>
      <point x="312" y="14" type="line" smooth="yes"/>
      <point x="187" y="49" type="line" smooth="yes"/>
      <point x="111" y="163" type="line" smooth="yes"/>
      <point x="85" y="370" type="line" smooth="yes"/>
      <point x="85" y="410" type="line" smooth="yes"/>
      <point x="111" y="617" type="line" smooth="yes"/>
      <point x="187" y="731" type="line" smooth="yes"/>
      <point x="312" y="766" type="line" smooth="yes"/>
      <point x="318" y="766" type="line" smooth="yes"/>
      <point x="430" y="741" type="line" smooth="yes"/>
      <point x="494" y="657" type="line" smooth="yes"/>
      <point x="515" y="500" type="line" smooth="yes"/>
      <point x="535" y="500" type="line" smooth="yes"/>
      <point x="535" y="520" type="line" smooth="yes"/>
      <point x="512" y="673" type="line" smooth="yes"/>
      <point x="439" y="759" type="line" smooth="yes"/>
      <point x="315" y="786" type="line" smooth="yes"/>
      <point x="177" y="749" type="line" smooth="yes"/>
      <point x="93" y="627" type="line" smooth="yes"/>
    </contour>
  </outline>
</glyph>
<glyph name="Dcaron" format="1">
  <advance width="615"/>
  <unicode hex="010E"/>
  <outline>
    <contour>
      <point x="356" y="950" type="line" smooth="yes"/>
      <point x="270" y="855" type="line" smooth="yes"/>
      <point x="184" y="950" type="line" smooth="yes"/>
      <point x="160" y="950" type="line" smooth="yes"/>
      <point x="260" y="840" type="line" smooth="yes"/>
      <point x="280" y="840" type="line" smooth="yes"/>
      <point x="380" y="950" type="line" smooth="yes"/>
    </contour>
    <contour>
      <point x="100" y="20" type="line" smooth="yes"/>
      <point x="100" y="760" type="line" smooth="yes"/>
      <point x="265" y="760" type="line" smooth="yes"/>
      <point x="406" y="727" type="line" smooth="yes"/>
      <point x="501" y="616" type="line" smooth="yes"/>
      <point x="535" y="410" type="line" smooth="yes"/>
      <point x="535" y="370" type="line" smooth="yes"/>
      <point x="501" y="164" type="line" smooth="yes"/>
      <point x="406" y="53" type="line" smooth="yes"/>
      <point x="265" y="20" type="line" smooth="yes"/>
    </contour>
    <contour>
      <point x="555" y="370" type="line" smooth="yes"/>
      <point x="555" y="410" type="line" smooth="yes"/>
      <point x="518" y="628" type="line" smooth="yes"/>
      <point x="417" y="745" type="line" smooth="yes"/>
      <point x="270" y="780" type="line" smooth="yes"/>
      <point x="80" y="780" type="line" smooth="yes"/>
      <point x="80" y="0" type="line" smooth="yes"/>
      <point x="270" y="0" type="line" smooth="yes"/>
      <point x="417" y="35" type="line" smooth="yes"/>
      <point x="518" y="152" type="line" smooth="yes"/>
    </contour>
  </outline>
</glyph>
<glyph name="dcaron" format="1">
  <advance width="510"/>
  <unicode hex="010F"/>
  <outline>
    <contour>
      <point x="530" y="800" type="line" smooth="yes"/>
      <point x="530" y="620" type="line" smooth="yes"/>
      <point x="540" y="620" type="line" smooth="yes"/>
      <point x="551" y="800" type="line" smooth="yes"/>
    </contour>
    <contour>
      <point x="420" y="423" type="line" smooth="yes"/>
      <point x="420" y="107" type="line" smooth="yes"/>
      <point x="385" y="65" type="line" smooth="yes"/>
      <point x="332" y="29" type="line" smooth="yes"/>
      <point x="258" y="14" type="line" smooth="yes"/>
      <point x="156" y="44" type="line" smooth="yes"/>
      <point x="95" y="127" type="line" smooth="yes"/>
      <point x="75" y="255" type="line" smooth="yes"/>
      <point x="75" y="275" type="line" smooth="yes"/>
      <point x="95" y="403" type="line" smooth="yes"/>
      <point x="156" y="486" type="line" smooth="yes"/>
      <point x="258" y="516" type="line" smooth="yes"/>
      <point x="332" y="501" type="line" smooth="yes"/>
      <point x="385" y="465" type="line" smooth="yes"/>
    </contour>
    <contour>
      <point x="258" y="536" type="line" smooth="yes"/>
      <point x="146" y="504" type="line" smooth="yes"/>
      <point x="78" y="415" type="line" smooth="yes"/>
      <point x="55" y="275" type="line" smooth="yes"/>
      <point x="55" y="255" type="line" smooth="yes"/>
      <point x="78" y="115" type="line" smooth="yes"/>
      <point x="146" y="26" type="line" smooth="yes"/>
      <point x="258" y="-6" type="line" smooth="yes"/>
      <point x="334" y="8" type="line" smooth="yes"/>
      <point x="388" y="41" type="line" smooth="yes"/>
      <point x="423" y="79" type="line" smooth="yes"/>
      <point x="430" y="0" type="line" smooth="yes"/>
      <point x="445" y="0" type="line" smooth="yes"/>
      <point x="440" y="120" type="line" smooth="yes"/>
      <point x="440" y="800" type="line" smooth="yes"/>
      <point x="420" y="800" type="line" smooth="yes"/>
      <point x="420" y="455" type="line" smooth="yes"/>
      <point x="385" y="491" type="line" smooth="yes"/>
      <point x="332" y="523" type="line" smooth="yes"/>
    </contour>
  </outline>
</glyph>
<glyph name="Emacron" format="1">
  <advance width="540"/>
  <unicode hex="0112"/>
  <outline>
    <contour>
      <point x="190" y="885" type="line" smooth="yes"/>
      <point x="390" y="885" type="line" smooth="yes"/>
      <point x="390" y="905" type="line" smooth="yes"/>
      <point x="190" y="905" type="line" smooth="yes"/>
    </contour>
    <contour>
      <point x="80" y="780" type="line" smooth="yes"/>
      <point x="80" y="0" type="line" smooth="yes"/>
      <point x="490" y="0" type="line" smooth="yes"/>
      <point x="490" y="20" type="line" smooth="yes"/>
      <point x="100" y="20" type="line" smooth="yes"/>
      <point x="100" y="388" type="line" smooth="yes"/>
      <point x="440" y="388" type="line" smooth="yes"/>
      <point x="440" y="408" type="line" smooth="yes"/>
      <point x="100" y="408" type="line" smooth="yes"/>
      <point x="100" y="760" type="line" smooth="yes"/>
      <point x="490" y="760" type="line" smooth="yes"/>
      <point x="490" y="780" type="line" smooth="yes"/>
    </contour>
  </outline>
</glyph>
<glyph name="ebreve" format="1">
  <advance width="530"/>
  <unicode hex="0115"/>
  <outline>
    <contour>
      <point x="265" y="614" type="line" smooth="yes"/>
      <point x="348" y="637" type="line" smooth="yes"/>
      <point x="398" y="697" type="line" smooth="yes"/>
      <point x="415" y="780" type="line" smooth="yes"/>
      <point x="397" y="780" type="line" smooth="yes"/>
      <point x="383" y="706" type="line" smooth="yes"/>
      <point x="340" y="653" type="line" smooth="yes"/>
      <point x="265" y="632" type="line" smooth="yes"/>
      <point x="190" y="653" type="line" smooth="yes"/>
      <point x="147" y="706" type="line" smooth="yes"/>
      <point x="133" y="780" type="line" smooth="yes"/>
      <point x="115" y="780" type="line" smooth="yes"/>
      <point x="132" y="697" type="line" smooth="yes"/>
      <point x="182" y="637" type="line" smooth="yes"/>
    </contour>
    <contour>
      <point x="265" y="516" type="line" smooth="yes"/>
      <point x="372" y="485" type="line" smooth="yes"/>
      <point x="434" y="400" type="line" smooth="yes"/>
      <point x="455" y="275" type="line" smooth="yes"/>
      <point x="75" y="275" type="line" smooth="yes"/>
      <point x="96" y="400" type="line" smooth="yes"/>
      <point x="158" y="485" type="line" smooth="yes"/>
    </contour>
    <contour>
      <point x="475" y="255" type="line" smooth="yes"/>
      <point x="475" y="275" type="line" smooth="yes"/>
      <point x="453" y="408" type="line" smooth="yes"/>
      <point x="385" y="501" type="line" smooth="yes"/>
      <point x="265" y="536" type="line" smooth="yes"/>
      <point x="145" y="501" type="line" smooth="yes"/>
      <point x="77" y="408" type="line" smooth="yes"/>
      <point x="55" y="275" type="line" smooth="yes"/>
      <point x="55" y="255" type="line" smooth="yes"/>
      <point x="77" y="122" type="line" smooth="yes"/>
      <point x="147" y="29" type="line" smooth="yes"/>
      <point x="270" y="-6" type="line" smooth="yes"/>
      <point x="388" y="22" type="line" smooth="yes"/>
      <point x="455" y="87" type="line" smooth="yes"/>
      <point x="475" y="165" type="line" smooth="yes"/>
      <point x="475" y="170" type="line" smooth="yes"/>
      <point x="455" y="170" type="line" smooth="yes"/>
      <point x="437" y="98" type="line" smooth="yes"/>
      <point x="378" y="39" type="line" smooth="yes"/>
      <point x="270" y="14" type="line" smooth="yes"/>
      <point x="159" y="45" type="line" smooth="yes"/>
      <point x="95" y="130" type="line" smooth="yes"/>
      <point x="75" y="255" type="line" smooth="yes"/>
    </contour>
  </outline>
</glyph>
<glyph name="Edotaccent" format="1">
  <advance width="540"/>
  <unicode hex="0116"/>
  <outline>
    <contour>
      <point x="310" y="915" type="line" smooth="yes"/>
      <point x="270" y="915" type="line" smooth="yes"/>
      <point x="270" y="875" type="line" smooth="yes"/>
      <point x="310" y="875" type="line" smooth="yes"/>
    </contour>
    <contour>
      <point x="80" y="780" type="line" smooth="yes"/>
      <point x="80" y="0" type="line" smooth="yes"/>
      <point x="490" y="0" type="line" smooth="yes"/>
      <point x="490" y="20" type="line" smooth="yes"/>
      <point x="100" y="20" type="line" smooth="yes"/>
      <point x="100" y="388" type="line" smooth="yes"/>
      <point x="440" y="388" type="line" smooth="yes"/>
      <point x="440" y="408" type="line" smooth="yes"/>
      <point x="100" y="408" type="line" smooth="yes"/>
      <point x="100" y="760" type="line" smooth="yes"/>
      <point x="490" y="760" type="line" smooth="yes"/>
      <point x="490" y="780" type="line" smooth="yes"/>
    </contour>
  </outline>
</glyph>
<glyph name="Eogonek" format="1">
  <advance width="540"/>
  <unicode hex="0118"/>
  <outline>
    <contour>
      <point x="529" y="-172" type="line" smooth="yes"/>
      <point x="511" y="-179" type="line" smooth="yes"/>
      <point x="487" y="-185" type="line" smooth="yes"/>
      <point x="456" y="-188" type="line" smooth="yes"/>
      <point x="420" y="-181" type="line" smooth="yes"/>
      <point x="393" y="-158" type="line" smooth="yes"/>
      <point x="383" y="-115" type="line" smooth="yes"/>
      <point x="400" y="-57" type="line" smooth="yes"/>
      <point x="441" y="-21" type="line" smooth="yes"/>
      <point x="490" y="0" type="line" smooth="yes"/>
      <point x="490" y="20" type="line" smooth="yes"/>
      <point x="100" y="20" type="line" smooth="yes"/>
      <point x="100" y="388" type="line" smooth="yes"/>
      <point x="440" y="388" type="line" smooth="yes"/>
      <point x="440" y="408" type="line" smooth="yes"/>
      <point x="100" y="408" type="line" smooth="yes"/>
      <point x="100" y="760" type="line" smooth="yes"/>
      <point x="490" y="760" type="line" smooth="yes"/>
      <point x="490" y="780" type="line" smooth="yes"/>
      <point x="80" y="780" type="line" smooth="yes"/>
      <point x="80" y="0" type="line" smooth="yes"/>
      <point x="444" y="0" type="line" smooth="yes"/>
      <point x="404" y="-25" type="line" smooth="yes"/>
      <point x="376" y="-62" type="line" smooth="yes"/>
      <point x="365" y="-115" type="line" smooth="yes"/>
      <point x="378" y="-167" type="line" smooth="yes"/>
      <point x="412" y="-197" type="line" smooth="yes"/>
      <point x="456" y="-206" type="line" smooth="yes"/>
      <point x="490" y="-203" type="line" smooth="yes"/>
      <point x="515" y="-197" type="line" smooth="yes"/>
      <point x="535" y="-188" type="line" smooth="yes"/>
    </contour>
  </outline>
</glyph>
<glyph name="eogonek" format="1">
  <advance width="530"/>
  <unicode hex="0119"/>
  <outline>
    <contour>
      <point x="265" y="516" type="line" smooth="yes"/>
      <point x="372" y="485" type="line" smooth="yes"/>
      <point x="434" y="400" type="line" smooth="yes"/>
      <point x="455" y="275" type="line" smooth="yes"/>
      <point x="75" y="275" type="line" smooth="yes"/>
      <point x="96" y="400" type="line" smooth="yes"/>
      <point x="158" y="485" type="line" smooth="yes"/>
    </contour>
    <contour>
      <point x="369" y="-172" type="line" smooth="yes"/>
      <point x="351" y="-179" type="line" smooth="yes"/>
      <point x="327" y="-185" type="line" smooth="yes"/>
      <point x="296" y="-188" type="line" smooth="yes"/>
      <point x="260" y="-181" type="line" smooth="yes"/>
      <point x="233" y="-158" type="line" smooth="yes"/>
      <point x="223" y="-115" type="line" smooth="yes"/>
      <point x="241" y="-56" type="line" smooth="yes"/>
      <point x="283" y="-18" type="line" smooth="yes"/>
      <point x="330" y="0" type="line" smooth="yes"/>
      <point x="413" y="38" type="line" smooth="yes"/>
      <point x="460" y="99" type="line" smooth="yes"/>
      <point x="475" y="165" type="line" smooth="yes"/>
      <point x="475" y="170" type="line" smooth="yes"/>
      <point x="455" y="170" type="line" smooth="yes"/>
      <point x="437" y="98" type="line" smooth="yes"/>
      <point x="378" y="39" type="line" smooth="yes"/>
      <point x="270" y="14" type="line" smooth="yes"/>
      <point x="159" y="45" type="line" smooth="yes"/>
      <point x="95" y="130" type="line" smooth="yes"/>
      <point x="75" y="255" type="line" smooth="yes"/>
      <point x="475" y="255" type="line" smooth="yes"/>
      <point x="475" y="275" type="line" smooth="yes"/>
      <point x="453" y="408" type="line" smooth="yes"/>
      <point x="385" y="501" type="line" smooth="yes"/>
      <point x="265" y="536" type="line" smooth="yes"/>
      <point x="145" y="501" type="line" smooth="yes"/>
      <point x="77" y="408" type="line" smooth="yes"/>
      <point x="55" y="275" type="line" smooth="yes"/>
      <point x="55" y="255" type="line" smooth="yes"/>
      <point x="77" y="122" type="line" smooth="yes"/>
      <point x="147" y="29" type="line" smooth="yes"/>
      <point x="270" y="-6" type="line" smooth="yes"/>
      <point x="272" y="-6" type="line" smooth="yes"/>
      <point x="238" y="-31" type="line" smooth="yes"/>
      <point x="214" y="-67" type="line" smooth="yes"/>
      <point x="205" y="-115" type="line" smooth="yes"/>
      <point x="218" y="-167" type="line" smooth="yes"/>
      <point x="252" y="-197" type="line" smooth="yes"/>
      <point x="296" y="-206" type="line" smooth="yes"/>
      <point x="330" y="-203" type="line" smooth="yes"/>
      <point x="355" y="-197" type="line" smooth="yes"/>
      <point x="375" y="-188" type="line" smooth="yes"/>
    </contour>
  </outline>
</glyph>
<glyph name="gbreve" format="1">
  <advance width="510"/>
  <unicode hex="011F"/>
  <outline>
    <contour>
      <point x="257" y="614" type="line" smooth="yes"/>
      <point x="340" y="637" type="line" smooth="yes"/>
      <point x="390" y="697" type="line" smooth="yes"/>
      <point x="407" y="780" type="line" smooth="yes"/>
      <point x="389" y="780" type="line" smooth="yes"/>
      <point x="375" y="706" type="line" smooth="yes"/>
      <point x="332" y="653" type="line" smooth="yes"/>
      <point x="257" y="632" type="line" smooth="yes"/>
      <point x="182" y="653" type="line" smooth="yes"/>
      <point x="139" y="706" type="line" smooth="yes"/>
      <point x="125" y="780" type="line" smooth="yes"/>
      <point x="107" y="780" type="line" smooth="yes"/>
      <point x="124" y="697" type="line" smooth="yes"/>
      <point x="174" y="637" type="line" smooth="yes"/>
    </contour>
    <contour>
      <point x="420" y="147" type="line" smooth="yes"/>
      <point x="385" y="105" type="line" smooth="yes"/>
      <point x="332" y="69" type="line" smooth="yes"/>
      <point x="258" y="54" type="line" smooth="yes"/>
      <point x="156" y="81" type="line" smooth="yes"/>
      <point x="95" y="156" type="line" smooth="yes"/>
      <point x="75" y="275" type="line" smooth="yes"/>
      <point x="75" y="295" type="line" smooth="yes"/>
      <point x="95" y="414" type="line" smooth="yes"/>
      <point x="156" y="489" type="line" smooth="yes"/>
      <point x="258" y="516" type="line" smooth="yes"/>
      <point x="332" y="501" type="line" smooth="yes"/>
      <point x="385" y="465" type="line" smooth="yes"/>
      <point x="420" y="423" type="line" smooth="yes"/>
    </contour>
    <contour>
      <point x="250" y="-206" type="line" smooth="yes"/>
      <point x="358" y="-181" type="line" smooth="yes"/>
      <point x="420" y="-112" type="line" smooth="yes"/>
      <point x="440" y="-11" type="line" smooth="yes"/>
      <point x="440" y="410" type="line" smooth="yes"/>
      <point x="445" y="530" type="line" smooth="yes"/>
      <point x="430" y="530" type="line" smooth="yes"/>
      <point x="423" y="451" type="line" smooth="yes"/>
      <point x="388" y="489" type="line" smooth="yes"/>
      <point x="333" y="522" type="line" smooth="yes"/>
      <point x="257" y="536" type="line" smooth="yes"/>
      <point x="145" y="507" type="line" smooth="yes"/>
      <point x="78" y="425" type="line" smooth="yes"/>
      <point x="55" y="295" type="line" smooth="yes"/>
      <point x="55" y="275" type="line" smooth="yes"/>
      <point x="78" y="145" type="line" smooth="yes"/>
      <point x="145" y="63" type="line" smooth="yes"/>
      <point x="257" y="34" type="line" smooth="yes"/>
      <point x="331" y="47" type="line" smooth="yes"/>
      <point x="385" y="78" type="line" smooth="yes"/>
      <point x="420" y="115" type="line" smooth="yes"/>
      <point x="420" y="0" type="line" smooth="yes"/>
      <point x="403" y="-99" type="line" smooth="yes"/>
      <point x="349" y="-163" type="line" smooth="yes"/>
      <point x="250" y="-186" type="line" smooth="yes"/>
      <point x="147" y="-163" type="line" smooth="yes"/>
      <point x="91" y="-99" type="line" smooth="yes"/>
      <point x="75" y="0" type="line" smooth="yes"/>
      <point x="55" y="0" type="line" smooth="yes"/>
      <point x="55" y="-11" type="line" smooth="yes"/>
      <point x="74" y="-112" type="line" smooth="yes"/>
      <point x="137" y="-181" type="line" smooth="yes"/>
    </contour>
  </outline>
</glyph>
<glyph name="hcircumflex" format="1">
  <advance width="490"/>
  <unicode hex="0125"/>
  <outline>
    <contour>
      <point x="-6" y="840" type="line" smooth="yes"/>
      <point x="80" y="935" type="line" smooth="yes"/>
      <point x="166" y="840" type="line" smooth="yes"/>
      <point x="190" y="840" type="line" smooth="yes"/>
      <point x="90" y="950" type="line" smooth="yes"/>
      <point x="70" y="950" type="line" smooth="yes"/>
      <point x="-30" y="840" type="line" smooth="yes"/>
    </contour>
    <contour>
      <point x="430" y="0" type="line" smooth="yes"/>
      <point x="430" y="380" type="line" smooth="yes"/>
      <point x="412" y="468" type="line" smooth="yes"/>
      <point x="358" y="519" type="line" smooth="yes"/>
      <point x="271" y="536" type="line" smooth="yes"/>
      <point x="189" y="523" type="line" smooth="yes"/>
      <point x="129" y="492" type="line" smooth="yes"/>
      <point x="90" y="452" type="line" smooth="yes"/>
      <point x="90" y="800" type="line" smooth="yes"/>
      <point x="70" y="800" type="line" smooth="yes"/>
      <point x="70" y="0" type="line" smooth="yes"/>
      <point x="90" y="0" type="line" smooth="yes"/>
      <point x="90" y="423" type="line" smooth="yes"/>
      <point x="127" y="466" type="line" smooth="yes"/>
      <point x="186" y="501" type="line" smooth="yes"/>
      <point x="269" y="516" type="line" smooth="yes"/>
      <point x="346" y="503" type="line" smooth="yes"/>
      <point x="394" y="458" type="line" smooth="yes"/>
      <point x="410" y="375" type="line" smooth="yes"/>
      <point x="410" y="0" type="line" smooth="yes"/>
    </contour>
  </outline>
</glyph>
<glyph name="hbar" format="1">
  <advance width="490"/>
  <unicode hex="0127"/>
  <outline>
    <contour>
      <point x="-35" y="655" type="line" smooth="yes"/>
      <point x="70" y="655" type="line" smooth="yes"/>
      <point x="70" y="0" type="line" smooth="yes"/>
      <point x="90" y="0" type="line" smooth="yes"/>
      <point x="90" y="423" type="line" smooth="yes"/>
      <point x="127" y="466" type="line" smooth="yes"/>
      <point x="186" y="501" type="line" smooth="yes"/>
      <point x="269" y="516" type="line" smooth="yes"/>
      <point x="346" y="503" type="line" smooth="yes"/>
      <point x="394" y="458" type="line" smooth="yes"/>
      <point x="410" y="375" type="line" smooth="yes"/>
      <point x="410" y="0" type="line" smooth="yes"/>
      <point x="430" y="0" type="line" smooth="yes"/>
      <point x="430" y="380" type="line" smooth="yes"/>
      <point x="412" y="468" type="line" smooth="yes"/>
      <point x="358" y="519" type="line" smooth="yes"/>
      <point x="271" y="536" type="line" smooth="yes"/>
      <point x="189" y="523" type="line" smooth="yes"/>
      <point x="129" y="492" type="line" smooth="yes"/>
      <point x="90" y="452" type="line" smooth="yes"/>
      <point x="90" y="655" type="line" smooth="yes"/>
      <point x="255" y="655" type="line" smooth="yes"/>
      <point x="255" y="675" type="line" smooth="yes"/>
      <point x="90" y="675" type="line" smooth="yes"/>
      <point x="90" y="800" type="line" smooth="yes"/>
      <point x="70" y="800" type="line" smooth="yes"/>
      <point x="70" y="675" type="line" smooth="yes"/>
      <point x="-35" y="675" type="line" smooth="yes"/>
    </contour>
  </outline>
</glyph>
<glyph name="Itilde" format="1">
  <advance width="190"/>
  <unicode hex="0128"/>
  <outline>
    <contour>
      <point x="212" y="927" type="line" smooth="yes"/>
      <point x="205" y="894" type="line" smooth="yes"/>
      <point x="189" y="878" type="line" smooth="yes"/>
      <point x="167" y="875" type="line" smooth="yes"/>
      <point x="120" y="890" type="line" smooth="yes"/>
      <point x="72" y="918" type="line" smooth="yes"/>
      <point x="20" y="933" type="line" smooth="yes"/>
      <point x="-9" y="927" type="line" smooth="yes"/>
      <point x="-31" y="905" type="line" smooth="yes"/>
      <point x="-40" y="863" type="line" smooth="yes"/>
      <point x="-22" y="863" type="line" smooth="yes"/>
      <point x="-15" y="896" type="line" smooth="yes"/>
      <point x="1" y="912" type="line" smooth="yes"/>
      <point x="23" y="915" type="line" smooth="yes"/>
      <point x="70" y="900" type="line" smooth="yes"/>
      <point x="118" y="872" type="line" smooth="yes"/>
      <point x="170" y="857" type="line" smooth="yes"/>
      <point x="199" y="863" type="line" smooth="yes"/>
      <point x="221" y="885" type="line" smooth="yes"/>
      <point x="230" y="927" type="line" smooth="yes"/>
    </contour>
    <contour>
      <point x="105" y="780" type="line" smooth="yes"/>
      <point x="85" y="780" type="line" smooth="yes"/>
      <point x="85" y="0" type="line" smooth="yes"/>
      <point x="105" y="0" type="line" smooth="yes"/>
    </contour>
  </outline>
</glyph>
<glyph name="itilde" format="1">
  <advance width="180"/>
  <unicode hex="0129"/>
  <outline>
    <contour>
      <point x="207" y="732" type="line" smooth="yes"/>
      <point x="200" y="699" type="line" smooth="yes"/>
      <point x="184" y="683" type="line" smooth="yes"/>
      <point x="162" y="680" type="line" smooth="yes"/>
      <point x="115" y="695" type="line" smooth="yes"/>
      <point x="67" y="723" type="line" smooth="yes"/>
      <point x="15" y="738" type="line" smooth="yes"/>
      <point x="-14" y="732" type="line" smooth="yes"/>
      <point x="-36" y="710" type="line" smooth="yes"/>
      <point x="-45" y="668" type="line" smooth="yes"/>
      <point x="-27" y="668" type="line" smooth="yes"/>
      <point x="-20" y="701" type="line" smooth="yes"/>
      <point x="-4" y="717" type="line" smooth="yes"/>
      <point x="18" y="720" type="line" smooth="yes"/>
      <point x="65" y="705" type="line" smooth="yes"/>
      <point x="113" y="677" type="line" smooth="yes"/>
      <point x="165" y="662" type="line" smooth="yes"/>
      <point x="194" y="668" type="line" smooth="yes"/>
      <point x="216" y="690" type="line" smooth="yes"/>
      <point x="225" y="732" type="line" smooth="yes"/>
    </contour>
    <contour>
      <point x="80" y="0" type="line" smooth="yes"/>
      <point x="100" y="0" type="line" smooth="yes"/>
      <point x="100" y="530" type="line" smooth="yes"/>
      <point x="80" y="530" type="line" smooth="yes"/>
    </contour>
  </outline>
</glyph>
<glyph name="imacron" format="1">
  <advance width="180"/>
  <unicode hex="012B"/>
  <outline>
    <contour>
      <point x="-10" y="690" type="line" smooth="yes"/>
      <point x="190" y="690" type="line" smooth="yes"/>
      <point x="190" y="710" type="line" smooth="yes"/>
      <point x="-10" y="710" type="line" smooth="yes"/>
    </contour>
    <contour>
      <point x="80" y="0" type="line" smooth="yes"/>
      <point x="100" y="0" type="line" smooth="yes"/>
      <point x="100" y="530" type="line" smooth="yes"/>
      <point x="80" y="530" type="line" smooth="yes"/>
    </contour>
  </outline>
</glyph>
